<svg width="279" height="44" viewBox="0 0 279 44" fill="none" xmlns="http://www.w3.org/2000/svg">
<path d="M16.8117 1.66895C20.6117 1.66895 24.1117 2.60895 27.3117 4.48895C30.5517 6.36895 33.1117 8.92895 34.9917 12.1689C36.8717 15.3689 37.8117 18.869 37.8117 22.669C37.8117 26.469 36.8717 29.9889 34.9917 33.229C33.1117 36.429 30.5517 38.969 27.3117 40.849C24.1117 42.729 20.6117 43.669 16.8117 43.669H0.0117188V1.66895H16.8117ZM13.0317 43.249C16.7517 43.249 20.1917 42.329 23.3517 40.489C26.5117 38.649 29.0117 36.149 30.8517 32.989C32.6917 29.829 33.6117 26.389 33.6117 22.669C33.6117 19.869 33.0717 17.209 31.9917 14.689C30.9117 12.169 29.4517 9.98895 27.6117 8.14895C25.7717 6.30895 23.5717 4.84895 21.0117 3.76895C18.4917 2.64895 15.8317 2.08895 13.0317 2.08895H4.21172V43.249H13.0317Z" fill="white"/>
<path d="M97.4287 1.66895L83.5688 40.489C83.5688 40.489 83.5688 40.509 83.5688 40.549C83.6088 40.549 83.6488 40.549 83.6888 40.549V43.669C82.8888 43.669 82.1288 43.5689 81.4088 43.3689C80.6888 43.1289 80.0488 42.869 79.4888 42.589C78.9288 42.269 78.3688 41.809 77.8088 41.209C77.2888 40.609 76.8287 40.069 76.4287 39.589C76.0287 39.069 75.6088 38.369 75.1688 37.489C74.7688 36.569 74.4287 35.809 74.1488 35.209C73.9088 34.5689 73.6088 33.689 73.2488 32.569C72.8888 31.409 72.6088 30.509 72.4088 29.869C72.2088 29.229 71.9288 28.269 71.5688 26.989C70.4088 22.909 69.4488 19.9089 68.6888 17.9889L58.4888 43.669H54.2887L37.4888 1.66895H41.6888L58.2488 43.129L68.4488 17.509C67.1688 14.389 65.5888 11.989 63.7088 10.3089C61.8688 8.58895 59.5087 7.72895 56.6287 7.72895V4.54895C62.4687 4.54895 66.9487 7.52895 70.0687 13.489L72.9488 6.16895H73.3688L70.3088 13.909C71.5488 16.429 72.9888 20.509 74.6288 26.149C75.0688 27.749 75.4088 28.969 75.6488 29.809C75.9288 30.649 76.2888 31.7289 76.7288 33.049C77.1688 34.3289 77.5688 35.309 77.9288 35.989C78.3288 36.669 78.7888 37.389 79.3088 38.149C79.8688 38.909 80.4488 39.469 81.0488 39.829C81.6888 40.189 82.3888 40.409 83.1488 40.489L97.0088 1.66895H97.4287Z" fill="white"/>
<path d="M133.362 1.66895H133.782V43.669H133.482C131.962 43.669 130.542 43.449 129.222 43.009C127.902 42.569 126.762 42.069 125.802 41.509C124.842 40.909 123.902 40.0289 122.982 38.8689C122.102 37.6689 121.382 36.609 120.822 35.689C120.262 34.769 119.642 33.469 118.962 31.789C118.282 30.109 117.762 28.789 117.402 27.829C117.082 26.869 116.622 25.449 116.022 23.569C115.462 21.889 115.042 20.629 114.762 19.7889C114.482 18.909 114.042 17.729 113.442 16.249C112.882 14.769 112.382 13.629 111.942 12.829C111.542 11.989 110.982 11.029 110.262 9.94895C109.582 8.86895 108.882 8.02895 108.162 7.42895C107.482 6.78895 106.662 6.18895 105.702 5.62895C104.782 5.02895 103.782 4.60895 102.702 4.36895V43.669H102.282V4.24895C101.242 4.04895 100.242 3.94895 99.2817 3.94895V0.828949C101.042 0.828949 102.682 1.06895 104.202 1.54895C105.722 2.02895 107.022 2.60895 108.102 3.28895C109.222 3.96895 110.302 4.94895 111.342 6.22895C112.382 7.50895 113.202 8.64895 113.802 9.64895C114.442 10.6489 115.122 12.0489 115.842 13.849C116.602 15.649 117.162 17.0689 117.522 18.1089C117.882 19.1089 118.382 20.589 119.022 22.549C119.462 23.989 119.802 25.069 120.042 25.789C120.282 26.469 120.622 27.429 121.062 28.669C121.542 29.909 121.922 30.869 122.202 31.549C122.522 32.189 122.942 33.0089 123.462 34.0089C123.982 34.9689 124.462 35.709 124.902 36.229C125.342 36.749 125.882 37.329 126.522 37.969C127.162 38.609 127.802 39.089 128.442 39.409C129.122 39.689 129.882 39.949 130.722 40.189C131.562 40.389 132.442 40.509 133.362 40.549V1.66895Z" fill="white"/>
<path d="M197.507 1.66895L183.647 40.489C183.647 40.489 183.647 40.509 183.647 40.549C183.687 40.549 183.727 40.549 183.767 40.549V43.669C182.967 43.669 182.207 43.5689 181.487 43.3689C180.767 43.1289 180.127 42.869 179.567 42.589C179.007 42.269 178.447 41.809 177.887 41.209C177.367 40.609 176.907 40.069 176.507 39.589C176.107 39.069 175.687 38.369 175.247 37.489C174.847 36.569 174.507 35.809 174.227 35.209C173.987 34.5689 173.687 33.689 173.327 32.569C172.967 31.409 172.687 30.509 172.487 29.869C172.287 29.229 172.007 28.269 171.647 26.989C170.487 22.909 169.527 19.9089 168.767 17.9889L158.567 43.669H154.367L137.567 1.66895H141.767L158.327 43.129L168.527 17.509C167.247 14.389 165.667 11.989 163.787 10.3089C161.947 8.58895 159.587 7.72895 156.707 7.72895V4.54895C162.547 4.54895 167.027 7.52895 170.147 13.489L173.027 6.16895H173.447L170.387 13.909C171.627 16.429 173.067 20.509 174.707 26.149C175.147 27.749 175.487 28.969 175.727 29.809C176.007 30.649 176.367 31.7289 176.807 33.049C177.247 34.3289 177.647 35.309 178.007 35.989C178.407 36.669 178.867 37.389 179.387 38.149C179.947 38.909 180.527 39.469 181.127 39.829C181.767 40.189 182.467 40.409 183.227 40.489L197.087 1.66895H197.507Z" fill="white"/>
<path d="M233.44 1.66895H233.86V43.669H233.56C232.04 43.669 230.62 43.449 229.3 43.009C227.98 42.569 226.84 42.069 225.88 41.509C224.92 40.909 223.98 40.0289 223.06 38.8689C222.18 37.6689 221.46 36.609 220.9 35.689C220.34 34.769 219.72 33.469 219.04 31.789C218.36 30.109 217.84 28.789 217.48 27.829C217.16 26.869 216.7 25.449 216.1 23.569C215.54 21.889 215.12 20.629 214.84 19.7889C214.56 18.909 214.12 17.729 213.52 16.249C212.96 14.769 212.46 13.629 212.02 12.829C211.62 11.989 211.06 11.029 210.34 9.94895C209.66 8.86895 208.96 8.02895 208.24 7.42895C207.56 6.78895 206.74 6.18895 205.78 5.62895C204.86 5.02895 203.86 4.60895 202.78 4.36895V43.669H202.36V4.24895C201.32 4.04895 200.32 3.94895 199.36 3.94895V0.828949C201.12 0.828949 202.76 1.06895 204.28 1.54895C205.8 2.02895 207.1 2.60895 208.18 3.28895C209.3 3.96895 210.38 4.94895 211.42 6.22895C212.46 7.50895 213.28 8.64895 213.88 9.64895C214.52 10.6489 215.2 12.0489 215.92 13.849C216.68 15.649 217.24 17.0689 217.6 18.1089C217.96 19.1089 218.46 20.589 219.1 22.549C219.54 23.989 219.88 25.069 220.12 25.789C220.36 26.469 220.7 27.429 221.14 28.669C221.62 29.909 222 30.869 222.28 31.549C222.6 32.189 223.02 33.0089 223.54 34.0089C224.06 34.9689 224.54 35.709 224.98 36.229C225.42 36.749 225.96 37.329 226.6 37.969C227.24 38.609 227.88 39.089 228.52 39.409C229.2 39.689 229.96 39.949 230.8 40.189C231.64 40.389 232.52 40.509 233.44 40.549V1.66895Z" fill="white"/>
<path d="M257.925 1.66895C261.725 1.66895 265.225 2.60895 268.425 4.48895C271.665 6.36895 274.225 8.92895 276.105 12.1689C277.985 15.3689 278.925 18.869 278.925 22.669C278.925 26.469 277.985 29.9889 276.105 33.229C274.225 36.429 271.665 38.969 268.425 40.849C265.225 42.729 261.725 43.669 257.925 43.669H241.125V1.66895H257.925ZM254.145 43.249C257.865 43.249 261.305 42.329 264.465 40.489C267.625 38.649 270.125 36.149 271.965 32.989C273.805 29.829 274.725 26.389 274.725 22.669C274.725 19.869 274.185 17.209 273.105 14.689C272.025 12.169 270.565 9.98895 268.725 8.14895C266.885 6.30895 264.685 4.84895 262.125 3.76895C259.605 2.64895 256.945 2.08895 254.145 2.08895H245.325V43.249H254.145Z" fill="white"/>
</svg>
