<svg width="192" height="192" viewBox="0 0 192 192" fill="none" xmlns="http://www.w3.org/2000/svg">
<path d="M0 96C0 42.9807 42.9807 0 96 0C149.019 0 192 42.9807 192 96C192 149.019 149.019 192 96 192C42.9807 192 0 149.019 0 96Z" fill="white"/>
<path d="M62.275 78.2986C58.7345 82.7617 55.0857 87.0807 51.3284 91.2558C47.5711 95.359 43.7778 99.0302 39.9482 102.269C36.191 105.437 32.4337 107.992 28.6765 109.936C24.9192 111.807 21.3065 112.743 17.8382 112.743C15.4538 112.743 13.5391 112.455 12.094 111.879C10.7211 111.375 9.6373 110.764 8.8425 110.044C8.11995 109.252 7.61417 108.46 7.32515 107.668C7.10838 106.804 7 106.049 7 105.401C7 104.177 7.36127 103.133 8.08382 102.269C8.80637 101.406 9.81794 100.974 11.1185 100.974C12.2746 100.974 13.1778 101.37 13.8281 102.161C14.4784 102.953 14.8035 103.889 14.8035 104.969C14.8035 105.617 14.6229 106.265 14.2616 106.912C13.9003 107.56 13.3946 107.956 12.7443 108.1C13.3946 109.108 14.2977 109.792 15.4538 110.152C16.6099 110.44 17.8021 110.584 19.0304 110.584C22.1374 110.584 25.3889 109.684 28.7849 107.884C32.2531 106.085 35.7213 103.745 39.1896 100.866C42.7301 97.9144 46.2344 94.6031 49.7027 90.9319C53.1709 87.1887 56.4946 83.3735 59.6738 79.4864C61.0467 77.7588 62.7447 75.6352 64.7678 73.1158C66.8632 70.5963 69.2115 67.8609 71.8127 64.9095C74.4138 61.9582 77.2318 58.9708 80.2665 55.9475C83.3735 52.8521 86.6611 49.9368 90.1293 47.2014C93.5975 44.466 97.2103 42.0185 100.968 39.8589C104.725 37.6994 108.554 36.0798 112.456 35L112.781 35.4319C110.325 37.6634 107.759 40.4348 105.086 43.7461C102.413 47.0574 99.7753 50.6566 97.1741 54.5438C94.6452 58.3589 92.2247 62.3901 89.9125 66.6372C87.6004 70.8842 85.5411 75.1313 83.7347 79.3784C82.0006 83.5535 80.5916 87.5846 79.5078 91.4718C78.4963 95.359 77.9905 98.9222 77.9905 102.161C77.9905 104.393 78.3517 106.301 79.0743 107.884C79.8691 109.396 81.4226 110.152 83.7347 110.152C85.1076 110.152 86.6611 109.648 88.3952 108.64C90.2015 107.632 92.0802 106.301 94.0311 104.645C95.9819 102.989 97.8967 101.154 99.7753 99.1381C101.726 97.1226 103.569 95.143 105.303 93.1994C107.037 91.1839 108.59 89.3123 109.963 87.5846C111.336 85.785 112.42 84.3453 113.215 83.2656L113.973 83.5895C111.517 86.6848 108.916 89.9601 106.17 93.4154C103.424 96.8706 100.642 100.038 97.8244 102.917C95.0065 105.725 92.1524 108.064 89.2622 109.936C86.4443 111.807 83.7347 112.743 81.1336 112.743C79.3994 112.743 77.9182 112.455 76.6899 111.879C75.5338 111.232 74.5584 110.368 73.7635 109.288C72.9687 108.208 72.3907 106.984 72.0294 105.617C71.6682 104.249 71.4875 102.809 71.4875 101.298C71.4875 97.1946 72.0656 93.2714 73.2216 89.5282C74.3777 85.713 75.6783 81.9698 77.1234 78.2986H62.275ZM77.6653 77.0029C80.9168 70.3084 84.7463 63.7578 89.1538 57.3512C93.6337 50.9446 98.9083 44.8619 104.978 39.1031L104.761 38.8872C100.931 40.7588 97.1741 43.0623 93.4891 45.7977C89.8764 48.5331 86.3359 51.5564 82.8677 54.8677C79.3994 58.179 76.0035 61.7062 72.6797 65.4494C69.4283 69.1926 66.249 73.0438 63.1421 77.0029H77.6653Z" fill="#53473B"/>
<path d="M128.099 90.9319C128.171 91.6518 128.208 92.3356 128.208 92.9835C128.208 93.6313 128.208 94.2792 128.208 94.927C128.208 97.7344 127.521 100.434 126.148 103.025C124.848 105.545 122.969 107.812 120.512 109.828C118.128 111.771 115.274 113.319 111.95 114.471C108.627 115.623 104.978 116.198 101.004 116.198C95.0787 116.198 90.6351 114.867 87.6726 112.203C84.7824 109.54 83.3373 106.085 83.3373 101.838C83.3373 98.3823 84.4934 94.8191 86.8056 91.1479C89.19 87.4767 93.0917 84.1294 98.5109 81.106C103.93 78.0827 111.083 75.5992 119.971 73.6556C128.858 71.6401 139.877 70.6323 153.027 70.6323C157.073 70.6323 160.758 70.7403 164.082 70.9562C167.406 71.1722 170.26 71.2802 172.644 71.2802C174.74 71.2802 176.474 71.1722 177.847 70.9562C179.292 70.7403 180.52 70.6323 181.532 70.6323C182.399 70.6323 183.194 70.9202 183.916 71.4961C184.639 72 185 72.7558 185 73.7636C185 74.4115 184.783 74.9514 184.35 75.3833C183.988 75.7432 183.302 75.9951 182.29 76.1391C181.279 76.2831 179.906 76.3911 178.172 76.463C176.51 76.463 174.379 76.463 171.777 76.463C166.719 76.463 162.493 77.3628 159.097 79.1625C155.773 80.8901 152.666 83.5535 149.776 87.1527C146.886 90.68 143.887 95.143 140.78 100.542C137.673 105.869 133.807 112.095 129.183 119.222C127.593 121.669 125.57 124.441 123.114 127.536C120.729 130.631 117.875 133.547 114.551 136.282C111.228 139.018 107.434 141.321 103.171 143.193C98.9083 145.064 94.1033 146 88.7564 146C86.7333 146 84.6018 145.748 82.3619 145.244C80.122 144.812 78.0627 144.092 76.1841 143.085C74.3777 142.005 72.8604 140.601 71.632 138.874C70.4759 137.146 69.8979 135.022 69.8979 132.503C69.8979 130.919 70.3314 129.588 71.1985 128.508C72.1378 127.356 73.4384 126.78 75.1003 126.78C76.2563 126.78 77.1957 127.176 77.9182 127.968C78.713 128.688 79.1104 129.624 79.1104 130.775C79.1104 131.855 78.7491 132.719 78.0266 133.367C77.304 134.015 76.4731 134.339 75.5338 134.339C75.028 134.339 74.5945 134.267 74.2332 134.123C74.5945 137.578 76.2202 140.205 79.1104 142.005C82.0006 143.804 85.5772 144.704 89.8403 144.704C93.8865 144.704 97.6077 143.804 101.004 142.005C104.4 140.205 107.543 137.83 110.433 134.878C113.395 131.927 116.177 128.58 118.778 124.837C121.38 121.021 123.945 117.098 126.474 113.067C129.075 108.964 131.676 104.933 134.277 100.974C136.878 96.9426 139.624 93.2714 142.514 89.9601C145.404 86.6488 148.475 83.8414 151.727 81.5379C155.05 79.1624 158.699 77.6148 162.673 76.8949V76.679C159.422 76.679 155.881 76.535 152.052 76.2471C148.222 75.9591 144.682 75.8152 141.43 75.8152C132.326 75.8152 124.234 76.499 117.153 77.8667C110.144 79.1625 104.219 80.9981 99.3779 83.3735C94.5368 85.677 90.8518 88.4125 88.3229 91.5798C85.8662 94.7471 84.6379 98.1663 84.6379 101.838C84.6379 106.157 86.083 109.432 88.9732 111.663C91.9357 113.823 96.0903 114.903 101.437 114.903C105.194 114.903 108.627 114.363 111.734 113.283C114.84 112.131 117.514 110.656 119.754 108.856C121.994 106.984 123.728 104.861 124.956 102.485C126.257 100.11 126.907 97.6625 126.907 95.143C126.907 94.4232 126.907 93.7393 126.907 93.0914C126.907 92.3716 126.871 91.6518 126.799 90.9319H128.099Z" fill="#53473B"/>
</svg>
