<svg width="651" height="541" viewBox="0 0 651 541" fill="none" xmlns="http://www.w3.org/2000/svg">
<path d="M111.884 88.1622C104.781 97.1465 97.4615 105.841 89.9243 114.246C82.3871 122.505 74.7774 129.896 67.0953 136.417C59.5581 142.793 52.0209 147.937 44.4837 151.849C36.9466 155.617 29.6993 157.501 22.7419 157.501C17.9587 157.501 14.1176 156.921 11.2187 155.762C8.46471 154.747 6.29052 153.516 4.69612 152.067C3.24666 150.473 2.23204 148.879 1.65226 147.285C1.21742 145.546 1 144.024 1 142.72C1 140.257 1.72473 138.155 3.17419 136.417C4.62365 134.678 6.65289 133.808 9.26191 133.808C11.581 133.808 13.3929 134.605 14.6974 136.199C16.0019 137.793 16.6541 139.677 16.6541 141.851C16.6541 143.155 16.2918 144.459 15.5671 145.763C14.8423 147.067 13.8277 147.864 12.5232 148.154C13.8277 150.183 15.6395 151.559 17.9587 152.284C20.2778 152.864 22.6694 153.153 25.1335 153.153C31.3662 153.153 37.8887 151.342 44.7012 147.719C51.6586 144.097 58.616 139.387 65.5734 133.591C72.6757 127.65 79.7056 120.984 86.663 113.594C93.6204 106.058 100.288 98.3782 106.666 90.5532C109.419 87.0754 112.826 82.8006 116.884 77.7288C121.088 72.657 125.798 67.1505 131.016 61.2093C136.234 55.2681 141.887 49.2544 147.975 43.1682C154.208 36.9372 160.803 31.0684 167.76 25.5619C174.718 20.0554 181.965 15.1285 189.502 10.7813C197.039 6.43405 204.721 3.17362 212.548 1L213.201 1.86945C208.273 6.36159 203.127 11.9406 197.764 18.6063C192.401 25.2721 187.11 32.5175 181.892 40.3425C176.819 48.0227 171.964 56.1375 167.325 64.6871C162.687 73.2367 158.556 81.7862 154.932 90.3358C151.454 98.7405 148.627 106.855 146.453 114.68C144.424 122.505 143.409 129.678 143.409 136.199C143.409 140.691 144.134 144.531 145.583 147.719C147.178 150.762 150.294 152.284 154.932 152.284C157.686 152.284 160.803 151.27 164.281 149.241C167.905 147.212 171.674 144.531 175.587 141.199C179.501 137.866 183.342 134.171 187.11 130.113C191.024 126.056 194.72 122.071 198.199 118.158C201.677 114.101 204.794 110.333 207.548 106.855C210.302 103.233 212.476 100.334 214.07 98.1609L215.592 98.8129C210.664 105.044 205.446 111.637 199.938 118.593C194.43 125.548 188.85 131.924 183.197 137.721C177.544 143.372 171.819 148.082 166.021 151.849C160.368 155.617 154.932 157.501 149.714 157.501C146.236 157.501 143.264 156.921 140.8 155.762C138.481 154.458 136.524 152.719 134.93 150.545C133.336 148.372 132.176 145.908 131.451 143.155C130.727 140.402 130.364 137.503 130.364 134.46C130.364 126.201 131.524 118.303 133.843 110.768C136.162 103.088 138.771 95.5525 141.67 88.1622H111.884ZM142.757 85.5539C149.28 72.0774 156.962 58.8908 165.803 45.994C174.79 33.0971 185.371 20.8524 197.547 9.25976L197.112 8.82502C189.43 12.5926 181.892 17.2297 174.5 22.7362C167.253 28.2427 160.151 34.3289 153.193 40.9946C146.236 47.6604 139.423 54.7609 132.756 62.2961C126.233 69.8313 119.856 77.5839 113.623 85.5539H142.757Z" fill="white"/>
<path d="M235.233 80.9892L206.534 120.767L206.969 121.201C210.012 117.579 213.564 113.376 217.622 108.594C221.681 103.667 226.029 99.0303 230.667 94.6831C235.305 90.3358 240.089 86.7131 245.017 83.815C250.09 80.7719 255.091 79.2503 260.019 79.2503C264.367 79.2503 267.701 80.4821 270.02 82.9455C272.484 85.264 273.716 88.3071 273.716 92.0747C273.716 94.3932 272.846 97.1465 271.107 100.334C269.513 103.522 267.483 106.928 265.019 110.55C262.555 114.173 259.874 117.868 256.975 121.636C254.076 125.404 251.394 129.026 248.93 132.504C246.466 135.837 244.365 138.952 242.625 141.851C241.031 144.604 240.234 146.922 240.234 148.806C240.234 152.864 242.263 154.892 246.321 154.892C250.96 154.892 255.888 153.371 261.106 150.328C266.324 147.14 272.557 141.851 279.804 134.46C282.703 131.562 285.602 128.374 288.501 124.896C291.544 121.419 294.443 118.013 297.197 114.68C299.951 111.203 302.415 107.942 304.59 104.899C306.909 101.856 308.721 99.3201 310.025 97.2914L311.547 98.1609C308.648 102.508 304.879 107.725 300.241 113.811C295.748 119.752 290.82 125.621 285.457 131.417C282.268 134.895 279.007 138.228 275.673 141.416C272.339 144.604 269.005 147.43 265.672 149.893C262.338 152.212 259.004 154.095 255.67 155.544C252.482 156.849 249.293 157.501 246.104 157.501C241.901 157.501 238.422 156.341 235.668 154.023C232.914 151.704 231.537 148.516 231.537 144.459C231.537 140.112 233.276 135.402 236.755 130.33C240.234 125.114 244.075 119.897 248.278 114.68C252.482 109.464 256.323 104.464 259.801 99.6824C263.28 94.9004 265.019 90.6981 265.019 87.0754C265.019 85.3365 264.44 84.0323 263.28 83.1629C262.12 82.2934 260.599 81.8587 258.714 81.8587C255.091 81.8587 251.032 83.2353 246.539 85.9886C242.045 88.5969 237.407 92.1472 232.624 96.6393C227.986 100.987 223.275 105.913 218.492 111.42C213.854 116.782 209.505 122.216 205.447 127.722C201.388 133.084 197.765 138.3 194.576 143.372C191.387 148.299 188.995 152.429 187.401 155.762H173.921C177.69 149.386 181.748 142.937 186.096 136.417C190.3 129.751 194.503 123.23 198.707 116.854C202.91 110.333 206.896 104.102 210.665 98.1609C214.578 92.0747 218.057 86.5682 221.101 81.6413L235.233 80.9892Z" fill="white"/>
<path d="M431.2 5.34724C425.547 14.3315 419.387 23.823 412.72 33.8217C406.052 43.8203 399.385 53.7465 392.717 63.6003C386.05 73.454 379.6 83.018 373.367 92.2921C367.279 101.421 361.844 109.826 357.061 117.506C352.277 125.186 348.436 131.852 345.537 137.503C342.783 143.01 341.406 147.067 341.406 149.676C341.406 151.27 341.769 152.574 342.493 153.588C343.363 154.458 344.595 154.892 346.19 154.892C349.813 154.892 353.944 153.443 358.582 150.545C363.221 147.647 368.801 143.082 375.324 136.851C380.977 131.345 386.485 125.259 391.848 118.593C397.211 111.782 401.849 105.116 405.762 98.5956L407.502 99.465C406.197 101.784 404.458 104.537 402.284 107.725C400.254 110.768 397.935 113.956 395.326 117.289C392.862 120.622 390.181 124.027 387.282 127.505C384.383 130.838 381.411 134.026 378.368 137.069C372.57 143.01 366.844 147.937 361.192 151.849C355.539 155.617 350.321 157.501 345.537 157.501C340.899 157.501 337.42 156.559 335.101 154.675C332.927 152.646 331.84 150.11 331.84 147.067C331.84 144.314 332.42 141.633 333.579 139.025C334.739 136.417 335.898 134.098 337.058 132.069L336.623 131.852C334.304 134.46 331.695 137.286 328.796 140.329C326.042 143.227 323.071 145.981 319.882 148.589C316.693 151.197 313.287 153.371 309.663 155.11C306.185 156.704 302.561 157.501 298.792 157.501C293.574 157.501 289.516 155.907 286.617 152.719C283.863 149.531 282.486 145.763 282.486 141.416C282.486 135.33 284.588 128.664 288.791 121.419C292.994 114.173 298.213 107.435 304.445 101.204C310.823 94.9729 317.635 89.7562 324.883 85.5539C332.13 81.3515 338.87 79.2503 345.103 79.2503C349.741 79.2503 353.437 80.6994 356.191 83.5976C358.945 86.4958 360.249 90.1909 360.104 94.6831H360.757L416.851 5.34724H431.2ZM354.017 94.9004C354.017 91.4226 353.437 88.3796 352.277 85.7712C351.118 83.1629 348.436 81.8587 344.233 81.8587C341.334 81.8587 338.073 82.8731 334.449 84.9018C330.97 86.9305 327.419 89.6113 323.795 92.9442C320.172 96.277 316.621 100.117 313.142 104.464C309.808 108.667 306.837 113.014 304.228 117.506C301.619 121.853 299.517 126.128 297.923 130.33C296.328 134.533 295.531 138.3 295.531 141.633C295.531 144.676 296.111 147.212 297.27 149.241C298.43 151.27 300.532 152.284 303.576 152.284C306.185 152.284 309.156 151.27 312.49 149.241C315.968 147.212 319.592 144.604 323.361 141.416C327.129 138.083 330.825 134.315 334.449 130.113C338.073 125.911 341.334 121.708 344.233 117.506C347.132 113.304 349.451 109.246 351.19 105.334C353.075 101.276 354.017 97.7986 354.017 94.9004Z" fill="white"/>
<path d="M428.882 80.9892L401.27 121.201L401.704 121.636C403.734 119.173 406.27 116.347 409.314 113.159C412.503 109.826 415.909 106.493 419.533 103.16C423.301 99.6824 427.215 96.277 431.273 92.9442C435.332 89.6113 439.318 86.6407 443.231 84.0323C443.956 82.5832 444.753 81.424 445.623 80.5545C446.493 79.6851 448.232 79.2503 450.841 79.2503C452.435 79.2503 453.812 79.3228 454.972 79.4677C456.277 79.4677 457.581 79.5402 458.886 79.6851C456.421 82.1485 454.03 85.1916 451.711 88.8143C449.392 92.2921 448.232 96.1321 448.232 100.334C448.232 103.667 449.029 106.276 450.624 108.16C452.363 110.043 454.465 110.985 456.929 110.985C459.103 110.985 461.205 110.55 463.234 109.681C465.408 108.812 467.437 107.725 469.322 106.421C471.206 105.116 473.018 103.74 474.757 102.291C476.496 100.842 478.018 99.5375 479.323 98.3782L480.627 99.2477C479.178 100.697 477.511 102.291 475.627 104.03C473.743 105.624 471.713 107.145 469.539 108.594C467.365 110.043 465.046 111.275 462.582 112.289C460.118 113.159 457.581 113.594 454.972 113.594C450.334 113.594 446.565 112.217 443.666 109.464C440.912 106.566 439.535 102.581 439.535 97.5088C439.535 94.031 440.332 90.9154 441.927 88.1622L441.492 87.7275C435.549 91.7849 429.027 97.1465 421.924 103.812C414.822 110.333 407.285 118.086 399.313 127.07C396.414 130.258 393.37 134.46 390.181 139.677C387.137 144.894 384.456 150.255 382.137 155.762H368.005C375.832 143.3 383.659 130.91 391.486 118.593C399.313 106.276 407.357 93.7412 415.619 80.9892H428.882Z" fill="white"/>
<path d="M518.243 87.9448C518.243 85.9161 517.663 84.3946 516.503 83.3802C515.489 82.3659 514.184 81.8587 512.59 81.8587C509.546 81.8587 506.212 83.0904 502.588 85.5539C499.11 87.8724 495.631 90.843 492.152 94.4657C488.674 97.9435 485.485 101.711 482.586 105.769C479.832 109.826 477.73 113.449 476.281 116.637C479.47 116.057 483.456 114.97 488.239 113.376C493.022 111.637 497.588 109.536 501.936 107.073C506.43 104.609 510.271 101.784 513.459 98.5956C516.648 95.2627 518.243 91.7124 518.243 87.9448ZM553.464 99.465C551.29 103.088 548.536 107.073 545.202 111.42C542.014 115.767 538.318 120.114 534.114 124.462C530.056 128.664 525.635 132.794 520.852 136.851C516.213 140.764 511.358 144.314 506.285 147.502C501.211 150.545 496.066 153.009 490.848 154.892C485.775 156.631 480.774 157.501 475.846 157.501C469.758 157.501 465.047 155.979 461.714 152.936C458.38 149.748 456.713 145.256 456.713 139.46C456.713 133.084 458.597 126.418 462.366 119.462C466.279 112.362 471.208 105.841 477.15 99.8998C483.093 93.9585 489.616 89.0316 496.718 85.1191C503.82 81.2066 510.633 79.2503 517.155 79.2503C520.779 79.2503 523.606 80.0473 525.635 81.6413C527.664 83.0904 528.679 85.264 528.679 88.1622C528.679 91.64 526.794 95.0453 523.026 98.3782C519.257 101.566 514.619 104.537 509.111 107.29C503.748 109.898 497.95 112.289 491.717 114.463C485.485 116.492 479.977 118.013 475.194 119.028C473.599 121.926 472.295 125.186 471.28 128.809C470.265 132.432 469.758 136.054 469.758 139.677C469.758 141.416 469.903 143.155 470.193 144.894C470.628 146.488 471.208 148.009 471.932 149.458C472.802 150.762 473.889 151.849 475.194 152.719C476.643 153.588 478.382 154.023 480.412 154.023C485.195 154.023 490.775 152.501 497.153 149.458C503.676 146.27 510.271 142.068 516.938 136.851C523.606 131.635 529.983 125.693 536.071 119.028C542.159 112.362 547.377 105.479 551.725 98.3782L553.464 99.465Z" fill="white"/>
<path d="M609.56 80.9892H623.692C618.329 88.5245 613.184 95.8423 608.256 102.943C603.327 110.043 598.907 116.637 594.993 122.723C591.225 128.664 588.181 133.953 585.861 138.59C583.542 143.082 582.383 146.633 582.383 149.241C582.383 153.009 584.34 154.892 588.253 154.892C591.297 154.892 595.138 153.443 599.776 150.545C604.56 147.502 609.705 143.372 615.213 138.155C620.721 132.939 626.374 126.853 632.172 119.897C637.97 112.941 643.477 105.551 648.696 97.7261L650 98.1609C646.086 104.102 641.448 110.55 636.085 117.506C630.867 124.317 625.359 130.693 619.561 136.634C613.764 142.575 607.966 147.575 602.168 151.632C596.37 155.544 590.935 157.501 585.861 157.501C581.658 157.501 578.542 156.486 576.513 154.458C574.628 152.284 573.686 149.748 573.686 146.85C573.686 144.821 573.976 142.865 574.556 140.981C575.28 138.952 576.005 136.924 576.73 134.895L576.295 134.678C574.411 136.706 572.019 139.097 569.12 141.851C566.366 144.459 563.322 146.922 559.989 149.241C556.8 151.559 553.466 153.516 549.987 155.11C546.509 156.704 543.175 157.501 539.986 157.501C534.623 157.501 530.855 155.834 528.68 152.501C526.506 149.168 525.419 145.401 525.419 141.199C525.419 135.257 527.303 128.736 531.072 121.636C534.841 114.391 539.624 107.652 545.422 101.421C551.219 95.0453 557.525 89.7562 564.337 85.5539C571.149 81.3515 577.6 79.2503 583.687 79.2503C586.586 79.2503 589.123 79.6851 591.297 80.5545C593.471 81.2791 595.283 82.3659 596.732 83.815C598.182 85.1191 599.269 86.6407 599.994 88.3796C600.863 90.1185 601.516 91.9298 601.95 93.8136H602.385L609.56 80.9892ZM538.464 141.851C538.464 145.184 539.116 147.792 540.421 149.676C541.87 151.415 543.827 152.284 546.291 152.284C548.755 152.284 551.654 151.415 554.988 149.676C558.322 147.792 561.8 145.328 565.424 142.285C569.048 139.242 572.599 135.764 576.078 131.852C579.701 127.795 582.89 123.52 585.644 119.028C588.398 114.535 590.645 109.971 592.384 105.334C594.123 100.697 594.993 96.277 594.993 92.0747C594.993 88.7418 594.051 86.2059 592.167 84.467C590.282 82.7281 587.963 81.8587 585.209 81.8587C580.861 81.8587 576.005 83.7425 570.642 87.5101C565.279 91.2777 560.206 96.1321 555.423 102.073C550.64 107.87 546.581 114.318 543.247 121.419C540.059 128.519 538.464 135.33 538.464 141.851Z" fill="white"/>
<path d="M225.619 539.768V538.435L232.78 530.639C233.804 529.518 234.548 528.485 235.012 527.538C235.495 526.572 235.737 525.587 235.737 524.582C235.737 523.326 235.36 522.37 234.606 521.713C233.852 521.056 232.751 520.727 231.301 520.727C229.137 520.727 227.262 521.539 225.677 523.162L224.924 521.713C225.658 520.94 226.595 520.312 227.736 519.829C228.895 519.346 230.113 519.104 231.388 519.104C233.36 519.104 234.877 519.578 235.94 520.524C237.022 521.452 237.563 522.775 237.563 524.495C237.563 525.712 237.254 526.92 236.635 528.118C236.036 529.296 235.128 530.542 233.91 531.856L227.939 538.203H238.404V539.768H225.619Z" fill="white"/>
<path d="M244.161 539.768V538.435L251.322 530.639C252.346 529.518 253.09 528.485 253.554 527.538C254.037 526.572 254.278 525.587 254.278 524.582C254.278 523.326 253.902 522.37 253.148 521.713C252.394 521.056 251.293 520.727 249.843 520.727C247.679 520.727 245.804 521.539 244.219 523.162L243.465 521.713C244.2 520.94 245.137 520.312 246.277 519.829C247.437 519.346 248.655 519.104 249.93 519.104C251.901 519.104 253.418 519.578 254.481 520.524C255.564 521.452 256.105 522.775 256.105 524.495C256.105 525.712 255.796 526.92 255.177 528.118C254.578 529.296 253.67 530.542 252.452 531.856L246.48 538.203H256.945V539.768H244.161Z" fill="white"/>
<path d="M276.703 539.971L276.558 538.406L278.182 538.29C279.206 538.213 279.998 537.836 280.559 537.16C281.119 536.484 281.4 535.585 281.4 534.465V519.336H283.197V534.494C283.197 536.097 282.781 537.363 281.95 538.29C281.119 539.218 279.921 539.739 278.356 539.855L276.703 539.971Z" fill="white"/>
<path d="M297.476 540C294.867 540 292.886 539.304 291.533 537.913C290.181 536.503 289.504 534.465 289.504 531.798V519.336H291.272V531.653C291.272 536.136 293.34 538.377 297.476 538.377C301.612 538.377 303.68 536.136 303.68 531.653V519.336H305.448V531.798C305.448 534.465 304.772 536.503 303.419 537.913C302.066 539.304 300.085 540 297.476 540Z" fill="white"/>
<path d="M311.786 539.768V519.336H313.207L326.136 536.754V519.336H327.788V539.768H326.397L313.439 522.321V539.768H311.786Z" fill="white"/>
<path d="M334.291 539.768V519.336H336.06V539.768H334.291Z" fill="white"/>
<path d="M359.485 539.768V538.435L366.645 530.639C367.669 529.518 368.414 528.485 368.877 527.538C369.361 526.572 369.602 525.587 369.602 524.582C369.602 523.326 369.225 522.37 368.472 521.713C367.718 521.056 366.616 520.727 365.167 520.727C363.002 520.727 361.128 521.539 359.543 523.162L358.789 521.713C359.524 520.94 360.461 520.312 361.601 519.829C362.761 519.346 363.978 519.104 365.254 519.104C367.225 519.104 368.742 519.578 369.805 520.524C370.887 521.452 371.428 522.775 371.428 524.495C371.428 525.712 371.119 526.92 370.501 528.118C369.902 529.296 368.993 530.542 367.776 531.856L361.804 538.203H372.269V539.768H359.485Z" fill="white"/>
<path d="M383.998 540C381.699 540 379.95 539.111 378.751 537.334C377.572 535.556 376.983 532.967 376.983 529.567C376.983 526.127 377.572 523.529 378.751 521.771C379.95 519.993 381.699 519.104 383.998 519.104C386.318 519.104 388.067 519.983 389.245 521.742C390.424 523.5 391.014 526.098 391.014 529.538C391.014 532.938 390.415 535.537 389.216 537.334C388.018 539.111 386.279 540 383.998 540ZM383.998 538.406C385.757 538.406 387.062 537.682 387.912 536.232C388.762 534.783 389.187 532.552 389.187 529.538C389.187 526.485 388.762 524.253 387.912 522.843C387.081 521.413 385.776 520.698 383.998 520.698C382.24 520.698 380.935 521.413 380.085 522.843C379.235 524.273 378.809 526.504 378.809 529.538C378.809 532.552 379.235 534.783 380.085 536.232C380.935 537.682 382.24 538.406 383.998 538.406Z" fill="white"/>
<path d="M396.568 539.768V538.435L403.729 530.639C404.753 529.518 405.497 528.485 405.961 527.538C406.444 526.572 406.686 525.587 406.686 524.582C406.686 523.326 406.309 522.37 405.555 521.713C404.801 521.056 403.7 520.727 402.25 520.727C400.086 520.727 398.211 521.539 396.626 523.162L395.873 521.713C396.607 520.94 397.544 520.312 398.685 519.829C399.844 519.346 401.062 519.104 402.337 519.104C404.308 519.104 405.826 519.578 406.889 520.524C407.971 521.452 408.512 522.775 408.512 524.495C408.512 525.712 408.203 526.92 407.584 528.118C406.985 529.296 406.077 530.542 404.859 531.856L398.887 538.203H409.353V539.768H396.568Z" fill="white"/>
<path d="M423.691 539.768V535.16H414.009V533.798L423.981 519.336H425.488V533.595H428.619V535.16H425.488V539.768H423.691ZM423.691 533.595V522.437L415.98 533.595H423.691Z" fill="white"/>
<path d="M165.658 300.525C165.803 301.974 165.876 303.351 165.876 304.655C165.876 305.959 165.876 307.263 165.876 308.567C165.876 314.219 164.499 319.653 161.745 324.87C159.136 329.941 155.367 334.506 150.439 338.563C145.656 342.476 139.931 345.591 133.263 347.91C126.596 350.228 119.276 351.388 111.304 351.388C99.4182 351.388 90.504 348.707 84.5613 343.345C78.7634 337.984 75.8645 331.028 75.8645 322.479C75.8645 315.523 78.1837 308.35 82.8219 300.96C87.6051 293.569 95.4322 286.831 106.303 280.745C117.174 274.659 131.524 269.66 149.352 265.747C167.18 261.69 189.285 259.661 215.665 259.661C223.782 259.661 231.174 259.878 237.841 260.313C244.509 260.748 250.234 260.965 255.018 260.965C259.221 260.965 262.7 260.748 265.454 260.313C268.353 259.878 270.817 259.661 272.846 259.661C274.585 259.661 276.18 260.241 277.629 261.4C279.079 262.414 279.803 263.936 279.803 265.964C279.803 267.269 279.368 268.355 278.499 269.225C277.774 269.949 276.397 270.457 274.368 270.746C272.339 271.036 269.585 271.254 266.106 271.398C262.772 271.398 258.496 271.398 253.278 271.398C243.132 271.398 234.653 273.21 227.84 276.832C221.173 280.31 214.94 285.672 209.142 292.917C203.344 300.018 197.329 309.002 191.096 319.87C184.864 330.593 177.109 343.128 167.833 357.474C164.644 362.401 160.585 367.98 155.657 374.211C150.874 380.442 145.149 386.311 138.481 391.817C131.814 397.324 124.204 401.961 115.652 405.728C107.1 409.496 97.4614 411.38 86.7355 411.38C82.677 411.38 78.4011 410.872 73.9078 409.858C69.4144 408.989 65.2835 407.54 61.5149 405.511C57.8912 403.337 54.8474 400.512 52.3833 397.034C50.0642 393.556 48.9046 389.281 48.9046 384.209C48.9046 381.021 49.7743 378.341 51.5136 376.167C53.3979 373.848 56.0069 372.689 59.3407 372.689C61.6598 372.689 63.5441 373.486 64.9936 375.08C66.588 376.529 67.3852 378.413 67.3852 380.732C67.3852 382.905 66.6605 384.644 65.211 385.948C63.7615 387.252 62.0947 387.905 60.2104 387.905C59.1958 387.905 58.3261 387.76 57.6013 387.47C58.3261 394.425 61.5874 399.715 67.3852 403.337C73.183 406.96 80.3578 408.771 88.9096 408.771C97.0266 408.771 104.491 406.96 111.304 403.337C118.116 399.715 124.421 394.933 130.219 388.991C136.162 383.05 141.742 376.312 146.96 368.777C152.178 361.097 157.324 353.199 162.397 345.084C167.615 336.824 172.833 328.71 178.051 320.74C183.269 312.625 188.777 305.234 194.575 298.569C200.373 291.903 206.533 286.252 213.056 281.614C219.723 276.832 227.043 273.717 235.015 272.268V271.833C228.492 271.833 221.39 271.543 213.708 270.964C206.026 270.384 198.924 270.094 192.401 270.094C174.138 270.094 157.904 271.471 143.699 274.224C129.639 276.832 117.754 280.528 108.042 285.31C98.3311 289.947 90.9389 295.453 85.8658 301.829C80.9376 308.205 78.4735 315.088 78.4735 322.479C78.4735 331.173 81.3725 337.766 87.1703 342.258C93.1131 346.606 101.447 348.779 112.173 348.779C119.711 348.779 126.596 347.693 132.828 345.519C139.061 343.2 144.424 340.23 148.917 336.607C153.411 332.839 156.889 328.565 159.353 323.783C161.962 319.001 163.267 314.074 163.267 309.002C163.267 307.553 163.267 306.176 163.267 304.872C163.267 303.423 163.194 301.974 163.049 300.525H165.658Z" fill="white"/>
<path d="M297.093 352.909C293.614 356.822 289.701 359.937 285.353 362.256C281.004 364.574 276.728 365.734 272.525 365.734C268.466 365.734 264.988 364.864 262.089 363.125C259.19 361.241 256.943 359.068 255.349 356.604H254.914C253.464 362.111 250.783 367.98 246.869 374.211C242.956 380.442 238.245 386.166 232.737 391.382C227.374 396.599 221.431 400.946 214.909 404.424C208.386 407.902 201.719 409.641 194.906 409.641C188.674 409.641 183.963 407.829 180.774 404.207C177.585 400.584 175.991 395.73 175.991 389.643C175.991 386.455 176.788 382.76 178.383 378.558C179.977 374.356 182.151 370.153 184.905 365.951C187.804 361.604 191.138 357.401 194.906 353.344C198.82 349.142 203.023 345.446 207.517 342.258C212.01 338.926 216.721 336.317 221.649 334.433C226.722 332.405 231.795 331.39 236.868 331.39C242.811 331.39 247.377 333.129 250.566 336.607C253.899 340.085 255.711 344.577 256.001 350.084C256.291 353.416 257.813 356.532 260.567 359.43C263.466 362.183 267.379 363.56 272.307 363.56C276.656 363.56 280.714 362.473 284.483 360.3C288.396 358.126 292.02 355.3 295.354 351.822L297.093 352.909ZM187.732 394.86C187.732 398.628 188.456 401.598 189.906 403.772C191.355 405.946 193.529 407.032 196.428 407.032C200.342 407.032 204.183 406.018 207.952 403.989C211.865 401.816 215.561 399.062 219.04 395.73C222.663 392.252 225.997 388.339 229.041 383.992C232.085 379.645 234.694 375.153 236.868 370.516C239.187 365.878 240.999 361.386 242.304 357.039C243.608 352.547 244.26 348.49 244.26 344.867C244.26 341.824 243.463 339.288 241.869 337.259C240.419 335.086 238.1 333.999 234.911 333.999C231.868 333.999 228.606 335.013 225.128 337.042C221.649 338.926 218.098 341.461 214.474 344.649C210.995 347.837 207.662 351.533 204.473 355.735C201.284 359.937 198.385 364.285 195.776 368.777C193.312 373.269 191.355 377.761 189.906 382.253C188.456 386.745 187.732 390.948 187.732 394.86Z" fill="white"/>
<path d="M318.256 333.129L290.644 373.341L291.078 373.776C293.108 371.313 295.644 368.487 298.688 365.299C301.877 361.966 305.283 358.633 308.907 355.3C312.675 351.822 316.589 348.417 320.647 345.084C324.706 341.751 328.692 338.781 332.605 336.172C333.33 334.723 334.127 333.564 334.997 332.695C335.867 331.825 337.606 331.39 340.215 331.39C341.81 331.39 343.187 331.463 344.346 331.608C345.651 331.608 346.955 331.68 348.26 331.825C345.796 334.289 343.404 337.332 341.085 340.954C338.766 344.432 337.606 348.272 337.606 352.475C337.606 355.807 338.403 358.416 339.998 360.3C341.737 362.183 343.839 363.125 346.303 363.125C348.477 363.125 350.579 362.691 352.608 361.821C354.782 360.952 356.811 359.865 358.696 358.561C360.58 357.256 362.392 355.88 364.131 354.431C365.871 352.982 367.392 351.677 368.697 350.518L370.001 351.388C368.552 352.837 366.885 354.431 365.001 356.17C363.117 357.764 361.087 359.285 358.913 360.734C356.739 362.183 354.42 363.415 351.956 364.429C349.492 365.299 346.955 365.734 344.346 365.734C339.708 365.734 335.939 364.357 333.04 361.604C330.286 358.706 328.909 354.721 328.909 349.649C328.909 346.171 329.707 343.055 331.301 340.302L330.866 339.867C324.923 343.925 318.401 349.287 311.298 355.952C304.196 362.473 296.659 370.226 288.687 379.21C285.788 382.398 282.744 386.6 279.555 391.817C276.511 397.034 273.83 402.395 271.511 407.902H257.379C265.206 395.44 273.033 383.05 280.86 370.733C288.687 358.416 296.731 345.881 304.993 333.129H318.256Z" fill="white"/>
<path d="M389.788 333.129L343.913 405.511C350.436 404.496 356.958 402.468 363.481 399.425C370.148 396.237 376.598 392.252 382.831 387.47C389.209 382.543 395.224 376.892 400.877 370.516C406.674 364.14 412.037 357.256 416.966 349.866L418.922 350.736C414.429 357.546 409.356 364.14 403.703 370.516C398.195 376.892 392.252 382.688 385.875 387.905C379.497 392.976 372.612 397.324 365.22 400.946C357.973 404.424 350.363 406.743 342.391 407.902C337.608 415.582 332.172 423.19 326.085 430.725C319.997 438.405 313.329 445.288 306.082 451.374C298.69 457.46 290.718 462.387 282.166 466.155C273.469 469.922 264.193 471.806 254.336 471.806C249.698 471.806 245.205 471.299 240.856 470.285C236.508 469.27 232.667 467.676 229.333 465.503C226 463.329 223.318 460.648 221.289 457.46C219.26 454.272 218.245 450.505 218.245 446.158C218.245 442.97 218.97 440.071 220.419 437.463C221.724 434.855 223.535 432.609 225.855 430.725C228.174 428.986 230.783 427.609 233.682 426.595C236.436 425.726 239.262 425.291 242.161 425.291C243.321 425.291 244.408 425.363 245.422 425.508C246.437 425.653 247.307 425.798 248.031 425.943V427.899H246.509C240.567 427.899 236.146 429.711 233.247 433.333C230.203 436.956 228.681 440.941 228.681 445.288C228.681 453.838 231.145 459.924 236.073 463.547C241.001 467.314 247.524 469.198 255.641 469.198C264.628 469.198 273.107 466.807 281.079 462.025C288.906 457.243 296.226 451.157 303.038 443.767C309.851 436.376 316.228 428.261 322.171 419.422C328.114 410.583 333.622 402.033 338.695 393.773L376.308 333.129H389.788ZM403.268 292.7C405.298 292.7 406.964 293.424 408.269 294.874C409.573 296.178 410.226 297.844 410.226 299.873C410.226 301.902 409.573 303.64 408.269 305.09C406.964 306.394 405.298 307.046 403.268 307.046C401.239 307.046 399.572 306.394 398.268 305.09C396.963 303.64 396.311 301.902 396.311 299.873C396.311 297.844 396.963 296.178 398.268 294.874C399.572 293.424 401.239 292.7 403.268 292.7Z" fill="white"/>
<path d="M441.029 333.129C435.377 340.809 429.941 348.127 424.723 355.083C419.505 362.038 414.867 368.414 410.808 374.211C406.75 380.007 403.489 385.079 401.024 389.426C398.705 393.628 397.546 396.961 397.546 399.425C397.546 401.743 398.126 403.482 399.285 404.641C400.445 405.656 401.967 406.163 403.851 406.163C406.605 406.163 409.576 405.293 412.765 403.555C416.099 401.816 419.433 399.57 422.766 396.816C426.245 394.063 429.579 391.02 432.768 387.687C436.101 384.354 439.145 381.094 441.899 377.906C444.798 374.573 447.262 371.53 449.291 368.777C451.466 366.023 453.06 363.85 454.075 362.256L473.207 333.129H488.209C480.382 343.852 473.715 352.982 468.207 360.517C462.844 367.907 458.423 374.211 454.944 379.427C451.611 384.644 449.219 388.919 447.769 392.252C446.32 395.44 445.595 398.265 445.595 400.729C445.595 402.468 446.103 403.989 447.117 405.293C448.132 406.453 449.581 407.032 451.466 407.032C454.365 407.032 457.698 406.018 461.467 403.989C465.235 401.816 469.149 399.062 473.207 395.73C477.266 392.252 481.252 388.412 485.165 384.209C489.224 379.862 492.993 375.587 496.471 371.385C500.095 367.183 503.356 363.27 506.255 359.647C509.154 355.88 511.401 352.837 512.995 350.518L515.169 351.17C513.43 353.634 511.111 356.822 508.212 360.734C505.313 364.502 502.052 368.559 498.428 372.907C494.804 377.109 490.963 381.456 486.905 385.948C482.846 390.295 478.643 394.208 474.295 397.686C470.091 401.164 465.888 404.062 461.684 406.38C457.626 408.554 453.785 409.641 450.161 409.641C446.103 409.641 442.841 408.554 440.377 406.38C438.058 404.062 436.899 401.019 436.899 397.251C436.899 394.353 437.333 391.6 438.203 388.991C439.218 386.238 439.942 384.499 440.377 383.775L439.942 383.34C436.899 386.818 433.71 390.151 430.376 393.339C427.042 396.527 423.708 399.352 420.375 401.816C417.041 404.134 413.635 406.018 410.156 407.467C406.822 408.916 403.488 409.641 400.155 409.641C395.516 409.641 392.183 408.626 390.153 406.598C388.124 404.424 387.11 401.888 387.11 398.99C387.11 395.367 388.124 391.455 390.153 387.252C392.038 383.05 394.719 378.341 398.198 373.124C401.677 367.907 405.808 362.038 410.591 355.518C415.519 348.997 420.882 341.534 426.68 333.129H441.029Z" fill="white"/>
<path d="M586.99 351.822C582.642 358.778 577.569 365.734 571.771 372.689C566.118 379.5 559.886 385.658 553.073 391.165C546.261 396.671 538.796 401.164 530.679 404.641C522.707 407.974 514.155 409.641 505.024 409.641C501.545 409.641 498.284 409.206 495.24 408.337C492.196 407.467 489.514 406.163 487.195 404.424C485.021 402.685 483.282 400.512 481.977 397.903C480.528 395.15 479.803 391.962 479.803 388.339C479.803 384.572 481.035 381.166 483.499 378.123C485.963 375.08 489.297 373.559 493.5 373.559C495.675 373.559 497.414 374.138 498.718 375.297C500.168 376.312 500.893 377.906 500.893 380.079C500.893 382.108 500.385 383.847 499.371 385.296C498.356 386.745 496.834 387.47 494.805 387.47C493.211 387.47 491.906 387.035 490.891 386.166C490.022 385.296 489.442 384.209 489.152 382.905C487.558 383.775 486.471 385.079 485.891 386.818C485.311 388.412 485.021 390.078 485.021 391.817C485.021 396.889 486.905 400.729 490.674 403.337C494.588 405.801 498.936 407.032 503.719 407.032C506.763 407.032 509.372 406.453 511.546 405.293C513.865 403.989 515.75 402.395 517.199 400.512C518.793 398.483 519.953 396.164 520.678 393.556C521.402 390.948 521.765 388.339 521.765 385.731C521.765 382.978 521.258 380.152 520.243 377.254C519.373 374.211 518.359 371.24 517.199 368.342C516.039 365.444 514.952 362.618 513.938 359.865C512.923 356.967 512.416 354.286 512.416 351.822C512.416 348.634 513.068 345.809 514.373 343.345C515.677 340.737 517.416 338.563 519.591 336.824C521.91 335.086 524.519 333.781 527.418 332.912C530.317 331.898 533.361 331.39 536.549 331.39C542.347 331.39 547.058 332.695 550.682 335.303C554.305 337.766 556.117 341.099 556.117 345.302C556.117 349.069 554.668 351.822 551.769 353.561C549.015 355.3 545.898 356.17 542.42 356.17C543.289 354.576 544.014 352.692 544.594 350.518C545.319 348.2 545.681 346.099 545.681 344.215C545.681 341.317 544.739 338.926 542.854 337.042C541.115 335.013 538.579 333.999 535.245 333.999C531.041 333.999 527.925 335.303 525.896 337.911C523.867 340.375 522.852 343.418 522.852 347.04C522.852 350.228 523.359 353.271 524.374 356.17C525.533 359.068 526.838 361.966 528.287 364.864C529.592 367.762 530.752 370.733 531.766 373.776C532.926 376.819 533.505 380.224 533.505 383.992C533.505 386.745 532.853 389.426 531.549 392.034C530.389 394.498 528.795 396.816 526.765 398.99C524.736 401.019 522.417 402.758 519.808 404.207C517.344 405.656 514.807 406.598 512.198 407.032L512.633 407.467C520.46 406.598 527.925 404.352 535.027 400.729C542.13 396.961 548.725 392.469 554.813 387.252C561.045 381.891 566.771 376.095 571.989 369.863C577.207 363.488 581.772 357.256 585.686 351.17L586.99 351.822Z" fill="white"/>
<path d="M321.964 236.005C320.503 236.005 319.162 235.799 317.942 235.389C316.722 234.966 315.696 234.314 314.862 233.433C314.234 232.756 313.763 231.996 313.449 231.15C313.135 230.293 312.96 229.393 312.923 228.451C312.911 227.558 313.038 226.67 313.304 225.789C313.57 224.895 313.998 224.098 314.59 223.398C314.977 222.915 315.418 222.516 315.913 222.202C316.408 221.888 316.915 221.623 317.435 221.405C316.469 220.415 315.732 219.509 315.224 218.688C314.717 217.867 314.463 216.853 314.463 215.645C314.463 214.353 314.778 213.17 315.406 212.095C316.046 211.008 316.934 210.199 318.069 209.668C318.685 209.366 319.319 209.154 319.971 209.034C320.624 208.913 321.27 208.852 321.91 208.852C322.84 208.852 323.758 208.973 324.664 209.215C325.57 209.456 326.349 209.837 327.001 210.356C327.436 210.682 327.823 211.068 328.161 211.515C328.511 211.962 328.789 212.427 328.994 212.91L327.001 213.616C326.711 212.928 326.246 212.354 325.606 211.896C325.111 211.533 324.549 211.274 323.921 211.117C323.293 210.96 322.659 210.881 322.019 210.881C320.908 210.881 319.887 211.105 318.957 211.551C318.196 211.938 317.616 212.481 317.217 213.182C316.831 213.87 316.638 214.673 316.638 215.591C316.638 216.376 316.758 217.028 317 217.547C317.254 218.054 317.64 218.616 318.16 219.232C318.437 219.533 318.739 219.835 319.065 220.137C319.404 220.427 319.742 220.729 320.08 221.043L328.886 229.248C328.946 228.886 328.988 228.536 329.012 228.198C329.037 227.86 329.049 227.521 329.049 227.183L329.012 223.162H331.078V226.912C331.078 227.974 331.036 228.808 330.951 229.411C330.879 230.015 330.782 230.51 330.661 230.897L334.049 234.048L332.654 235.552L329.665 232.726C329.326 233.221 328.873 233.686 328.306 234.121C327.75 234.543 327.195 234.882 326.639 235.135C325.938 235.473 325.183 235.703 324.374 235.824C323.577 235.944 322.774 236.005 321.964 236.005ZM321.928 233.958C322.725 233.958 323.438 233.91 324.066 233.813C324.706 233.704 325.31 233.493 325.878 233.179C326.579 232.768 327.086 232.4 327.4 232.074C327.714 231.736 327.956 231.446 328.125 231.205L319.12 222.981C318.564 223.15 318.033 223.386 317.525 223.687C317.03 223.977 316.601 224.334 316.239 224.756C315.84 225.239 315.551 225.795 315.369 226.423C315.188 227.051 315.104 227.703 315.116 228.379C315.128 229.067 315.243 229.719 315.46 230.335C315.677 230.939 315.997 231.476 316.42 231.947C317.036 232.636 317.846 233.143 318.848 233.469C319.863 233.795 320.889 233.958 321.928 233.958Z" fill="white"/>
<path d="M86.4456 223.869L296.617 223.869M354.595 223.869L564.767 223.869M111.884 88.1622C104.781 97.1465 97.4615 105.841 89.9243 114.246C82.3871 122.505 74.7774 129.896 67.0953 136.417C59.5581 142.793 52.0209 147.937 44.4837 151.849C36.9466 155.617 29.6993 157.501 22.7419 157.501C17.9587 157.501 14.1176 156.921 11.2187 155.762C8.46471 154.747 6.29052 153.516 4.69612 152.067C3.24666 150.473 2.23204 148.879 1.65226 147.285C1.21742 145.546 1 144.024 1 142.72C1 140.257 1.72473 138.155 3.17419 136.417C4.62365 134.678 6.65289 133.808 9.26191 133.808C11.581 133.808 13.3929 134.605 14.6974 136.199C16.0019 137.793 16.6541 139.677 16.6541 141.851C16.6541 143.155 16.2918 144.459 15.5671 145.763C14.8423 147.067 13.8277 147.864 12.5232 148.154C13.8277 150.183 15.6395 151.559 17.9587 152.284C20.2778 152.864 22.6694 153.153 25.1335 153.153C31.3662 153.153 37.8887 151.342 44.7012 147.719C51.6586 144.097 58.616 139.387 65.5734 133.591C72.6757 127.65 79.7056 120.984 86.663 113.594C93.6204 106.058 100.288 98.3782 106.666 90.5532C109.419 87.0754 112.826 82.8006 116.884 77.7288C121.088 72.657 125.798 67.1505 131.016 61.2093C136.234 55.2681 141.887 49.2544 147.975 43.1682C154.208 36.9372 160.803 31.0684 167.76 25.5619C174.718 20.0554 181.965 15.1285 189.502 10.7813C197.039 6.43405 204.721 3.17362 212.548 1L213.201 1.86945C208.273 6.36159 203.127 11.9406 197.764 18.6063C192.401 25.2721 187.11 32.5175 181.892 40.3425C176.819 48.0227 171.964 56.1375 167.325 64.6871C162.687 73.2367 158.556 81.7862 154.932 90.3358C151.454 98.7405 148.627 106.855 146.453 114.68C144.424 122.505 143.409 129.678 143.409 136.199C143.409 140.691 144.134 144.531 145.583 147.719C147.178 150.762 150.294 152.284 154.932 152.284C157.686 152.284 160.803 151.27 164.281 149.241C167.905 147.212 171.674 144.531 175.587 141.199C179.501 137.866 183.342 134.171 187.11 130.113C191.024 126.056 194.72 122.071 198.199 118.158C201.677 114.101 204.794 110.333 207.548 106.855C210.302 103.233 212.476 100.334 214.07 98.1609L215.592 98.8129C210.664 105.044 205.446 111.637 199.938 118.593C194.43 125.548 188.85 131.924 183.197 137.721C177.544 143.372 171.819 148.082 166.021 151.849C160.368 155.617 154.932 157.501 149.714 157.501C146.236 157.501 143.264 156.921 140.8 155.762C138.481 154.458 136.524 152.719 134.93 150.545C133.336 148.372 132.176 145.908 131.451 143.155C130.727 140.402 130.364 137.503 130.364 134.46C130.364 126.201 131.524 118.303 133.843 110.768C136.162 103.088 138.771 95.5525 141.67 88.1622H111.884ZM142.757 85.5539C149.28 72.0774 156.962 58.8908 165.803 45.994C174.79 33.0971 185.371 20.8524 197.547 9.25976L197.112 8.82502C189.43 12.5926 181.892 17.2297 174.5 22.7362C167.253 28.2427 160.151 34.3289 153.193 40.9946C146.236 47.6604 139.423 54.7609 132.756 62.2961C126.233 69.8313 119.856 77.5839 113.623 85.5539H142.757ZM235.233 80.9892L206.534 120.767L206.969 121.201C210.012 117.579 213.564 113.376 217.622 108.594C221.681 103.667 226.029 99.0303 230.667 94.6831C235.305 90.3358 240.089 86.7131 245.017 83.815C250.09 80.7719 255.091 79.2503 260.019 79.2503C264.367 79.2503 267.701 80.4821 270.02 82.9455C272.484 85.264 273.716 88.3071 273.716 92.0747C273.716 94.3932 272.846 97.1465 271.107 100.334C269.513 103.522 267.483 106.928 265.019 110.55C262.555 114.173 259.874 117.868 256.975 121.636C254.076 125.404 251.394 129.026 248.93 132.504C246.466 135.837 244.365 138.952 242.625 141.851C241.031 144.604 240.234 146.922 240.234 148.806C240.234 152.864 242.263 154.892 246.321 154.892C250.96 154.892 255.888 153.371 261.106 150.328C266.324 147.14 272.557 141.851 279.804 134.46C282.703 131.562 285.602 128.374 288.501 124.896C291.544 121.419 294.443 118.013 297.197 114.68C299.951 111.203 302.415 107.942 304.59 104.899C306.909 101.856 308.721 99.3201 310.025 97.2914L311.547 98.1609C308.648 102.508 304.879 107.725 300.241 113.811C295.748 119.752 290.82 125.621 285.457 131.417C282.268 134.895 279.007 138.228 275.673 141.416C272.339 144.604 269.005 147.43 265.672 149.893C262.338 152.212 259.004 154.095 255.67 155.544C252.482 156.849 249.293 157.501 246.104 157.501C241.901 157.501 238.422 156.341 235.668 154.023C232.914 151.704 231.537 148.516 231.537 144.459C231.537 140.112 233.276 135.402 236.755 130.33C240.234 125.114 244.075 119.897 248.278 114.68C252.482 109.464 256.323 104.464 259.801 99.6824C263.28 94.9004 265.019 90.6981 265.019 87.0754C265.019 85.3365 264.44 84.0323 263.28 83.1629C262.12 82.2934 260.599 81.8587 258.714 81.8587C255.091 81.8587 251.032 83.2353 246.539 85.9886C242.045 88.5969 237.407 92.1472 232.624 96.6393C227.986 100.987 223.275 105.913 218.492 111.42C213.854 116.782 209.505 122.216 205.447 127.722C201.388 133.084 197.765 138.3 194.576 143.372C191.387 148.299 188.995 152.429 187.401 155.762H173.921C177.69 149.386 181.748 142.937 186.096 136.417C190.3 129.751 194.503 123.23 198.707 116.854C202.91 110.333 206.896 104.102 210.665 98.1609C214.578 92.0747 218.057 86.5682 221.101 81.6413L235.233 80.9892ZM431.2 5.34724C425.547 14.3315 419.387 23.823 412.72 33.8217C406.052 43.8203 399.385 53.7465 392.717 63.6003C386.05 73.454 379.6 83.018 373.367 92.2921C367.279 101.421 361.844 109.826 357.061 117.506C352.277 125.186 348.436 131.852 345.537 137.503C342.783 143.01 341.406 147.067 341.406 149.676C341.406 151.27 341.769 152.574 342.493 153.588C343.363 154.458 344.595 154.892 346.19 154.892C349.813 154.892 353.944 153.443 358.582 150.545C363.221 147.647 368.801 143.082 375.324 136.851C380.977 131.345 386.485 125.259 391.848 118.593C397.211 111.782 401.849 105.116 405.762 98.5956L407.502 99.465C406.197 101.784 404.458 104.537 402.284 107.725C400.254 110.768 397.935 113.956 395.326 117.289C392.862 120.622 390.181 124.027 387.282 127.505C384.383 130.838 381.411 134.026 378.368 137.069C372.57 143.01 366.844 147.937 361.192 151.849C355.539 155.617 350.321 157.501 345.537 157.501C340.899 157.501 337.42 156.559 335.101 154.675C332.927 152.646 331.84 150.11 331.84 147.067C331.84 144.314 332.42 141.633 333.579 139.025C334.739 136.417 335.898 134.098 337.058 132.069L336.623 131.852C334.304 134.46 331.695 137.286 328.796 140.329C326.042 143.227 323.071 145.981 319.882 148.589C316.693 151.197 313.287 153.371 309.663 155.11C306.185 156.704 302.561 157.501 298.792 157.501C293.574 157.501 289.516 155.907 286.617 152.719C283.863 149.531 282.486 145.763 282.486 141.416C282.486 135.33 284.588 128.664 288.791 121.419C292.994 114.173 298.213 107.435 304.445 101.204C310.823 94.9729 317.635 89.7562 324.883 85.5539C332.13 81.3515 338.87 79.2503 345.103 79.2503C349.741 79.2503 353.437 80.6994 356.191 83.5976C358.945 86.4958 360.249 90.1909 360.104 94.6831H360.757L416.851 5.34724H431.2ZM354.017 94.9004C354.017 91.4226 353.437 88.3796 352.277 85.7712C351.118 83.1629 348.436 81.8587 344.233 81.8587C341.334 81.8587 338.073 82.8731 334.449 84.9018C330.97 86.9305 327.419 89.6113 323.795 92.9442C320.172 96.277 316.621 100.117 313.142 104.464C309.808 108.667 306.837 113.014 304.228 117.506C301.619 121.853 299.517 126.128 297.923 130.33C296.328 134.533 295.531 138.3 295.531 141.633C295.531 144.676 296.111 147.212 297.27 149.241C298.43 151.27 300.532 152.284 303.576 152.284C306.185 152.284 309.156 151.27 312.49 149.241C315.968 147.212 319.592 144.604 323.361 141.416C327.129 138.083 330.825 134.315 334.449 130.113C338.073 125.911 341.334 121.708 344.233 117.506C347.132 113.304 349.451 109.246 351.19 105.334C353.075 101.276 354.017 97.7986 354.017 94.9004ZM428.882 80.9892L401.27 121.201L401.704 121.636C403.734 119.173 406.27 116.347 409.314 113.159C412.503 109.826 415.909 106.493 419.533 103.16C423.301 99.6824 427.215 96.277 431.273 92.9442C435.332 89.6113 439.318 86.6407 443.231 84.0323C443.956 82.5832 444.753 81.424 445.623 80.5545C446.493 79.6851 448.232 79.2503 450.841 79.2503C452.435 79.2503 453.812 79.3228 454.972 79.4677C456.277 79.4677 457.581 79.5402 458.886 79.6851C456.421 82.1485 454.03 85.1916 451.711 88.8143C449.392 92.2921 448.232 96.1321 448.232 100.334C448.232 103.667 449.029 106.276 450.624 108.16C452.363 110.043 454.465 110.985 456.929 110.985C459.103 110.985 461.205 110.55 463.234 109.681C465.408 108.812 467.437 107.725 469.322 106.421C471.206 105.116 473.018 103.74 474.757 102.291C476.496 100.842 478.018 99.5375 479.323 98.3782L480.627 99.2477C479.178 100.697 477.511 102.291 475.627 104.03C473.743 105.624 471.713 107.145 469.539 108.594C467.365 110.043 465.046 111.275 462.582 112.289C460.118 113.159 457.581 113.594 454.972 113.594C450.334 113.594 446.565 112.217 443.666 109.464C440.912 106.566 439.535 102.581 439.535 97.5088C439.535 94.031 440.332 90.9154 441.927 88.1622L441.492 87.7275C435.549 91.7849 429.027 97.1465 421.924 103.812C414.822 110.333 407.285 118.086 399.313 127.07C396.414 130.258 393.37 134.46 390.181 139.677C387.137 144.894 384.456 150.255 382.137 155.762H368.005C375.832 143.3 383.659 130.91 391.486 118.593C399.313 106.276 407.357 93.7412 415.619 80.9892H428.882ZM518.243 87.9448C518.243 85.9161 517.663 84.3946 516.503 83.3802C515.489 82.3659 514.184 81.8587 512.59 81.8587C509.546 81.8587 506.212 83.0904 502.588 85.5539C499.11 87.8724 495.631 90.843 492.152 94.4657C488.674 97.9435 485.485 101.711 482.586 105.769C479.832 109.826 477.73 113.449 476.281 116.637C479.47 116.057 483.456 114.97 488.239 113.376C493.022 111.637 497.588 109.536 501.936 107.073C506.43 104.609 510.271 101.784 513.459 98.5956C516.648 95.2627 518.243 91.7124 518.243 87.9448ZM553.464 99.465C551.29 103.088 548.536 107.073 545.202 111.42C542.014 115.767 538.318 120.114 534.114 124.462C530.056 128.664 525.635 132.794 520.852 136.851C516.213 140.764 511.358 144.314 506.285 147.502C501.211 150.545 496.066 153.009 490.848 154.892C485.775 156.631 480.774 157.501 475.846 157.501C469.758 157.501 465.047 155.979 461.714 152.936C458.38 149.748 456.713 145.256 456.713 139.46C456.713 133.084 458.597 126.418 462.366 119.462C466.279 112.362 471.208 105.841 477.15 99.8998C483.093 93.9585 489.616 89.0316 496.718 85.1191C503.82 81.2066 510.633 79.2503 517.155 79.2503C520.779 79.2503 523.606 80.0473 525.635 81.6413C527.664 83.0904 528.679 85.264 528.679 88.1622C528.679 91.64 526.794 95.0453 523.026 98.3782C519.257 101.566 514.619 104.537 509.111 107.29C503.748 109.898 497.95 112.289 491.717 114.463C485.485 116.492 479.977 118.013 475.194 119.028C473.599 121.926 472.295 125.186 471.28 128.809C470.265 132.432 469.758 136.054 469.758 139.677C469.758 141.416 469.903 143.155 470.193 144.894C470.628 146.488 471.208 148.009 471.932 149.458C472.802 150.762 473.889 151.849 475.194 152.719C476.643 153.588 478.382 154.023 480.412 154.023C485.195 154.023 490.775 152.501 497.153 149.458C503.676 146.27 510.271 142.068 516.938 136.851C523.606 131.635 529.983 125.693 536.071 119.028C542.159 112.362 547.377 105.479 551.725 98.3782L553.464 99.465ZM609.56 80.9892H623.692C618.329 88.5245 613.184 95.8423 608.256 102.943C603.327 110.043 598.907 116.637 594.993 122.723C591.225 128.664 588.181 133.953 585.861 138.59C583.542 143.082 582.383 146.633 582.383 149.241C582.383 153.009 584.34 154.892 588.253 154.892C591.297 154.892 595.138 153.443 599.776 150.545C604.56 147.502 609.705 143.372 615.213 138.155C620.721 132.939 626.374 126.853 632.172 119.897C637.97 112.941 643.477 105.551 648.696 97.7261L650 98.1609C646.086 104.102 641.448 110.55 636.085 117.506C630.867 124.317 625.359 130.693 619.561 136.634C613.764 142.575 607.966 147.575 602.168 151.632C596.37 155.544 590.935 157.501 585.861 157.501C581.658 157.501 578.542 156.486 576.513 154.458C574.628 152.284 573.686 149.748 573.686 146.85C573.686 144.821 573.976 142.865 574.556 140.981C575.28 138.952 576.005 136.924 576.73 134.895L576.295 134.678C574.411 136.706 572.019 139.097 569.12 141.851C566.366 144.459 563.322 146.922 559.989 149.241C556.8 151.559 553.466 153.516 549.987 155.11C546.509 156.704 543.175 157.501 539.986 157.501C534.623 157.501 530.855 155.834 528.68 152.501C526.506 149.168 525.419 145.401 525.419 141.199C525.419 135.257 527.303 128.736 531.072 121.636C534.841 114.391 539.624 107.652 545.422 101.421C551.219 95.0453 557.525 89.7562 564.337 85.5539C571.149 81.3515 577.6 79.2503 583.687 79.2503C586.586 79.2503 589.123 79.6851 591.297 80.5545C593.471 81.2791 595.283 82.3659 596.732 83.815C598.182 85.1191 599.269 86.6407 599.994 88.3796C600.863 90.1185 601.516 91.9298 601.95 93.8136H602.385L609.56 80.9892ZM538.464 141.851C538.464 145.184 539.116 147.792 540.421 149.676C541.87 151.415 543.827 152.284 546.291 152.284C548.755 152.284 551.654 151.415 554.988 149.676C558.322 147.792 561.8 145.328 565.424 142.285C569.048 139.242 572.599 135.764 576.078 131.852C579.701 127.795 582.89 123.52 585.644 119.028C588.398 114.535 590.645 109.971 592.384 105.334C594.123 100.697 594.993 96.277 594.993 92.0747C594.993 88.7418 594.051 86.2059 592.167 84.467C590.282 82.7281 587.963 81.8587 585.209 81.8587C580.861 81.8587 576.005 83.7425 570.642 87.5101C565.279 91.2777 560.206 96.1321 555.423 102.073C550.64 107.87 546.581 114.318 543.247 121.419C540.059 128.519 538.464 135.33 538.464 141.851ZM225.619 539.768V538.435L232.78 530.639C233.804 529.518 234.548 528.485 235.012 527.538C235.495 526.572 235.737 525.587 235.737 524.582C235.737 523.326 235.36 522.37 234.606 521.713C233.852 521.056 232.751 520.727 231.301 520.727C229.137 520.727 227.262 521.539 225.677 523.162L224.924 521.713C225.658 520.94 226.595 520.312 227.736 519.829C228.895 519.346 230.113 519.104 231.388 519.104C233.36 519.104 234.877 519.578 235.94 520.524C237.022 521.452 237.563 522.775 237.563 524.495C237.563 525.712 237.254 526.92 236.635 528.118C236.036 529.296 235.128 530.542 233.91 531.856L227.939 538.203H238.404V539.768H225.619ZM244.161 539.768V538.435L251.322 530.639C252.346 529.518 253.09 528.485 253.554 527.538C254.037 526.572 254.278 525.587 254.278 524.582C254.278 523.326 253.902 522.37 253.148 521.713C252.394 521.056 251.293 520.727 249.843 520.727C247.679 520.727 245.804 521.539 244.219 523.162L243.465 521.713C244.2 520.94 245.137 520.312 246.277 519.829C247.437 519.346 248.655 519.104 249.93 519.104C251.901 519.104 253.418 519.578 254.481 520.524C255.564 521.452 256.105 522.775 256.105 524.495C256.105 525.712 255.796 526.92 255.177 528.118C254.578 529.296 253.67 530.542 252.452 531.856L246.48 538.203H256.945V539.768H244.161ZM276.703 539.971L276.558 538.406L278.182 538.29C279.206 538.213 279.998 537.836 280.559 537.16C281.119 536.484 281.4 535.585 281.4 534.465V519.336H283.197V534.494C283.197 536.097 282.781 537.363 281.95 538.29C281.119 539.218 279.921 539.739 278.356 539.855L276.703 539.971ZM297.476 540C294.867 540 292.886 539.304 291.533 537.913C290.181 536.503 289.504 534.465 289.504 531.798V519.336H291.272V531.653C291.272 536.136 293.34 538.377 297.476 538.377C301.612 538.377 303.68 536.136 303.68 531.653V519.336H305.448V531.798C305.448 534.465 304.772 536.503 303.419 537.913C302.066 539.304 300.085 540 297.476 540ZM311.786 539.768V519.336H313.207L326.136 536.754V519.336H327.788V539.768H326.397L313.439 522.321V539.768H311.786ZM334.291 539.768V519.336H336.06V539.768H334.291ZM359.485 539.768V538.435L366.645 530.639C367.669 529.518 368.414 528.485 368.877 527.538C369.361 526.572 369.602 525.587 369.602 524.582C369.602 523.326 369.225 522.37 368.472 521.713C367.718 521.056 366.616 520.727 365.167 520.727C363.002 520.727 361.128 521.539 359.543 523.162L358.789 521.713C359.524 520.94 360.461 520.312 361.601 519.829C362.761 519.346 363.978 519.104 365.254 519.104C367.225 519.104 368.742 519.578 369.805 520.524C370.887 521.452 371.428 522.775 371.428 524.495C371.428 525.712 371.119 526.92 370.501 528.118C369.902 529.296 368.993 530.542 367.776 531.856L361.804 538.203H372.269V539.768H359.485ZM383.998 540C381.699 540 379.95 539.111 378.751 537.334C377.572 535.556 376.983 532.967 376.983 529.567C376.983 526.127 377.572 523.529 378.751 521.771C379.95 519.993 381.699 519.104 383.998 519.104C386.318 519.104 388.067 519.983 389.245 521.742C390.424 523.5 391.014 526.098 391.014 529.538C391.014 532.938 390.415 535.537 389.216 537.334C388.018 539.111 386.279 540 383.998 540ZM383.998 538.406C385.757 538.406 387.062 537.682 387.912 536.232C388.762 534.783 389.187 532.552 389.187 529.538C389.187 526.485 388.762 524.253 387.912 522.843C387.081 521.413 385.776 520.698 383.998 520.698C382.24 520.698 380.935 521.413 380.085 522.843C379.235 524.273 378.809 526.504 378.809 529.538C378.809 532.552 379.235 534.783 380.085 536.232C380.935 537.682 382.24 538.406 383.998 538.406ZM396.568 539.768V538.435L403.729 530.639C404.753 529.518 405.497 528.485 405.961 527.538C406.444 526.572 406.686 525.587 406.686 524.582C406.686 523.326 406.309 522.37 405.555 521.713C404.801 521.056 403.7 520.727 402.25 520.727C400.086 520.727 398.211 521.539 396.626 523.162L395.873 521.713C396.607 520.94 397.544 520.312 398.685 519.829C399.844 519.346 401.062 519.104 402.337 519.104C404.308 519.104 405.826 519.578 406.889 520.524C407.971 521.452 408.512 522.775 408.512 524.495C408.512 525.712 408.203 526.92 407.584 528.118C406.985 529.296 406.077 530.542 404.859 531.856L398.887 538.203H409.353V539.768H396.568ZM423.691 539.768V535.16H414.009V533.798L423.981 519.336H425.488V533.595H428.619V535.16H425.488V539.768H423.691ZM423.691 533.595V522.437L415.98 533.595H423.691ZM165.658 300.525C165.803 301.974 165.876 303.351 165.876 304.655C165.876 305.959 165.876 307.263 165.876 308.567C165.876 314.219 164.499 319.653 161.745 324.87C159.136 329.941 155.367 334.506 150.439 338.563C145.656 342.476 139.931 345.591 133.263 347.91C126.596 350.228 119.276 351.388 111.304 351.388C99.4182 351.388 90.504 348.707 84.5613 343.345C78.7634 337.984 75.8645 331.028 75.8645 322.479C75.8645 315.523 78.1837 308.35 82.8219 300.96C87.6051 293.569 95.4322 286.831 106.303 280.745C117.174 274.659 131.524 269.66 149.352 265.747C167.18 261.69 189.285 259.661 215.665 259.661C223.782 259.661 231.174 259.878 237.841 260.313C244.509 260.748 250.234 260.965 255.018 260.965C259.221 260.965 262.7 260.748 265.454 260.313C268.353 259.878 270.817 259.661 272.846 259.661C274.585 259.661 276.18 260.241 277.629 261.4C279.079 262.414 279.803 263.936 279.803 265.964C279.803 267.269 279.368 268.355 278.499 269.225C277.774 269.949 276.397 270.457 274.368 270.746C272.339 271.036 269.585 271.254 266.106 271.398C262.772 271.398 258.496 271.398 253.278 271.398C243.132 271.398 234.653 273.21 227.84 276.832C221.173 280.31 214.94 285.672 209.142 292.917C203.344 300.018 197.329 309.002 191.096 319.87C184.864 330.593 177.109 343.128 167.833 357.474C164.644 362.401 160.585 367.98 155.657 374.211C150.874 380.442 145.149 386.311 138.481 391.817C131.814 397.324 124.204 401.961 115.652 405.728C107.1 409.496 97.4614 411.38 86.7355 411.38C82.677 411.38 78.4011 410.872 73.9078 409.858C69.4144 408.989 65.2835 407.54 61.5149 405.511C57.8912 403.337 54.8474 400.512 52.3833 397.034C50.0642 393.556 48.9046 389.281 48.9046 384.209C48.9046 381.021 49.7743 378.341 51.5136 376.167C53.3979 373.848 56.0069 372.689 59.3407 372.689C61.6598 372.689 63.5441 373.486 64.9936 375.08C66.588 376.529 67.3852 378.413 67.3852 380.732C67.3852 382.905 66.6605 384.644 65.211 385.948C63.7615 387.252 62.0947 387.905 60.2104 387.905C59.1958 387.905 58.3261 387.76 57.6013 387.47C58.3261 394.425 61.5874 399.715 67.3852 403.337C73.183 406.96 80.3578 408.771 88.9096 408.771C97.0266 408.771 104.491 406.96 111.304 403.337C118.116 399.715 124.421 394.933 130.219 388.991C136.162 383.05 141.742 376.312 146.96 368.777C152.178 361.097 157.324 353.199 162.397 345.084C167.615 336.824 172.833 328.71 178.051 320.74C183.269 312.625 188.777 305.234 194.575 298.569C200.373 291.903 206.533 286.252 213.056 281.614C219.723 276.832 227.043 273.717 235.015 272.268V271.833C228.492 271.833 221.39 271.543 213.708 270.964C206.026 270.384 198.924 270.094 192.401 270.094C174.138 270.094 157.904 271.471 143.699 274.224C129.639 276.832 117.754 280.528 108.042 285.31C98.3311 289.947 90.9389 295.453 85.8658 301.829C80.9376 308.205 78.4735 315.088 78.4735 322.479C78.4735 331.173 81.3725 337.766 87.1703 342.258C93.1131 346.606 101.447 348.779 112.173 348.779C119.711 348.779 126.596 347.693 132.828 345.519C139.061 343.2 144.424 340.23 148.917 336.607C153.411 332.839 156.889 328.565 159.353 323.783C161.962 319.001 163.267 314.074 163.267 309.002C163.267 307.553 163.267 306.176 163.267 304.872C163.267 303.423 163.194 301.974 163.049 300.525H165.658ZM297.093 352.909C293.614 356.822 289.701 359.937 285.353 362.256C281.004 364.574 276.728 365.734 272.525 365.734C268.466 365.734 264.988 364.864 262.089 363.125C259.19 361.241 256.943 359.068 255.349 356.604H254.914C253.464 362.111 250.783 367.98 246.869 374.211C242.956 380.442 238.245 386.166 232.737 391.382C227.374 396.599 221.431 400.946 214.909 404.424C208.386 407.902 201.719 409.641 194.906 409.641C188.674 409.641 183.963 407.829 180.774 404.207C177.585 400.584 175.991 395.73 175.991 389.643C175.991 386.455 176.788 382.76 178.383 378.558C179.977 374.356 182.151 370.153 184.905 365.951C187.804 361.604 191.138 357.401 194.906 353.344C198.82 349.142 203.023 345.446 207.517 342.258C212.01 338.926 216.721 336.317 221.649 334.433C226.722 332.405 231.795 331.39 236.868 331.39C242.811 331.39 247.377 333.129 250.566 336.607C253.899 340.085 255.711 344.577 256.001 350.084C256.291 353.416 257.813 356.532 260.567 359.43C263.466 362.183 267.379 363.56 272.307 363.56C276.656 363.56 280.714 362.473 284.483 360.3C288.396 358.126 292.02 355.3 295.354 351.822L297.093 352.909ZM187.732 394.86C187.732 398.628 188.456 401.598 189.906 403.772C191.355 405.946 193.529 407.032 196.428 407.032C200.342 407.032 204.183 406.018 207.952 403.989C211.865 401.816 215.561 399.062 219.04 395.73C222.663 392.252 225.997 388.339 229.041 383.992C232.085 379.645 234.694 375.153 236.868 370.516C239.187 365.878 240.999 361.386 242.304 357.039C243.608 352.547 244.26 348.49 244.26 344.867C244.26 341.824 243.463 339.288 241.869 337.259C240.419 335.086 238.1 333.999 234.911 333.999C231.868 333.999 228.606 335.013 225.128 337.042C221.649 338.926 218.098 341.461 214.474 344.649C210.995 347.837 207.662 351.533 204.473 355.735C201.284 359.937 198.385 364.285 195.776 368.777C193.312 373.269 191.355 377.761 189.906 382.253C188.456 386.745 187.732 390.948 187.732 394.86ZM318.256 333.129L290.644 373.341L291.078 373.776C293.108 371.313 295.644 368.487 298.688 365.299C301.877 361.966 305.283 358.633 308.907 355.3C312.675 351.822 316.589 348.417 320.647 345.084C324.706 341.751 328.692 338.781 332.605 336.172C333.33 334.723 334.127 333.564 334.997 332.695C335.867 331.825 337.606 331.39 340.215 331.39C341.81 331.39 343.187 331.463 344.346 331.608C345.651 331.608 346.955 331.68 348.26 331.825C345.796 334.289 343.404 337.332 341.085 340.954C338.766 344.432 337.606 348.272 337.606 352.475C337.606 355.807 338.403 358.416 339.998 360.3C341.737 362.183 343.839 363.125 346.303 363.125C348.477 363.125 350.579 362.691 352.608 361.821C354.782 360.952 356.811 359.865 358.696 358.561C360.58 357.256 362.392 355.88 364.131 354.431C365.871 352.982 367.392 351.677 368.697 350.518L370.001 351.388C368.552 352.837 366.885 354.431 365.001 356.17C363.117 357.764 361.087 359.285 358.913 360.734C356.739 362.183 354.42 363.415 351.956 364.429C349.492 365.299 346.955 365.734 344.346 365.734C339.708 365.734 335.939 364.357 333.04 361.604C330.286 358.706 328.909 354.721 328.909 349.649C328.909 346.171 329.707 343.055 331.301 340.302L330.866 339.867C324.923 343.925 318.401 349.287 311.298 355.952C304.196 362.473 296.659 370.226 288.687 379.21C285.788 382.398 282.744 386.6 279.555 391.817C276.511 397.034 273.83 402.395 271.511 407.902H257.379C265.206 395.44 273.033 383.05 280.86 370.733C288.687 358.416 296.731 345.881 304.993 333.129H318.256ZM389.788 333.129L343.913 405.511C350.436 404.496 356.958 402.468 363.481 399.425C370.148 396.237 376.598 392.252 382.831 387.47C389.209 382.543 395.224 376.892 400.877 370.516C406.674 364.14 412.037 357.256 416.966 349.866L418.922 350.736C414.429 357.546 409.356 364.14 403.703 370.516C398.195 376.892 392.252 382.688 385.875 387.905C379.497 392.976 372.612 397.324 365.22 400.946C357.973 404.424 350.363 406.743 342.391 407.902C337.608 415.582 332.172 423.19 326.085 430.725C319.997 438.405 313.329 445.288 306.082 451.374C298.69 457.46 290.718 462.387 282.166 466.155C273.469 469.922 264.193 471.806 254.336 471.806C249.698 471.806 245.205 471.299 240.856 470.285C236.508 469.27 232.667 467.676 229.333 465.503C226 463.329 223.318 460.648 221.289 457.46C219.26 454.272 218.245 450.505 218.245 446.158C218.245 442.97 218.97 440.071 220.419 437.463C221.724 434.855 223.535 432.609 225.855 430.725C228.174 428.986 230.783 427.609 233.682 426.595C236.436 425.726 239.262 425.291 242.161 425.291C243.321 425.291 244.408 425.363 245.422 425.508C246.437 425.653 247.307 425.798 248.031 425.943V427.899H246.509C240.567 427.899 236.146 429.711 233.247 433.333C230.203 436.956 228.681 440.941 228.681 445.288C228.681 453.838 231.145 459.924 236.073 463.547C241.001 467.314 247.524 469.198 255.641 469.198C264.628 469.198 273.107 466.807 281.079 462.025C288.906 457.243 296.226 451.157 303.038 443.767C309.851 436.376 316.228 428.261 322.171 419.422C328.114 410.583 333.622 402.033 338.695 393.773L376.308 333.129H389.788ZM403.268 292.7C405.298 292.7 406.964 293.424 408.269 294.874C409.573 296.178 410.226 297.844 410.226 299.873C410.226 301.902 409.573 303.64 408.269 305.09C406.964 306.394 405.298 307.046 403.268 307.046C401.239 307.046 399.572 306.394 398.268 305.09C396.963 303.64 396.311 301.902 396.311 299.873C396.311 297.844 396.963 296.178 398.268 294.874C399.572 293.424 401.239 292.7 403.268 292.7ZM441.029 333.129C435.377 340.809 429.941 348.127 424.723 355.083C419.505 362.038 414.867 368.414 410.808 374.211C406.75 380.007 403.489 385.079 401.024 389.426C398.705 393.628 397.546 396.961 397.546 399.425C397.546 401.743 398.126 403.482 399.285 404.641C400.445 405.656 401.967 406.163 403.851 406.163C406.605 406.163 409.576 405.293 412.765 403.555C416.099 401.816 419.433 399.57 422.766 396.816C426.245 394.063 429.579 391.02 432.768 387.687C436.101 384.354 439.145 381.094 441.899 377.906C444.798 374.573 447.262 371.53 449.291 368.777C451.466 366.023 453.06 363.85 454.075 362.256L473.207 333.129H488.209C480.382 343.852 473.715 352.982 468.207 360.517C462.844 367.907 458.423 374.211 454.944 379.427C451.611 384.644 449.219 388.919 447.769 392.252C446.32 395.44 445.595 398.265 445.595 400.729C445.595 402.468 446.103 403.989 447.117 405.293C448.132 406.453 449.581 407.032 451.466 407.032C454.365 407.032 457.698 406.018 461.467 403.989C465.235 401.816 469.149 399.062 473.207 395.73C477.266 392.252 481.252 388.412 485.165 384.209C489.224 379.862 492.993 375.587 496.471 371.385C500.095 367.183 503.356 363.27 506.255 359.647C509.154 355.88 511.401 352.837 512.995 350.518L515.169 351.17C513.43 353.634 511.111 356.822 508.212 360.734C505.313 364.502 502.052 368.559 498.428 372.907C494.804 377.109 490.963 381.456 486.905 385.948C482.846 390.295 478.643 394.208 474.295 397.686C470.091 401.164 465.888 404.062 461.684 406.38C457.626 408.554 453.785 409.641 450.161 409.641C446.103 409.641 442.841 408.554 440.377 406.38C438.058 404.062 436.899 401.019 436.899 397.251C436.899 394.353 437.333 391.6 438.203 388.991C439.218 386.238 439.942 384.499 440.377 383.775L439.942 383.34C436.899 386.818 433.71 390.151 430.376 393.339C427.042 396.527 423.708 399.352 420.375 401.816C417.041 404.134 413.635 406.018 410.156 407.467C406.822 408.916 403.488 409.641 400.155 409.641C395.516 409.641 392.183 408.626 390.153 406.598C388.124 404.424 387.11 401.888 387.11 398.99C387.11 395.367 388.124 391.455 390.153 387.252C392.038 383.05 394.719 378.341 398.198 373.124C401.677 367.907 405.808 362.038 410.591 355.518C415.519 348.997 420.882 341.534 426.68 333.129H441.029ZM586.99 351.822C582.642 358.778 577.569 365.734 571.771 372.689C566.118 379.5 559.886 385.658 553.073 391.165C546.261 396.671 538.796 401.164 530.679 404.641C522.707 407.974 514.155 409.641 505.024 409.641C501.545 409.641 498.284 409.206 495.24 408.337C492.196 407.467 489.514 406.163 487.195 404.424C485.021 402.685 483.282 400.512 481.977 397.903C480.528 395.15 479.803 391.962 479.803 388.339C479.803 384.572 481.035 381.166 483.499 378.123C485.963 375.08 489.297 373.559 493.5 373.559C495.675 373.559 497.414 374.138 498.718 375.297C500.168 376.312 500.893 377.906 500.893 380.079C500.893 382.108 500.385 383.847 499.371 385.296C498.356 386.745 496.834 387.47 494.805 387.47C493.211 387.47 491.906 387.035 490.891 386.166C490.022 385.296 489.442 384.209 489.152 382.905C487.558 383.775 486.471 385.079 485.891 386.818C485.311 388.412 485.021 390.078 485.021 391.817C485.021 396.889 486.905 400.729 490.674 403.337C494.588 405.801 498.936 407.032 503.719 407.032C506.763 407.032 509.372 406.453 511.546 405.293C513.865 403.989 515.75 402.395 517.199 400.512C518.793 398.483 519.953 396.164 520.678 393.556C521.402 390.948 521.765 388.339 521.765 385.731C521.765 382.978 521.258 380.152 520.243 377.254C519.373 374.211 518.359 371.24 517.199 368.342C516.039 365.444 514.952 362.618 513.938 359.865C512.923 356.967 512.416 354.286 512.416 351.822C512.416 348.634 513.068 345.809 514.373 343.345C515.677 340.737 517.416 338.563 519.591 336.824C521.91 335.086 524.519 333.781 527.418 332.912C530.317 331.898 533.361 331.39 536.549 331.39C542.347 331.39 547.058 332.695 550.682 335.303C554.305 337.766 556.117 341.099 556.117 345.302C556.117 349.069 554.668 351.822 551.769 353.561C549.015 355.3 545.898 356.17 542.42 356.17C543.289 354.576 544.014 352.692 544.594 350.518C545.319 348.2 545.681 346.099 545.681 344.215C545.681 341.317 544.739 338.926 542.854 337.042C541.115 335.013 538.579 333.999 535.245 333.999C531.041 333.999 527.925 335.303 525.896 337.911C523.867 340.375 522.852 343.418 522.852 347.04C522.852 350.228 523.359 353.271 524.374 356.17C525.533 359.068 526.838 361.966 528.287 364.864C529.592 367.762 530.752 370.733 531.766 373.776C532.926 376.819 533.505 380.224 533.505 383.992C533.505 386.745 532.853 389.426 531.549 392.034C530.389 394.498 528.795 396.816 526.765 398.99C524.736 401.019 522.417 402.758 519.808 404.207C517.344 405.656 514.807 406.598 512.198 407.032L512.633 407.467C520.46 406.598 527.925 404.352 535.027 400.729C542.13 396.961 548.725 392.469 554.813 387.252C561.045 381.891 566.771 376.095 571.989 369.863C577.207 363.488 581.772 357.256 585.686 351.17L586.99 351.822ZM321.964 236.005C320.503 236.005 319.162 235.799 317.942 235.389C316.722 234.966 315.696 234.314 314.862 233.433C314.234 232.756 313.763 231.996 313.449 231.15C313.135 230.293 312.96 229.393 312.923 228.451C312.911 227.558 313.038 226.67 313.304 225.789C313.57 224.895 313.998 224.098 314.59 223.398C314.977 222.915 315.418 222.516 315.913 222.202C316.408 221.888 316.915 221.623 317.435 221.405C316.469 220.415 315.732 219.509 315.224 218.688C314.717 217.867 314.463 216.853 314.463 215.645C314.463 214.353 314.778 213.17 315.406 212.095C316.046 211.008 316.934 210.199 318.069 209.668C318.685 209.366 319.319 209.154 319.971 209.034C320.624 208.913 321.27 208.852 321.91 208.852C322.84 208.852 323.758 208.973 324.664 209.215C325.57 209.456 326.349 209.837 327.001 210.356C327.436 210.682 327.823 211.068 328.161 211.515C328.511 211.962 328.789 212.427 328.994 212.91L327.001 213.616C326.711 212.928 326.246 212.354 325.606 211.896C325.111 211.533 324.549 211.274 323.921 211.117C323.293 210.96 322.659 210.881 322.019 210.881C320.908 210.881 319.887 211.105 318.957 211.551C318.196 211.938 317.616 212.481 317.217 213.182C316.831 213.87 316.638 214.673 316.638 215.591C316.638 216.376 316.758 217.028 317 217.547C317.254 218.054 317.64 218.616 318.16 219.232C318.437 219.533 318.739 219.835 319.065 220.137C319.404 220.427 319.742 220.729 320.08 221.043L328.886 229.248C328.946 228.886 328.988 228.536 329.012 228.198C329.037 227.86 329.049 227.521 329.049 227.183L329.012 223.162H331.078V226.912C331.078 227.974 331.036 228.808 330.951 229.411C330.879 230.015 330.782 230.51 330.661 230.897L334.049 234.048L332.654 235.552L329.665 232.726C329.326 233.221 328.873 233.686 328.306 234.121C327.75 234.543 327.195 234.882 326.639 235.135C325.938 235.473 325.183 235.703 324.374 235.824C323.577 235.944 322.774 236.005 321.964 236.005ZM321.928 233.958C322.725 233.958 323.438 233.91 324.066 233.813C324.706 233.704 325.31 233.493 325.878 233.179C326.579 232.768 327.086 232.4 327.4 232.074C327.714 231.736 327.956 231.446 328.125 231.205L319.12 222.981C318.564 223.15 318.033 223.386 317.525 223.687C317.03 223.977 316.601 224.334 316.239 224.756C315.84 225.239 315.551 225.795 315.369 226.423C315.188 227.051 315.104 227.703 315.116 228.379C315.128 229.067 315.243 229.719 315.46 230.335C315.677 230.939 315.997 231.476 316.42 231.947C317.036 232.636 317.846 233.143 318.848 233.469C319.863 233.795 320.889 233.958 321.928 233.958Z" stroke="white"/>
</svg>
