<svg width="458" height="382" viewBox="0 0 458 382" fill="none" xmlns="http://www.w3.org/2000/svg">
<g filter="url(#filter0_d_159_49)">
<path d="M81.5508 61.3499C76.6508 67.5499 71.6008 73.55 66.4008 79.35C61.2008 85.05 55.9508 90.15 50.6508 94.65C45.4508 99.05 40.2508 102.6 35.0508 105.3C29.8508 107.9 24.8508 109.2 20.0508 109.2C16.7508 109.2 14.1008 108.8 12.1008 108C10.2008 107.3 8.70078 106.45 7.60078 105.45C6.60078 104.35 5.90078 103.25 5.50078 102.15C5.20078 100.95 5.05078 99.9 5.05078 99C5.05078 97.3 5.55078 95.85 6.55078 94.65C7.55078 93.45 8.95078 92.85 10.7508 92.85C12.3508 92.85 13.6008 93.4 14.5008 94.5C15.4008 95.6 15.8508 96.9 15.8508 98.4C15.8508 99.3 15.6008 100.2 15.1008 101.1C14.6008 102 13.9008 102.55 13.0008 102.75C13.9008 104.15 15.1508 105.1 16.7508 105.6C18.3508 106 20.0008 106.2 21.7008 106.2C26.0008 106.2 30.5008 104.95 35.2008 102.45C40.0008 99.95 44.8008 96.7 49.6008 92.7C54.5008 88.6 59.3508 84 64.1508 78.9C68.9508 73.7 73.5508 68.4 77.9508 63C79.8508 60.6 82.2008 57.65 85.0008 54.1499C87.9008 50.6499 91.1508 46.8499 94.7508 42.7499C98.3508 38.6499 102.251 34.5 106.451 30.3C110.751 25.9999 115.301 21.9499 120.101 18.1499C124.901 14.3499 129.901 10.9499 135.101 7.94994C140.301 4.94995 145.601 2.69995 151.001 1.19995L151.451 1.79995C148.051 4.89995 144.501 8.74995 140.801 13.3499C137.101 17.9499 133.451 22.9499 129.851 28.35C126.351 33.65 123.001 39.2499 119.801 45.1499C116.601 51.0499 113.751 56.95 111.251 62.8499C108.851 68.65 106.901 74.2499 105.401 79.6499C104.001 85.0499 103.301 90 103.301 94.5C103.301 97.6 103.801 100.25 104.801 102.45C105.901 104.55 108.051 105.6 111.251 105.6C113.151 105.6 115.301 104.9 117.701 103.5C120.201 102.1 122.801 100.25 125.501 97.95C128.201 95.65 130.851 93.1 133.451 90.2999C136.151 87.4999 138.701 84.7499 141.101 82.0499C143.501 79.2499 145.651 76.65 147.551 74.25C149.451 71.75 150.951 69.75 152.051 68.25L153.101 68.7C149.701 73 146.101 77.55 142.301 82.35C138.501 87.15 134.651 91.5499 130.751 95.5499C126.851 99.4499 122.901 102.7 118.901 105.3C115.001 107.9 111.251 109.2 107.651 109.2C105.251 109.2 103.201 108.8 101.501 108C99.9008 107.1 98.5508 105.9 97.4508 104.4C96.3508 102.9 95.5508 101.2 95.0508 99.2999C94.5508 97.3999 94.3008 95.3999 94.3008 93.2999C94.3008 87.5999 95.1008 82.15 96.7008 76.95C98.3008 71.65 100.101 66.4499 102.101 61.3499H81.5508ZM102.851 59.5499C107.351 50.25 112.651 41.15 118.751 32.25C124.951 23.3499 132.251 14.8999 140.651 6.89995L140.351 6.59994C135.051 9.19995 129.851 12.3999 124.751 16.1999C119.751 20 114.851 24.2 110.051 28.8C105.251 33.4 100.551 38.2999 95.9508 43.5C91.4508 48.6999 87.0508 54.0499 82.7508 59.5499H102.851Z" fill="#DFD9D4"/>
<path d="M166.651 56.4L146.851 83.85L147.151 84.1499C149.251 81.6499 151.701 78.75 154.501 75.45C157.301 72.05 160.301 68.85 163.501 65.85C166.701 62.85 170.001 60.3499 173.401 58.3499C176.901 56.2499 180.351 55.1999 183.751 55.1999C186.751 55.1999 189.051 56.0499 190.651 57.75C192.351 59.35 193.201 61.45 193.201 64.0499C193.201 65.6499 192.601 67.5499 191.401 69.7499C190.301 71.9499 188.901 74.2999 187.201 76.7999C185.501 79.2999 183.651 81.85 181.651 84.45C179.651 87.05 177.801 89.55 176.101 91.95C174.401 94.25 172.951 96.4 171.751 98.4C170.651 100.3 170.101 101.9 170.101 103.2C170.101 106 171.501 107.4 174.301 107.4C177.501 107.4 180.901 106.35 184.501 104.25C188.101 102.05 192.401 98.4 197.401 93.2999C199.401 91.2999 201.401 89.1 203.401 86.7C205.501 84.3 207.501 81.9499 209.401 79.6499C211.301 77.2499 213.001 74.9999 214.501 72.8999C216.101 70.7999 217.351 69.0499 218.251 67.6499L219.301 68.25C217.301 71.25 214.701 74.8499 211.501 79.0499C208.401 83.1499 205.001 87.2 201.301 91.2C199.101 93.6 196.851 95.9 194.551 98.1C192.251 100.3 189.951 102.25 187.651 103.95C185.351 105.55 183.051 106.85 180.751 107.85C178.551 108.75 176.351 109.2 174.151 109.2C171.251 109.2 168.851 108.4 166.951 106.8C165.051 105.2 164.101 103 164.101 100.2C164.101 97.2 165.301 93.95 167.701 90.45C170.101 86.85 172.751 83.2499 175.651 79.6499C178.551 76.0499 181.201 72.6 183.601 69.2999C186.001 66 187.201 63.1 187.201 60.6C187.201 59.4 186.801 58.4999 186.001 57.8999C185.201 57.2999 184.151 57 182.851 57C180.351 57 177.551 57.95 174.451 59.85C171.351 61.65 168.151 64.1 164.851 67.2C161.651 70.2 158.401 73.5999 155.101 77.3999C151.901 81.0999 148.901 84.8499 146.101 88.6499C143.301 92.3499 140.801 95.95 138.601 99.45C136.401 102.85 134.751 105.7 133.651 108H124.351C126.951 103.6 129.751 99.15 132.751 94.65C135.651 90.05 138.551 85.55 141.451 81.15C144.351 76.65 147.101 72.35 149.701 68.25C152.401 64.05 154.801 60.2499 156.901 56.8499L166.651 56.4Z" fill="#DFD9D4"/>
<path d="M301.852 4.19995C297.952 10.3999 293.702 16.9499 289.102 23.8499C284.502 30.7499 279.902 37.5999 275.302 44.3999C270.702 51.1999 266.252 57.7999 261.952 64.1999C257.752 70.4999 254.002 76.3 250.702 81.6C247.402 86.9 244.752 91.5 242.752 95.4C240.852 99.2 239.902 102 239.902 103.8C239.902 104.9 240.152 105.8 240.652 106.5C241.252 107.1 242.102 107.4 243.202 107.4C245.702 107.4 248.552 106.4 251.752 104.4C254.952 102.4 258.802 99.25 263.302 94.95C267.202 91.15 271.002 86.95 274.702 82.35C278.402 77.65 281.602 73.0499 284.302 68.5499L285.502 69.15C284.602 70.75 283.402 72.65 281.902 74.85C280.502 76.95 278.902 79.15 277.102 81.45C275.402 83.7499 273.552 86.1 271.552 88.5C269.552 90.8 267.502 93 265.402 95.1C261.402 99.2 257.452 102.6 253.552 105.3C249.652 107.9 246.052 109.2 242.752 109.2C239.552 109.2 237.152 108.55 235.552 107.25C234.052 105.85 233.302 104.1 233.302 102C233.302 100.1 233.702 98.25 234.502 96.45C235.302 94.65 236.102 93.05 236.902 91.65L236.602 91.5C235.002 93.3 233.202 95.25 231.202 97.35C229.302 99.35 227.252 101.25 225.052 103.05C222.852 104.85 220.502 106.35 218.002 107.55C215.602 108.65 213.102 109.2 210.502 109.2C206.902 109.2 204.102 108.1 202.102 105.9C200.202 103.7 199.252 101.1 199.252 98.1C199.252 93.9 200.702 89.3 203.602 84.2999C206.502 79.3 210.102 74.65 214.402 70.35C218.802 66.05 223.502 62.45 228.502 59.5499C233.502 56.6499 238.152 55.1999 242.452 55.1999C245.652 55.1999 248.202 56.2 250.102 58.2C252.002 60.2 252.902 62.75 252.802 65.85H253.252L291.952 4.19995H301.852ZM248.602 66C248.602 63.6 248.202 61.4999 247.402 59.6999C246.602 57.8999 244.752 57 241.852 57C239.852 57 237.602 57.7 235.102 59.1C232.702 60.5 230.252 62.35 227.752 64.65C225.252 66.95 222.802 69.6 220.402 72.6C218.102 75.5 216.052 78.5 214.252 81.6C212.452 84.6 211.002 87.55 209.902 90.45C208.802 93.35 208.252 95.95 208.252 98.25C208.252 100.35 208.652 102.1 209.452 103.5C210.252 104.9 211.702 105.6 213.802 105.6C215.602 105.6 217.652 104.9 219.952 103.5C222.352 102.1 224.852 100.3 227.452 98.1C230.052 95.8 232.602 93.2 235.102 90.2999C237.602 87.4 239.852 84.5 241.852 81.6C243.852 78.7 245.452 75.9 246.652 73.2C247.952 70.4 248.602 68 248.602 66Z" fill="#DFD9D4"/>
<path d="M300.252 56.4L281.202 84.1499L281.502 84.45C282.902 82.75 284.652 80.8 286.752 78.6C288.952 76.3 291.302 74 293.802 71.7C296.402 69.3 299.102 66.95 301.902 64.65C304.702 62.35 307.452 60.3 310.152 58.5C310.652 57.5 311.202 56.7 311.802 56.0999C312.402 55.4999 313.602 55.1999 315.402 55.1999C316.502 55.1999 317.452 55.25 318.252 55.35C319.152 55.35 320.052 55.4 320.952 55.5C319.252 57.2 317.602 59.3 316.002 61.7999C314.402 64.2 313.602 66.8499 313.602 69.7499C313.602 72.0499 314.152 73.8499 315.252 75.1499C316.452 76.4499 317.902 77.1 319.602 77.1C321.102 77.1 322.552 76.8 323.952 76.2C325.452 75.6 326.852 74.85 328.152 73.95C329.452 73.05 330.702 72.1 331.902 71.1C333.102 70.1 334.152 69.2 335.052 68.4L335.952 68.9999C334.952 69.9999 333.802 71.1 332.502 72.2999C331.202 73.3999 329.802 74.45 328.302 75.45C326.802 76.45 325.202 77.3 323.502 78C321.802 78.6 320.052 78.9 318.252 78.9C315.052 78.9 312.452 77.95 310.452 76.0499C308.552 74.05 307.602 71.2999 307.602 67.7999C307.602 65.3999 308.152 63.2499 309.252 61.3499L308.952 61.0499C304.852 63.8499 300.352 67.5499 295.452 72.1499C290.552 76.6499 285.352 82 279.852 88.2C277.852 90.4 275.752 93.3 273.552 96.9C271.452 100.5 269.602 104.2 268.002 108H258.252C263.652 99.4 269.052 90.85 274.452 82.35C279.852 73.85 285.402 65.2 291.102 56.4H300.252Z" fill="#DFD9D4"/>
<path d="M361.903 61.2C361.903 59.8 361.503 58.75 360.703 58.05C360.003 57.35 359.103 57 358.003 57C355.903 57 353.603 57.85 351.103 59.5499C348.703 61.1499 346.303 63.2 343.903 65.7C341.503 68.1 339.303 70.7 337.303 73.5C335.403 76.3 333.953 78.8 332.953 81C335.153 80.6 337.903 79.85 341.203 78.75C344.503 77.55 347.653 76.1 350.653 74.4C353.753 72.7 356.403 70.7499 358.603 68.5499C360.803 66.2499 361.903 63.8 361.903 61.2ZM386.203 69.15C384.703 71.65 382.803 74.3999 380.503 77.3999C378.303 80.3999 375.753 83.3999 372.853 86.3999C370.053 89.2999 367.003 92.15 363.703 94.95C360.503 97.65 357.153 100.1 353.653 102.3C350.153 104.4 346.603 106.1 343.003 107.4C339.503 108.6 336.053 109.2 332.653 109.2C328.453 109.2 325.203 108.15 322.903 106.05C320.603 103.85 319.453 100.75 319.453 96.75C319.453 92.35 320.753 87.75 323.353 82.95C326.053 78.05 329.453 73.55 333.553 69.45C337.653 65.35 342.153 61.95 347.053 59.25C351.953 56.5499 356.653 55.1999 361.153 55.1999C363.653 55.1999 365.603 55.7499 367.003 56.8499C368.403 57.8499 369.103 59.3499 369.103 61.3499C369.103 63.75 367.803 66.1 365.203 68.4C362.603 70.6 359.403 72.6499 355.603 74.5499C351.903 76.3499 347.903 78 343.603 79.5C339.303 80.9 335.503 81.9499 332.203 82.6499C331.103 84.6499 330.203 86.9 329.503 89.4C328.803 91.9 328.453 94.4 328.453 96.9C328.453 98.1 328.553 99.3 328.753 100.5C329.053 101.6 329.453 102.65 329.953 103.65C330.553 104.55 331.303 105.3 332.203 105.9C333.203 106.5 334.403 106.8 335.803 106.8C339.103 106.8 342.953 105.75 347.353 103.65C351.853 101.45 356.403 98.55 361.003 94.95C365.603 91.35 370.003 87.2499 374.203 82.6499C378.403 78.0499 382.003 73.3 385.003 68.4L386.203 69.15Z" fill="#DFD9D4"/>
<path d="M424.904 56.4H434.654C430.954 61.6 427.404 66.6499 424.004 71.5499C420.604 76.45 417.554 81 414.854 85.2C412.254 89.3 410.154 92.95 408.554 96.15C406.954 99.25 406.154 101.7 406.154 103.5C406.154 106.1 407.504 107.4 410.204 107.4C412.304 107.4 414.954 106.4 418.154 104.4C421.454 102.3 425.004 99.45 428.804 95.85C432.604 92.25 436.504 88.05 440.504 83.25C444.504 78.45 448.304 73.35 451.904 67.95L452.804 68.25C450.104 72.35 446.904 76.8 443.204 81.6C439.604 86.3 435.804 90.6999 431.804 94.7999C427.804 98.9 423.804 102.35 419.804 105.15C415.804 107.85 412.054 109.2 408.554 109.2C405.654 109.2 403.504 108.5 402.104 107.1C400.804 105.6 400.154 103.85 400.154 101.85C400.154 100.45 400.354 99.0999 400.754 97.7999C401.254 96.3999 401.754 95 402.254 93.6L401.954 93.45C400.654 94.85 399.004 96.5 397.004 98.4C395.104 100.2 393.004 101.9 390.704 103.5C388.504 105.1 386.204 106.45 383.804 107.55C381.404 108.65 379.104 109.2 376.904 109.2C373.204 109.2 370.604 108.05 369.104 105.75C367.604 103.45 366.854 100.85 366.854 97.95C366.854 93.85 368.154 89.35 370.754 84.45C373.354 79.45 376.654 74.8 380.654 70.5C384.654 66.1 389.004 62.45 393.704 59.5499C398.404 56.6499 402.854 55.1999 407.054 55.1999C409.054 55.1999 410.804 55.4999 412.304 56.0999C413.804 56.5999 415.054 57.3499 416.054 58.3499C417.054 59.2499 417.804 60.3 418.304 61.5C418.904 62.7 419.354 63.9499 419.654 65.2499H419.954L424.904 56.4ZM375.854 98.4C375.854 100.7 376.304 102.5 377.204 103.8C378.204 105 379.554 105.6 381.254 105.6C382.954 105.6 384.954 105 387.254 103.8C389.554 102.5 391.954 100.8 394.454 98.7C396.954 96.6 399.404 94.2 401.804 91.5C404.304 88.7 406.504 85.7499 408.404 82.6499C410.304 79.5499 411.854 76.4 413.054 73.2C414.254 70 414.854 66.95 414.854 64.0499C414.854 61.7499 414.204 60 412.904 58.8C411.604 57.6 410.004 57 408.104 57C405.104 57 401.754 58.3 398.054 60.9C394.354 63.5 390.854 66.85 387.554 70.95C384.254 74.95 381.454 79.3999 379.154 84.2999C376.954 89.1999 375.854 93.9 375.854 98.4Z" fill="#DFD9D4"/>
<path d="M160.019 373V372.08L164.959 366.7C165.665 365.927 166.179 365.213 166.499 364.56C166.832 363.893 166.999 363.213 166.999 362.52C166.999 361.653 166.739 360.993 166.219 360.54C165.699 360.087 164.939 359.86 163.939 359.86C162.445 359.86 161.152 360.42 160.059 361.54L159.539 360.54C160.045 360.007 160.692 359.573 161.479 359.24C162.279 358.907 163.119 358.74 163.999 358.74C165.359 358.74 166.405 359.067 167.139 359.72C167.885 360.36 168.259 361.273 168.259 362.46C168.259 363.3 168.045 364.133 167.619 364.96C167.205 365.773 166.579 366.633 165.739 367.54L161.619 371.92H168.839V373H160.019Z" fill="#DFD9D4"/>
<path d="M172.811 373V372.08L177.751 366.7C178.458 365.927 178.971 365.213 179.291 364.56C179.624 363.893 179.791 363.213 179.791 362.52C179.791 361.653 179.531 360.993 179.011 360.54C178.491 360.087 177.731 359.86 176.731 359.86C175.238 359.86 173.944 360.42 172.851 361.54L172.331 360.54C172.838 360.007 173.484 359.573 174.271 359.24C175.071 358.907 175.911 358.74 176.791 358.74C178.151 358.74 179.198 359.067 179.931 359.72C180.678 360.36 181.051 361.273 181.051 362.46C181.051 363.3 180.838 364.133 180.411 364.96C179.998 365.773 179.371 366.633 178.531 367.54L174.411 371.92H181.631V373H172.811Z" fill="#DFD9D4"/>
<path d="M195.262 373.14L195.162 372.06L196.282 371.98C196.989 371.927 197.535 371.667 197.922 371.2C198.309 370.733 198.502 370.113 198.502 369.34V358.9H199.742V369.36C199.742 370.467 199.455 371.34 198.882 371.98C198.309 372.62 197.482 372.98 196.402 373.06L195.262 373.14Z" fill="#DFD9D4"/>
<path d="M209.594 373.16C207.794 373.16 206.427 372.68 205.494 371.72C204.56 370.747 204.094 369.34 204.094 367.5V358.9H205.314V367.4C205.314 370.493 206.74 372.04 209.594 372.04C212.447 372.04 213.874 370.493 213.874 367.4V358.9H215.094V367.5C215.094 369.34 214.627 370.747 213.694 371.72C212.76 372.68 211.394 373.16 209.594 373.16Z" fill="#DFD9D4"/>
<path d="M219.466 373V358.9H220.446L229.366 370.92V358.9H230.506V373H229.546L220.606 360.96V373H219.466Z" fill="#DFD9D4"/>
<path d="M234.993 373V358.9H236.213V373H234.993Z" fill="#DFD9D4"/>
<path d="M252.374 373V372.08L257.314 366.7C258.021 365.927 258.534 365.213 258.854 364.56C259.187 363.893 259.354 363.213 259.354 362.52C259.354 361.653 259.094 360.993 258.574 360.54C258.054 360.087 257.294 359.86 256.294 359.86C254.801 359.86 253.507 360.42 252.414 361.54L251.894 360.54C252.401 360.007 253.047 359.573 253.834 359.24C254.634 358.907 255.474 358.74 256.354 358.74C257.714 358.74 258.761 359.067 259.494 359.72C260.241 360.36 260.614 361.273 260.614 362.46C260.614 363.3 260.401 364.133 259.974 364.96C259.561 365.773 258.934 366.633 258.094 367.54L253.974 371.92H261.194V373H252.374Z" fill="#DFD9D4"/>
<path d="M269.286 373.16C267.7 373.16 266.493 372.547 265.666 371.32C264.853 370.093 264.446 368.307 264.446 365.96C264.446 363.587 264.853 361.793 265.666 360.58C266.493 359.353 267.7 358.74 269.286 358.74C270.886 358.74 272.093 359.347 272.906 360.56C273.72 361.773 274.126 363.567 274.126 365.94C274.126 368.287 273.713 370.08 272.886 371.32C272.06 372.547 270.86 373.16 269.286 373.16ZM269.286 372.06C270.5 372.06 271.4 371.56 271.986 370.56C272.573 369.56 272.866 368.02 272.866 365.94C272.866 363.833 272.573 362.293 271.986 361.32C271.413 360.333 270.513 359.84 269.286 359.84C268.073 359.84 267.173 360.333 266.586 361.32C266 362.307 265.706 363.847 265.706 365.94C265.706 368.02 266 369.56 266.586 370.56C267.173 371.56 268.073 372.06 269.286 372.06Z" fill="#DFD9D4"/>
<path d="M277.959 373V372.08L282.899 366.7C283.605 365.927 284.119 365.213 284.439 364.56C284.772 363.893 284.939 363.213 284.939 362.52C284.939 361.653 284.679 360.993 284.159 360.54C283.639 360.087 282.879 359.86 281.879 359.86C280.385 359.86 279.092 360.42 277.999 361.54L277.479 360.54C277.985 360.007 278.632 359.573 279.419 359.24C280.219 358.907 281.059 358.74 281.939 358.74C283.299 358.74 284.345 359.067 285.079 359.72C285.825 360.36 286.199 361.273 286.199 362.46C286.199 363.3 285.985 364.133 285.559 364.96C285.145 365.773 284.519 366.633 283.679 367.54L279.559 371.92H286.779V373H277.959Z" fill="#DFD9D4"/>
<path d="M296.671 373V369.82H289.991V368.88L296.871 358.9H297.911V368.74H300.071V369.82H297.911V373H296.671ZM296.671 368.74V361.04L291.351 368.74H296.671Z" fill="#DFD9D4"/>
<path d="M118.651 207.9C118.751 208.9 118.801 209.85 118.801 210.75C118.801 211.65 118.801 212.55 118.801 213.45C118.801 217.35 117.851 221.1 115.951 224.7C114.151 228.2 111.551 231.35 108.151 234.15C104.851 236.85 100.901 239 96.3008 240.6C91.7008 242.2 86.6508 243 81.1508 243C72.9508 243 66.8008 241.15 62.7008 237.45C58.7008 233.75 56.7008 228.95 56.7008 223.05C56.7008 218.25 58.3008 213.3 61.5008 208.2C64.8008 203.1 70.2008 198.45 77.7008 194.25C85.2008 190.05 95.1008 186.6 107.401 183.9C119.701 181.1 134.951 179.7 153.151 179.7C158.751 179.7 163.851 179.85 168.451 180.15C173.051 180.45 177.001 180.6 180.301 180.6C183.201 180.6 185.601 180.45 187.501 180.15C189.501 179.85 191.201 179.7 192.601 179.7C193.801 179.7 194.901 180.1 195.901 180.9C196.901 181.6 197.401 182.65 197.401 184.05C197.401 184.95 197.101 185.7 196.501 186.3C196.001 186.8 195.051 187.15 193.651 187.35C192.251 187.55 190.351 187.7 187.951 187.8C185.651 187.8 182.701 187.8 179.101 187.8C172.101 187.8 166.251 189.05 161.551 191.55C156.951 193.95 152.651 197.65 148.651 202.65C144.651 207.55 140.501 213.75 136.201 221.25C131.901 228.65 126.551 237.3 120.151 247.2C117.951 250.6 115.151 254.45 111.751 258.75C108.451 263.05 104.501 267.1 99.9008 270.9C95.3008 274.7 90.0508 277.9 84.1508 280.5C78.2508 283.1 71.6008 284.4 64.2008 284.4C61.4008 284.4 58.4508 284.05 55.3508 283.35C52.2508 282.75 49.4008 281.75 46.8008 280.35C44.3008 278.85 42.2008 276.9 40.5008 274.5C38.9008 272.1 38.1008 269.15 38.1008 265.65C38.1008 263.45 38.7008 261.6 39.9008 260.1C41.2008 258.5 43.0008 257.7 45.3008 257.7C46.9008 257.7 48.2008 258.25 49.2008 259.35C50.3008 260.35 50.8508 261.65 50.8508 263.25C50.8508 264.75 50.3508 265.95 49.3508 266.85C48.3508 267.75 47.2008 268.2 45.9008 268.2C45.2008 268.2 44.6008 268.1 44.1008 267.9C44.6008 272.7 46.8508 276.35 50.8508 278.85C54.8508 281.35 59.8008 282.6 65.7008 282.6C71.3008 282.6 76.4508 281.35 81.1508 278.85C85.8508 276.35 90.2008 273.05 94.2008 268.95C98.3008 264.85 102.151 260.2 105.751 255C109.351 249.7 112.901 244.25 116.401 238.65C120.001 232.95 123.601 227.35 127.201 221.85C130.801 216.25 134.601 211.15 138.601 206.55C142.601 201.95 146.851 198.05 151.351 194.85C155.951 191.55 161.001 189.4 166.501 188.4V188.1C162.001 188.1 157.101 187.9 151.801 187.5C146.501 187.1 141.601 186.9 137.101 186.9C124.501 186.9 113.301 187.85 103.501 189.75C93.8008 191.55 85.6008 194.1 78.9008 197.4C72.2008 200.6 67.1008 204.4 63.6008 208.8C60.2008 213.2 58.5008 217.95 58.5008 223.05C58.5008 229.05 60.5008 233.6 64.5008 236.7C68.6008 239.7 74.3508 241.2 81.7508 241.2C86.9508 241.2 91.7008 240.45 96.0008 238.95C100.301 237.35 104.001 235.3 107.101 232.8C110.201 230.2 112.601 227.25 114.301 223.95C116.101 220.65 117.001 217.25 117.001 213.75C117.001 212.75 117.001 211.8 117.001 210.9C117.001 209.9 116.951 208.9 116.851 207.9H118.651Z" fill="#DFD9D4"/>
<path d="M209.329 244.05C206.929 246.75 204.229 248.9 201.229 250.5C198.229 252.1 195.279 252.9 192.379 252.9C189.579 252.9 187.179 252.3 185.179 251.1C183.179 249.8 181.629 248.3 180.529 246.6H180.229C179.229 250.4 177.379 254.45 174.679 258.75C171.979 263.05 168.729 267 164.929 270.6C161.229 274.2 157.129 277.2 152.629 279.6C148.129 282 143.529 283.2 138.829 283.2C134.529 283.2 131.279 281.95 129.079 279.45C126.879 276.95 125.779 273.6 125.779 269.4C125.779 267.2 126.329 264.65 127.429 261.75C128.529 258.85 130.029 255.95 131.929 253.05C133.929 250.05 136.229 247.15 138.829 244.35C141.529 241.45 144.429 238.9 147.529 236.7C150.629 234.4 153.879 232.6 157.279 231.3C160.779 229.9 164.279 229.2 167.779 229.2C171.879 229.2 175.029 230.4 177.229 232.8C179.529 235.2 180.779 238.3 180.979 242.1C181.179 244.4 182.229 246.55 184.129 248.55C186.129 250.45 188.829 251.4 192.229 251.4C195.229 251.4 198.029 250.65 200.629 249.15C203.329 247.65 205.829 245.7 208.129 243.3L209.329 244.05ZM133.879 273C133.879 275.6 134.379 277.65 135.379 279.15C136.379 280.65 137.879 281.4 139.879 281.4C142.579 281.4 145.229 280.7 147.829 279.3C150.529 277.8 153.079 275.9 155.479 273.6C157.979 271.2 160.279 268.5 162.379 265.5C164.479 262.5 166.279 259.4 167.779 256.2C169.379 253 170.629 249.9 171.529 246.9C172.429 243.8 172.879 241 172.879 238.5C172.879 236.4 172.329 234.65 171.229 233.25C170.229 231.75 168.629 231 166.429 231C164.329 231 162.079 231.7 159.679 233.1C157.279 234.4 154.829 236.15 152.329 238.35C149.929 240.55 147.629 243.1 145.429 246C143.229 248.9 141.229 251.9 139.429 255C137.729 258.1 136.379 261.2 135.379 264.3C134.379 267.4 133.879 270.3 133.879 273Z" fill="#DFD9D4"/>
<path d="M223.93 230.4L204.88 258.15L205.18 258.45C206.58 256.75 208.33 254.8 210.43 252.6C212.63 250.3 214.98 248 217.48 245.7C220.08 243.3 222.78 240.95 225.58 238.65C228.38 236.35 231.13 234.3 233.83 232.5C234.33 231.5 234.88 230.7 235.48 230.1C236.08 229.5 237.28 229.2 239.08 229.2C240.18 229.2 241.13 229.25 241.93 229.35C242.83 229.35 243.73 229.4 244.63 229.5C242.93 231.2 241.28 233.3 239.68 235.8C238.08 238.2 237.28 240.85 237.28 243.75C237.28 246.05 237.83 247.85 238.93 249.15C240.13 250.45 241.58 251.1 243.28 251.1C244.78 251.1 246.23 250.8 247.63 250.2C249.13 249.6 250.53 248.85 251.83 247.95C253.13 247.05 254.38 246.1 255.58 245.1C256.78 244.1 257.83 243.2 258.73 242.4L259.63 243C258.63 244 257.48 245.1 256.18 246.3C254.88 247.4 253.48 248.45 251.98 249.45C250.48 250.45 248.88 251.3 247.18 252C245.48 252.6 243.73 252.9 241.93 252.9C238.73 252.9 236.13 251.95 234.13 250.05C232.23 248.05 231.28 245.3 231.28 241.8C231.28 239.4 231.83 237.25 232.93 235.35L232.63 235.05C228.53 237.85 224.03 241.55 219.13 246.15C214.23 250.65 209.03 256 203.53 262.2C201.53 264.4 199.43 267.3 197.23 270.9C195.13 274.5 193.28 278.2 191.68 282H181.93C187.33 273.4 192.73 264.85 198.13 256.35C203.53 247.85 209.08 239.2 214.78 230.4H223.93Z" fill="#DFD9D4"/>
<path d="M273.281 230.4L241.631 280.35C246.131 279.65 250.631 278.25 255.131 276.15C259.731 273.95 264.181 271.2 268.481 267.9C272.881 264.5 277.031 260.6 280.931 256.2C284.931 251.8 288.631 247.05 292.031 241.95L293.381 242.55C290.281 247.25 286.781 251.8 282.881 256.2C279.081 260.6 274.981 264.6 270.581 268.2C266.181 271.7 261.431 274.7 256.331 277.2C251.331 279.6 246.081 281.2 240.581 282C237.281 287.3 233.531 292.55 229.331 297.75C225.131 303.05 220.531 307.8 215.531 312C210.431 316.2 204.931 319.6 199.031 322.2C193.031 324.8 186.631 326.1 179.831 326.1C176.631 326.1 173.531 325.75 170.531 325.05C167.531 324.35 164.881 323.25 162.581 321.75C160.281 320.25 158.431 318.4 157.031 316.2C155.631 314 154.931 311.4 154.931 308.4C154.931 306.2 155.431 304.2 156.431 302.4C157.331 300.6 158.581 299.05 160.181 297.75C161.781 296.55 163.581 295.6 165.581 294.9C167.481 294.3 169.431 294 171.431 294C172.231 294 172.981 294.05 173.681 294.15C174.381 294.25 174.981 294.35 175.481 294.45V295.8H174.431C170.331 295.8 167.281 297.05 165.281 299.55C163.181 302.05 162.131 304.8 162.131 307.8C162.131 313.7 163.831 317.9 167.231 320.4C170.631 323 175.131 324.3 180.731 324.3C186.931 324.3 192.781 322.65 198.281 319.35C203.681 316.05 208.731 311.85 213.431 306.75C218.131 301.65 222.531 296.05 226.631 289.95C230.731 283.85 234.531 277.95 238.031 272.25L263.981 230.4H273.281ZM282.581 202.5C283.981 202.5 285.131 203 286.031 204C286.931 204.9 287.381 206.05 287.381 207.45C287.381 208.85 286.931 210.05 286.031 211.05C285.131 211.95 283.981 212.4 282.581 212.4C281.181 212.4 280.031 211.95 279.131 211.05C278.231 210.05 277.781 208.85 277.781 207.45C277.781 206.05 278.231 204.9 279.131 204C280.031 203 281.181 202.5 282.581 202.5Z" fill="#DFD9D4"/>
<path d="M308.633 230.4C304.733 235.7 300.983 240.75 297.383 245.55C293.783 250.35 290.583 254.75 287.783 258.75C284.983 262.75 282.733 266.25 281.033 269.25C279.433 272.15 278.633 274.45 278.633 276.15C278.633 277.75 279.033 278.95 279.833 279.75C280.633 280.45 281.683 280.8 282.983 280.8C284.883 280.8 286.933 280.2 289.133 279C291.433 277.8 293.733 276.25 296.033 274.35C298.433 272.45 300.733 270.35 302.933 268.05C305.233 265.75 307.333 263.5 309.233 261.3C311.233 259 312.933 256.9 314.333 255C315.833 253.1 316.933 251.6 317.633 250.5L330.833 230.4H341.183C335.783 237.8 331.183 244.1 327.383 249.3C323.683 254.4 320.633 258.75 318.233 262.35C315.933 265.95 314.283 268.9 313.283 271.2C312.283 273.4 311.783 275.35 311.783 277.05C311.783 278.25 312.133 279.3 312.833 280.2C313.533 281 314.533 281.4 315.833 281.4C317.833 281.4 320.133 280.7 322.733 279.3C325.333 277.8 328.033 275.9 330.833 273.6C333.633 271.2 336.383 268.55 339.083 265.65C341.883 262.65 344.483 259.7 346.883 256.8C349.383 253.9 351.633 251.2 353.633 248.7C355.633 246.1 357.183 244 358.283 242.4L359.783 242.85C358.583 244.55 356.983 246.75 354.983 249.45C352.983 252.05 350.733 254.85 348.233 257.85C345.733 260.75 343.083 263.75 340.283 266.85C337.483 269.85 334.583 272.55 331.583 274.95C328.683 277.35 325.783 279.35 322.883 280.95C320.083 282.45 317.433 283.2 314.933 283.2C312.133 283.2 309.883 282.45 308.183 280.95C306.583 279.35 305.783 277.25 305.783 274.65C305.783 272.65 306.083 270.75 306.683 268.95C307.383 267.05 307.883 265.85 308.183 265.35L307.883 265.05C305.783 267.45 303.583 269.75 301.283 271.95C298.983 274.15 296.683 276.1 294.383 277.8C292.083 279.4 289.733 280.7 287.333 281.7C285.033 282.7 282.733 283.2 280.433 283.2C277.233 283.2 274.933 282.5 273.533 281.1C272.133 279.6 271.433 277.85 271.433 275.85C271.433 273.35 272.133 270.65 273.533 267.75C274.833 264.85 276.683 261.6 279.083 258C281.483 254.4 284.333 250.35 287.633 245.85C291.033 241.35 294.733 236.2 298.733 230.4H308.633Z" fill="#DFD9D4"/>
<path d="M409.333 243.3C406.333 248.1 402.833 252.9 398.833 257.7C394.933 262.4 390.633 266.65 385.933 270.45C381.233 274.25 376.083 277.35 370.483 279.75C364.983 282.05 359.083 283.2 352.783 283.2C350.383 283.2 348.133 282.9 346.033 282.3C343.933 281.7 342.083 280.8 340.483 279.6C338.983 278.4 337.783 276.9 336.883 275.1C335.883 273.2 335.383 271 335.383 268.5C335.383 265.9 336.233 263.55 337.933 261.45C339.633 259.35 341.933 258.3 344.833 258.3C346.333 258.3 347.533 258.7 348.433 259.5C349.433 260.2 349.933 261.3 349.933 262.8C349.933 264.2 349.583 265.4 348.883 266.4C348.183 267.4 347.133 267.9 345.733 267.9C344.633 267.9 343.733 267.6 343.033 267C342.433 266.4 342.033 265.65 341.833 264.75C340.733 265.35 339.983 266.25 339.583 267.45C339.183 268.55 338.983 269.7 338.983 270.9C338.983 274.4 340.283 277.05 342.883 278.85C345.583 280.55 348.583 281.4 351.883 281.4C353.983 281.4 355.783 281 357.283 280.2C358.883 279.3 360.183 278.2 361.183 276.9C362.283 275.5 363.083 273.9 363.583 272.1C364.083 270.3 364.333 268.5 364.333 266.7C364.333 264.8 363.983 262.85 363.283 260.85C362.683 258.75 361.983 256.7 361.183 254.7C360.383 252.7 359.633 250.75 358.933 248.85C358.233 246.85 357.883 245 357.883 243.3C357.883 241.1 358.333 239.15 359.233 237.45C360.133 235.65 361.333 234.15 362.833 232.95C364.433 231.75 366.233 230.85 368.233 230.25C370.233 229.55 372.333 229.2 374.533 229.2C378.533 229.2 381.783 230.1 384.283 231.9C386.783 233.6 388.033 235.9 388.033 238.8C388.033 241.4 387.033 243.3 385.033 244.5C383.133 245.7 380.983 246.3 378.583 246.3C379.183 245.2 379.683 243.9 380.083 242.4C380.583 240.8 380.833 239.35 380.833 238.05C380.833 236.05 380.183 234.4 378.883 233.1C377.683 231.7 375.933 231 373.633 231C370.733 231 368.583 231.9 367.183 233.7C365.783 235.4 365.083 237.5 365.083 240C365.083 242.2 365.433 244.3 366.133 246.3C366.933 248.3 367.833 250.3 368.833 252.3C369.733 254.3 370.533 256.35 371.233 258.45C372.033 260.55 372.433 262.9 372.433 265.5C372.433 267.4 371.983 269.25 371.083 271.05C370.283 272.75 369.183 274.35 367.783 275.85C366.383 277.25 364.783 278.45 362.983 279.45C361.283 280.45 359.533 281.1 357.733 281.4L358.033 281.7C363.433 281.1 368.583 279.55 373.483 277.05C378.383 274.45 382.933 271.35 387.133 267.75C391.433 264.05 395.383 260.05 398.983 255.75C402.583 251.35 405.733 247.05 408.433 242.85L409.333 243.3Z" fill="#DFD9D4"/>
<path d="M226.488 163.375C225.48 163.375 224.555 163.233 223.713 162.95C222.872 162.658 222.163 162.208 221.588 161.6C221.155 161.133 220.83 160.608 220.613 160.025C220.397 159.433 220.276 158.812 220.251 158.162C220.242 157.546 220.33 156.933 220.513 156.325C220.697 155.708 220.992 155.158 221.401 154.675C221.667 154.342 221.972 154.067 222.313 153.85C222.655 153.633 223.005 153.45 223.363 153.3C222.697 152.617 222.188 151.992 221.838 151.425C221.488 150.858 221.313 150.158 221.313 149.325C221.313 148.433 221.53 147.617 221.963 146.875C222.405 146.125 223.017 145.567 223.801 145.2C224.226 144.992 224.663 144.846 225.113 144.762C225.563 144.679 226.009 144.637 226.451 144.637C227.092 144.637 227.726 144.721 228.351 144.887C228.976 145.054 229.513 145.317 229.963 145.675C230.263 145.9 230.53 146.167 230.763 146.475C231.005 146.783 231.197 147.104 231.338 147.437L229.963 147.925C229.763 147.45 229.442 147.054 229.001 146.737C228.659 146.487 228.272 146.308 227.838 146.2C227.405 146.092 226.967 146.037 226.526 146.037C225.759 146.037 225.055 146.192 224.413 146.5C223.888 146.767 223.488 147.142 223.213 147.625C222.947 148.1 222.813 148.654 222.813 149.287C222.813 149.829 222.897 150.279 223.063 150.637C223.238 150.987 223.505 151.375 223.863 151.8C224.055 152.008 224.263 152.217 224.488 152.425C224.722 152.625 224.955 152.833 225.188 153.05L231.263 158.712C231.305 158.462 231.334 158.221 231.351 157.987C231.367 157.754 231.376 157.521 231.376 157.287L231.351 154.512H232.776V157.1C232.776 157.833 232.747 158.408 232.688 158.825C232.638 159.242 232.572 159.583 232.488 159.85L234.826 162.025L233.863 163.062L231.801 161.112C231.567 161.454 231.255 161.775 230.863 162.075C230.48 162.367 230.097 162.6 229.713 162.775C229.23 163.008 228.709 163.167 228.151 163.25C227.601 163.333 227.047 163.375 226.488 163.375ZM226.463 161.962C227.013 161.962 227.505 161.929 227.938 161.862C228.38 161.787 228.797 161.642 229.188 161.425C229.672 161.142 230.022 160.887 230.238 160.662C230.455 160.429 230.622 160.229 230.738 160.062L224.526 154.387C224.142 154.504 223.776 154.667 223.426 154.875C223.084 155.075 222.788 155.321 222.538 155.612C222.263 155.946 222.063 156.329 221.938 156.762C221.813 157.196 221.755 157.646 221.763 158.112C221.772 158.587 221.851 159.037 222.001 159.462C222.151 159.879 222.372 160.25 222.663 160.575C223.088 161.05 223.647 161.4 224.338 161.625C225.038 161.85 225.747 161.962 226.463 161.962Z" fill="#DFD9D4"/>
<path d="M64.0008 155L209.001 155M249.001 155L394.001 155M81.5508 61.3499C76.6508 67.5499 71.6008 73.55 66.4008 79.35C61.2008 85.05 55.9508 90.15 50.6508 94.65C45.4508 99.05 40.2508 102.6 35.0508 105.3C29.8508 107.9 24.8508 109.2 20.0508 109.2C16.7508 109.2 14.1008 108.8 12.1008 108C10.2008 107.3 8.70078 106.45 7.60078 105.45C6.60078 104.35 5.90078 103.25 5.50078 102.15C5.20078 100.95 5.05078 99.9 5.05078 99C5.05078 97.3 5.55078 95.85 6.55078 94.65C7.55078 93.45 8.95078 92.85 10.7508 92.85C12.3508 92.85 13.6008 93.4 14.5008 94.5C15.4008 95.6 15.8508 96.9 15.8508 98.4C15.8508 99.3 15.6008 100.2 15.1008 101.1C14.6008 102 13.9008 102.55 13.0008 102.75C13.9008 104.15 15.1508 105.1 16.7508 105.6C18.3508 106 20.0008 106.2 21.7008 106.2C26.0008 106.2 30.5008 104.95 35.2008 102.45C40.0008 99.95 44.8008 96.7 49.6008 92.7C54.5008 88.6 59.3508 84 64.1508 78.9C68.9508 73.7 73.5508 68.4 77.9508 63C79.8508 60.6 82.2008 57.65 85.0008 54.1499C87.9008 50.6499 91.1508 46.8499 94.7508 42.7499C98.3508 38.6499 102.251 34.5 106.451 30.3C110.751 25.9999 115.301 21.9499 120.101 18.1499C124.901 14.3499 129.901 10.9499 135.101 7.94994C140.301 4.94995 145.601 2.69995 151.001 1.19995L151.451 1.79995C148.051 4.89995 144.501 8.74995 140.801 13.3499C137.101 17.9499 133.451 22.9499 129.851 28.35C126.351 33.65 123.001 39.2499 119.801 45.1499C116.601 51.0499 113.751 56.95 111.251 62.8499C108.851 68.65 106.901 74.2499 105.401 79.6499C104.001 85.0499 103.301 90 103.301 94.5C103.301 97.6 103.801 100.25 104.801 102.45C105.901 104.55 108.051 105.6 111.251 105.6C113.151 105.6 115.301 104.9 117.701 103.5C120.201 102.1 122.801 100.25 125.501 97.95C128.201 95.65 130.851 93.1 133.451 90.2999C136.151 87.4999 138.701 84.7499 141.101 82.0499C143.501 79.2499 145.651 76.65 147.551 74.25C149.451 71.75 150.951 69.75 152.051 68.25L153.101 68.7C149.701 73 146.101 77.55 142.301 82.35C138.501 87.15 134.651 91.5499 130.751 95.5499C126.851 99.4499 122.901 102.7 118.901 105.3C115.001 107.9 111.251 109.2 107.651 109.2C105.251 109.2 103.201 108.8 101.501 108C99.9008 107.1 98.5508 105.9 97.4508 104.4C96.3508 102.9 95.5508 101.2 95.0508 99.2999C94.5508 97.3999 94.3008 95.3999 94.3008 93.2999C94.3008 87.5999 95.1008 82.15 96.7008 76.95C98.3008 71.65 100.101 66.4499 102.101 61.3499H81.5508ZM102.851 59.5499C107.351 50.25 112.651 41.15 118.751 32.25C124.951 23.3499 132.251 14.8999 140.651 6.89995L140.351 6.59994C135.051 9.19995 129.851 12.3999 124.751 16.1999C119.751 20 114.851 24.2 110.051 28.8C105.251 33.4 100.551 38.2999 95.9508 43.5C91.4508 48.6999 87.0508 54.0499 82.7508 59.5499H102.851ZM166.651 56.4L146.851 83.85L147.151 84.1499C149.251 81.6499 151.701 78.75 154.501 75.45C157.301 72.05 160.301 68.85 163.501 65.85C166.701 62.85 170.001 60.3499 173.401 58.3499C176.901 56.2499 180.351 55.1999 183.751 55.1999C186.751 55.1999 189.051 56.0499 190.651 57.75C192.351 59.35 193.201 61.45 193.201 64.0499C193.201 65.6499 192.601 67.5499 191.401 69.7499C190.301 71.9499 188.901 74.2999 187.201 76.7999C185.501 79.2999 183.651 81.85 181.651 84.45C179.651 87.05 177.801 89.55 176.101 91.95C174.401 94.25 172.951 96.4 171.751 98.4C170.651 100.3 170.101 101.9 170.101 103.2C170.101 106 171.501 107.4 174.301 107.4C177.501 107.4 180.901 106.35 184.501 104.25C188.101 102.05 192.401 98.4 197.401 93.2999C199.401 91.2999 201.401 89.1 203.401 86.7C205.501 84.3 207.501 81.9499 209.401 79.6499C211.301 77.2499 213.001 74.9999 214.501 72.8999C216.101 70.7999 217.351 69.0499 218.251 67.6499L219.301 68.25C217.301 71.25 214.701 74.8499 211.501 79.0499C208.401 83.1499 205.001 87.2 201.301 91.2C199.101 93.6 196.851 95.9 194.551 98.1C192.251 100.3 189.951 102.25 187.651 103.95C185.351 105.55 183.051 106.85 180.751 107.85C178.551 108.75 176.351 109.2 174.151 109.2C171.251 109.2 168.851 108.4 166.951 106.8C165.051 105.2 164.101 103 164.101 100.2C164.101 97.2 165.301 93.95 167.701 90.45C170.101 86.85 172.751 83.2499 175.651 79.6499C178.551 76.0499 181.201 72.6 183.601 69.2999C186.001 66 187.201 63.1 187.201 60.6C187.201 59.4 186.801 58.4999 186.001 57.8999C185.201 57.2999 184.151 57 182.851 57C180.351 57 177.551 57.95 174.451 59.85C171.351 61.65 168.151 64.1 164.851 67.2C161.651 70.2 158.401 73.5999 155.101 77.3999C151.901 81.0999 148.901 84.8499 146.101 88.6499C143.301 92.3499 140.801 95.95 138.601 99.45C136.401 102.85 134.751 105.7 133.651 108H124.351C126.951 103.6 129.751 99.15 132.751 94.65C135.651 90.05 138.551 85.55 141.451 81.15C144.351 76.65 147.101 72.35 149.701 68.25C152.401 64.05 154.801 60.2499 156.901 56.8499L166.651 56.4ZM301.852 4.19995C297.952 10.3999 293.702 16.9499 289.102 23.8499C284.502 30.7499 279.902 37.5999 275.302 44.3999C270.702 51.1999 266.252 57.7999 261.952 64.1999C257.752 70.4999 254.002 76.3 250.702 81.6C247.402 86.9 244.752 91.5 242.752 95.4C240.852 99.2 239.902 102 239.902 103.8C239.902 104.9 240.152 105.8 240.652 106.5C241.252 107.1 242.102 107.4 243.202 107.4C245.702 107.4 248.552 106.4 251.752 104.4C254.952 102.4 258.802 99.25 263.302 94.95C267.202 91.15 271.002 86.95 274.702 82.35C278.402 77.65 281.602 73.0499 284.302 68.5499L285.502 69.15C284.602 70.75 283.402 72.65 281.902 74.85C280.502 76.95 278.902 79.15 277.102 81.45C275.402 83.7499 273.552 86.1 271.552 88.5C269.552 90.8 267.502 93 265.402 95.1C261.402 99.2 257.452 102.6 253.552 105.3C249.652 107.9 246.052 109.2 242.752 109.2C239.552 109.2 237.152 108.55 235.552 107.25C234.052 105.85 233.302 104.1 233.302 102C233.302 100.1 233.702 98.25 234.502 96.45C235.302 94.65 236.102 93.05 236.902 91.65L236.602 91.5C235.002 93.3 233.202 95.25 231.202 97.35C229.302 99.35 227.252 101.25 225.052 103.05C222.852 104.85 220.502 106.35 218.002 107.55C215.602 108.65 213.102 109.2 210.502 109.2C206.902 109.2 204.102 108.1 202.102 105.9C200.202 103.7 199.252 101.1 199.252 98.1C199.252 93.9 200.702 89.3 203.602 84.2999C206.502 79.3 210.102 74.65 214.402 70.35C218.802 66.05 223.502 62.45 228.502 59.5499C233.502 56.6499 238.152 55.1999 242.452 55.1999C245.652 55.1999 248.202 56.2 250.102 58.2C252.002 60.2 252.902 62.75 252.802 65.85H253.252L291.952 4.19995H301.852ZM248.602 66C248.602 63.6 248.202 61.4999 247.402 59.6999C246.602 57.8999 244.752 57 241.852 57C239.852 57 237.602 57.7 235.102 59.1C232.702 60.5 230.252 62.35 227.752 64.65C225.252 66.95 222.802 69.6 220.402 72.6C218.102 75.5 216.052 78.5 214.252 81.6C212.452 84.6 211.002 87.55 209.902 90.45C208.802 93.35 208.252 95.95 208.252 98.25C208.252 100.35 208.652 102.1 209.452 103.5C210.252 104.9 211.702 105.6 213.802 105.6C215.602 105.6 217.652 104.9 219.952 103.5C222.352 102.1 224.852 100.3 227.452 98.1C230.052 95.8 232.602 93.2 235.102 90.2999C237.602 87.4 239.852 84.5 241.852 81.6C243.852 78.7 245.452 75.9 246.652 73.2C247.952 70.4 248.602 68 248.602 66ZM300.252 56.4L281.202 84.1499L281.502 84.45C282.902 82.75 284.652 80.8 286.752 78.6C288.952 76.3 291.302 74 293.802 71.7C296.402 69.3 299.102 66.95 301.902 64.65C304.702 62.35 307.452 60.3 310.152 58.5C310.652 57.5 311.202 56.7 311.802 56.0999C312.402 55.4999 313.602 55.1999 315.402 55.1999C316.502 55.1999 317.452 55.25 318.252 55.35C319.152 55.35 320.052 55.4 320.952 55.5C319.252 57.2 317.602 59.3 316.002 61.7999C314.402 64.2 313.602 66.8499 313.602 69.7499C313.602 72.0499 314.152 73.8499 315.252 75.1499C316.452 76.4499 317.902 77.1 319.602 77.1C321.102 77.1 322.552 76.8 323.952 76.2C325.452 75.6 326.852 74.85 328.152 73.95C329.452 73.05 330.702 72.1 331.902 71.1C333.102 70.1 334.152 69.2 335.052 68.4L335.952 68.9999C334.952 69.9999 333.802 71.1 332.502 72.2999C331.202 73.3999 329.802 74.45 328.302 75.45C326.802 76.45 325.202 77.3 323.502 78C321.802 78.6 320.052 78.9 318.252 78.9C315.052 78.9 312.452 77.95 310.452 76.0499C308.552 74.05 307.602 71.2999 307.602 67.7999C307.602 65.3999 308.152 63.2499 309.252 61.3499L308.952 61.0499C304.852 63.8499 300.352 67.5499 295.452 72.1499C290.552 76.6499 285.352 82 279.852 88.2C277.852 90.4 275.752 93.3 273.552 96.9C271.452 100.5 269.602 104.2 268.002 108H258.252C263.652 99.4 269.052 90.85 274.452 82.35C279.852 73.85 285.402 65.2 291.102 56.4H300.252ZM361.903 61.2C361.903 59.8 361.503 58.75 360.703 58.05C360.003 57.35 359.103 57 358.003 57C355.903 57 353.603 57.85 351.103 59.5499C348.703 61.1499 346.303 63.2 343.903 65.7C341.503 68.1 339.303 70.7 337.303 73.5C335.403 76.3 333.953 78.8 332.953 81C335.153 80.6 337.903 79.85 341.203 78.75C344.503 77.55 347.653 76.1 350.653 74.4C353.753 72.7 356.403 70.7499 358.603 68.5499C360.803 66.2499 361.903 63.8 361.903 61.2ZM386.203 69.15C384.703 71.65 382.803 74.3999 380.503 77.3999C378.303 80.3999 375.753 83.3999 372.853 86.3999C370.053 89.2999 367.003 92.15 363.703 94.95C360.503 97.65 357.153 100.1 353.653 102.3C350.153 104.4 346.603 106.1 343.003 107.4C339.503 108.6 336.053 109.2 332.653 109.2C328.453 109.2 325.203 108.15 322.903 106.05C320.603 103.85 319.453 100.75 319.453 96.75C319.453 92.35 320.753 87.75 323.353 82.95C326.053 78.05 329.453 73.55 333.553 69.45C337.653 65.35 342.153 61.95 347.053 59.25C351.953 56.5499 356.653 55.1999 361.153 55.1999C363.653 55.1999 365.603 55.7499 367.003 56.8499C368.403 57.8499 369.103 59.3499 369.103 61.3499C369.103 63.75 367.803 66.1 365.203 68.4C362.603 70.6 359.403 72.6499 355.603 74.5499C351.903 76.3499 347.903 78 343.603 79.5C339.303 80.9 335.503 81.9499 332.203 82.6499C331.103 84.6499 330.203 86.9 329.503 89.4C328.803 91.9 328.453 94.4 328.453 96.9C328.453 98.1 328.553 99.3 328.753 100.5C329.053 101.6 329.453 102.65 329.953 103.65C330.553 104.55 331.303 105.3 332.203 105.9C333.203 106.5 334.403 106.8 335.803 106.8C339.103 106.8 342.953 105.75 347.353 103.65C351.853 101.45 356.403 98.55 361.003 94.95C365.603 91.35 370.003 87.2499 374.203 82.6499C378.403 78.0499 382.003 73.3 385.003 68.4L386.203 69.15ZM424.904 56.4H434.654C430.954 61.6 427.404 66.6499 424.004 71.5499C420.604 76.45 417.554 81 414.854 85.2C412.254 89.3 410.154 92.95 408.554 96.15C406.954 99.25 406.154 101.7 406.154 103.5C406.154 106.1 407.504 107.4 410.204 107.4C412.304 107.4 414.954 106.4 418.154 104.4C421.454 102.3 425.004 99.45 428.804 95.85C432.604 92.25 436.504 88.05 440.504 83.25C444.504 78.45 448.304 73.35 451.904 67.95L452.804 68.25C450.104 72.35 446.904 76.8 443.204 81.6C439.604 86.3 435.804 90.6999 431.804 94.7999C427.804 98.9 423.804 102.35 419.804 105.15C415.804 107.85 412.054 109.2 408.554 109.2C405.654 109.2 403.504 108.5 402.104 107.1C400.804 105.6 400.154 103.85 400.154 101.85C400.154 100.45 400.354 99.0999 400.754 97.7999C401.254 96.3999 401.754 95 402.254 93.6L401.954 93.45C400.654 94.85 399.004 96.5 397.004 98.4C395.104 100.2 393.004 101.9 390.704 103.5C388.504 105.1 386.204 106.45 383.804 107.55C381.404 108.65 379.104 109.2 376.904 109.2C373.204 109.2 370.604 108.05 369.104 105.75C367.604 103.45 366.854 100.85 366.854 97.95C366.854 93.85 368.154 89.35 370.754 84.45C373.354 79.45 376.654 74.8 380.654 70.5C384.654 66.1 389.004 62.45 393.704 59.5499C398.404 56.6499 402.854 55.1999 407.054 55.1999C409.054 55.1999 410.804 55.4999 412.304 56.0999C413.804 56.5999 415.054 57.3499 416.054 58.3499C417.054 59.2499 417.804 60.3 418.304 61.5C418.904 62.7 419.354 63.9499 419.654 65.2499H419.954L424.904 56.4ZM375.854 98.4C375.854 100.7 376.304 102.5 377.204 103.8C378.204 105 379.554 105.6 381.254 105.6C382.954 105.6 384.954 105 387.254 103.8C389.554 102.5 391.954 100.8 394.454 98.7C396.954 96.6 399.404 94.2 401.804 91.5C404.304 88.7 406.504 85.7499 408.404 82.6499C410.304 79.5499 411.854 76.4 413.054 73.2C414.254 70 414.854 66.95 414.854 64.0499C414.854 61.7499 414.204 60 412.904 58.8C411.604 57.6 410.004 57 408.104 57C405.104 57 401.754 58.3 398.054 60.9C394.354 63.5 390.854 66.85 387.554 70.95C384.254 74.95 381.454 79.3999 379.154 84.2999C376.954 89.1999 375.854 93.9 375.854 98.4ZM160.019 373V372.08L164.959 366.7C165.665 365.927 166.179 365.213 166.499 364.56C166.832 363.893 166.999 363.213 166.999 362.52C166.999 361.653 166.739 360.993 166.219 360.54C165.699 360.087 164.939 359.86 163.939 359.86C162.445 359.86 161.152 360.42 160.059 361.54L159.539 360.54C160.045 360.007 160.692 359.573 161.479 359.24C162.279 358.907 163.119 358.74 163.999 358.74C165.359 358.74 166.405 359.067 167.139 359.72C167.885 360.36 168.259 361.273 168.259 362.46C168.259 363.3 168.045 364.133 167.619 364.96C167.205 365.773 166.579 366.633 165.739 367.54L161.619 371.92H168.839V373H160.019ZM172.811 373V372.08L177.751 366.7C178.458 365.927 178.971 365.213 179.291 364.56C179.624 363.893 179.791 363.213 179.791 362.52C179.791 361.653 179.531 360.993 179.011 360.54C178.491 360.087 177.731 359.86 176.731 359.86C175.238 359.86 173.944 360.42 172.851 361.54L172.331 360.54C172.838 360.007 173.484 359.573 174.271 359.24C175.071 358.907 175.911 358.74 176.791 358.74C178.151 358.74 179.198 359.067 179.931 359.72C180.678 360.36 181.051 361.273 181.051 362.46C181.051 363.3 180.838 364.133 180.411 364.96C179.998 365.773 179.371 366.633 178.531 367.54L174.411 371.92H181.631V373H172.811ZM195.262 373.14L195.162 372.06L196.282 371.98C196.989 371.927 197.535 371.667 197.922 371.2C198.309 370.733 198.502 370.113 198.502 369.34V358.9H199.742V369.36C199.742 370.467 199.455 371.34 198.882 371.98C198.309 372.62 197.482 372.98 196.402 373.06L195.262 373.14ZM209.594 373.16C207.794 373.16 206.427 372.68 205.494 371.72C204.56 370.747 204.094 369.34 204.094 367.5V358.9H205.314V367.4C205.314 370.493 206.74 372.04 209.594 372.04C212.447 372.04 213.874 370.493 213.874 367.4V358.9H215.094V367.5C215.094 369.34 214.627 370.747 213.694 371.72C212.76 372.68 211.394 373.16 209.594 373.16ZM219.466 373V358.9H220.446L229.366 370.92V358.9H230.506V373H229.546L220.606 360.96V373H219.466ZM234.993 373V358.9H236.213V373H234.993ZM252.374 373V372.08L257.314 366.7C258.021 365.927 258.534 365.213 258.854 364.56C259.187 363.893 259.354 363.213 259.354 362.52C259.354 361.653 259.094 360.993 258.574 360.54C258.054 360.087 257.294 359.86 256.294 359.86C254.801 359.86 253.507 360.42 252.414 361.54L251.894 360.54C252.401 360.007 253.047 359.573 253.834 359.24C254.634 358.907 255.474 358.74 256.354 358.74C257.714 358.74 258.761 359.067 259.494 359.72C260.241 360.36 260.614 361.273 260.614 362.46C260.614 363.3 260.401 364.133 259.974 364.96C259.561 365.773 258.934 366.633 258.094 367.54L253.974 371.92H261.194V373H252.374ZM269.286 373.16C267.7 373.16 266.493 372.547 265.666 371.32C264.853 370.093 264.446 368.307 264.446 365.96C264.446 363.587 264.853 361.793 265.666 360.58C266.493 359.353 267.7 358.74 269.286 358.74C270.886 358.74 272.093 359.347 272.906 360.56C273.72 361.773 274.126 363.567 274.126 365.94C274.126 368.287 273.713 370.08 272.886 371.32C272.06 372.547 270.86 373.16 269.286 373.16ZM269.286 372.06C270.5 372.06 271.4 371.56 271.986 370.56C272.573 369.56 272.866 368.02 272.866 365.94C272.866 363.833 272.573 362.293 271.986 361.32C271.413 360.333 270.513 359.84 269.286 359.84C268.073 359.84 267.173 360.333 266.586 361.32C266 362.307 265.706 363.847 265.706 365.94C265.706 368.02 266 369.56 266.586 370.56C267.173 371.56 268.073 372.06 269.286 372.06ZM277.959 373V372.08L282.899 366.7C283.605 365.927 284.119 365.213 284.439 364.56C284.772 363.893 284.939 363.213 284.939 362.52C284.939 361.653 284.679 360.993 284.159 360.54C283.639 360.087 282.879 359.86 281.879 359.86C280.385 359.86 279.092 360.42 277.999 361.54L277.479 360.54C277.985 360.007 278.632 359.573 279.419 359.24C280.219 358.907 281.059 358.74 281.939 358.74C283.299 358.74 284.345 359.067 285.079 359.72C285.825 360.36 286.199 361.273 286.199 362.46C286.199 363.3 285.985 364.133 285.559 364.96C285.145 365.773 284.519 366.633 283.679 367.54L279.559 371.92H286.779V373H277.959ZM296.671 373V369.82H289.991V368.88L296.871 358.9H297.911V368.74H300.071V369.82H297.911V373H296.671ZM296.671 368.74V361.04L291.351 368.74H296.671ZM118.651 207.9C118.751 208.9 118.801 209.85 118.801 210.75C118.801 211.65 118.801 212.55 118.801 213.45C118.801 217.35 117.851 221.1 115.951 224.7C114.151 228.2 111.551 231.35 108.151 234.15C104.851 236.85 100.901 239 96.3008 240.6C91.7008 242.2 86.6508 243 81.1508 243C72.9508 243 66.8008 241.15 62.7008 237.45C58.7008 233.75 56.7008 228.95 56.7008 223.05C56.7008 218.25 58.3008 213.3 61.5008 208.2C64.8008 203.1 70.2008 198.45 77.7008 194.25C85.2008 190.05 95.1008 186.6 107.401 183.9C119.701 181.1 134.951 179.7 153.151 179.7C158.751 179.7 163.851 179.85 168.451 180.15C173.051 180.45 177.001 180.6 180.301 180.6C183.201 180.6 185.601 180.45 187.501 180.15C189.501 179.85 191.201 179.7 192.601 179.7C193.801 179.7 194.901 180.1 195.901 180.9C196.901 181.6 197.401 182.65 197.401 184.05C197.401 184.95 197.101 185.7 196.501 186.3C196.001 186.8 195.051 187.15 193.651 187.35C192.251 187.55 190.351 187.7 187.951 187.8C185.651 187.8 182.701 187.8 179.101 187.8C172.101 187.8 166.251 189.05 161.551 191.55C156.951 193.95 152.651 197.65 148.651 202.65C144.651 207.55 140.501 213.75 136.201 221.25C131.901 228.65 126.551 237.3 120.151 247.2C117.951 250.6 115.151 254.45 111.751 258.75C108.451 263.05 104.501 267.1 99.9008 270.9C95.3008 274.7 90.0508 277.9 84.1508 280.5C78.2508 283.1 71.6008 284.4 64.2008 284.4C61.4008 284.4 58.4508 284.05 55.3508 283.35C52.2508 282.75 49.4008 281.75 46.8008 280.35C44.3008 278.85 42.2008 276.9 40.5008 274.5C38.9008 272.1 38.1008 269.15 38.1008 265.65C38.1008 263.45 38.7008 261.6 39.9008 260.1C41.2008 258.5 43.0008 257.7 45.3008 257.7C46.9008 257.7 48.2008 258.25 49.2008 259.35C50.3008 260.35 50.8508 261.65 50.8508 263.25C50.8508 264.75 50.3508 265.95 49.3508 266.85C48.3508 267.75 47.2008 268.2 45.9008 268.2C45.2008 268.2 44.6008 268.1 44.1008 267.9C44.6008 272.7 46.8508 276.35 50.8508 278.85C54.8508 281.35 59.8008 282.6 65.7008 282.6C71.3008 282.6 76.4508 281.35 81.1508 278.85C85.8508 276.35 90.2008 273.05 94.2008 268.95C98.3008 264.85 102.151 260.2 105.751 255C109.351 249.7 112.901 244.25 116.401 238.65C120.001 232.95 123.601 227.35 127.201 221.85C130.801 216.25 134.601 211.15 138.601 206.55C142.601 201.95 146.851 198.05 151.351 194.85C155.951 191.55 161.001 189.4 166.501 188.4V188.1C162.001 188.1 157.101 187.9 151.801 187.5C146.501 187.1 141.601 186.9 137.101 186.9C124.501 186.9 113.301 187.85 103.501 189.75C93.8008 191.55 85.6008 194.1 78.9008 197.4C72.2008 200.6 67.1008 204.4 63.6008 208.8C60.2008 213.2 58.5008 217.95 58.5008 223.05C58.5008 229.05 60.5008 233.6 64.5008 236.7C68.6008 239.7 74.3508 241.2 81.7508 241.2C86.9508 241.2 91.7008 240.45 96.0008 238.95C100.301 237.35 104.001 235.3 107.101 232.8C110.201 230.2 112.601 227.25 114.301 223.95C116.101 220.65 117.001 217.25 117.001 213.75C117.001 212.75 117.001 211.8 117.001 210.9C117.001 209.9 116.951 208.9 116.851 207.9H118.651ZM209.329 244.05C206.929 246.75 204.229 248.9 201.229 250.5C198.229 252.1 195.279 252.9 192.379 252.9C189.579 252.9 187.179 252.3 185.179 251.1C183.179 249.8 181.629 248.3 180.529 246.6H180.229C179.229 250.4 177.379 254.45 174.679 258.75C171.979 263.05 168.729 267 164.929 270.6C161.229 274.2 157.129 277.2 152.629 279.6C148.129 282 143.529 283.2 138.829 283.2C134.529 283.2 131.279 281.95 129.079 279.45C126.879 276.95 125.779 273.6 125.779 269.4C125.779 267.2 126.329 264.65 127.429 261.75C128.529 258.85 130.029 255.95 131.929 253.05C133.929 250.05 136.229 247.15 138.829 244.35C141.529 241.45 144.429 238.9 147.529 236.7C150.629 234.4 153.879 232.6 157.279 231.3C160.779 229.9 164.279 229.2 167.779 229.2C171.879 229.2 175.029 230.4 177.229 232.8C179.529 235.2 180.779 238.3 180.979 242.1C181.179 244.4 182.229 246.55 184.129 248.55C186.129 250.45 188.829 251.4 192.229 251.4C195.229 251.4 198.029 250.65 200.629 249.15C203.329 247.65 205.829 245.7 208.129 243.3L209.329 244.05ZM133.879 273C133.879 275.6 134.379 277.65 135.379 279.15C136.379 280.65 137.879 281.4 139.879 281.4C142.579 281.4 145.229 280.7 147.829 279.3C150.529 277.8 153.079 275.9 155.479 273.6C157.979 271.2 160.279 268.5 162.379 265.5C164.479 262.5 166.279 259.4 167.779 256.2C169.379 253 170.629 249.9 171.529 246.9C172.429 243.8 172.879 241 172.879 238.5C172.879 236.4 172.329 234.65 171.229 233.25C170.229 231.75 168.629 231 166.429 231C164.329 231 162.079 231.7 159.679 233.1C157.279 234.4 154.829 236.15 152.329 238.35C149.929 240.55 147.629 243.1 145.429 246C143.229 248.9 141.229 251.9 139.429 255C137.729 258.1 136.379 261.2 135.379 264.3C134.379 267.4 133.879 270.3 133.879 273ZM223.93 230.4L204.88 258.15L205.18 258.45C206.58 256.75 208.33 254.8 210.43 252.6C212.63 250.3 214.98 248 217.48 245.7C220.08 243.3 222.78 240.95 225.58 238.65C228.38 236.35 231.13 234.3 233.83 232.5C234.33 231.5 234.88 230.7 235.48 230.1C236.08 229.5 237.28 229.2 239.08 229.2C240.18 229.2 241.13 229.25 241.93 229.35C242.83 229.35 243.73 229.4 244.63 229.5C242.93 231.2 241.28 233.3 239.68 235.8C238.08 238.2 237.28 240.85 237.28 243.75C237.28 246.05 237.83 247.85 238.93 249.15C240.13 250.45 241.58 251.1 243.28 251.1C244.78 251.1 246.23 250.8 247.63 250.2C249.13 249.6 250.53 248.85 251.83 247.95C253.13 247.05 254.38 246.1 255.58 245.1C256.78 244.1 257.83 243.2 258.73 242.4L259.63 243C258.63 244 257.48 245.1 256.18 246.3C254.88 247.4 253.48 248.45 251.98 249.45C250.48 250.45 248.88 251.3 247.18 252C245.48 252.6 243.73 252.9 241.93 252.9C238.73 252.9 236.13 251.95 234.13 250.05C232.23 248.05 231.28 245.3 231.28 241.8C231.28 239.4 231.83 237.25 232.93 235.35L232.63 235.05C228.53 237.85 224.03 241.55 219.13 246.15C214.23 250.65 209.03 256 203.53 262.2C201.53 264.4 199.43 267.3 197.23 270.9C195.13 274.5 193.28 278.2 191.68 282H181.93C187.33 273.4 192.73 264.85 198.13 256.35C203.53 247.85 209.08 239.2 214.78 230.4H223.93ZM273.281 230.4L241.631 280.35C246.131 279.65 250.631 278.25 255.131 276.15C259.731 273.95 264.181 271.2 268.481 267.9C272.881 264.5 277.031 260.6 280.931 256.2C284.931 251.8 288.631 247.05 292.031 241.95L293.381 242.55C290.281 247.25 286.781 251.8 282.881 256.2C279.081 260.6 274.981 264.6 270.581 268.2C266.181 271.7 261.431 274.7 256.331 277.2C251.331 279.6 246.081 281.2 240.581 282C237.281 287.3 233.531 292.55 229.331 297.75C225.131 303.05 220.531 307.8 215.531 312C210.431 316.2 204.931 319.6 199.031 322.2C193.031 324.8 186.631 326.1 179.831 326.1C176.631 326.1 173.531 325.75 170.531 325.05C167.531 324.35 164.881 323.25 162.581 321.75C160.281 320.25 158.431 318.4 157.031 316.2C155.631 314 154.931 311.4 154.931 308.4C154.931 306.2 155.431 304.2 156.431 302.4C157.331 300.6 158.581 299.05 160.181 297.75C161.781 296.55 163.581 295.6 165.581 294.9C167.481 294.3 169.431 294 171.431 294C172.231 294 172.981 294.05 173.681 294.15C174.381 294.25 174.981 294.35 175.481 294.45V295.8H174.431C170.331 295.8 167.281 297.05 165.281 299.55C163.181 302.05 162.131 304.8 162.131 307.8C162.131 313.7 163.831 317.9 167.231 320.4C170.631 323 175.131 324.3 180.731 324.3C186.931 324.3 192.781 322.65 198.281 319.35C203.681 316.05 208.731 311.85 213.431 306.75C218.131 301.65 222.531 296.05 226.631 289.95C230.731 283.85 234.531 277.95 238.031 272.25L263.981 230.4H273.281ZM282.581 202.5C283.981 202.5 285.131 203 286.031 204C286.931 204.9 287.381 206.05 287.381 207.45C287.381 208.85 286.931 210.05 286.031 211.05C285.131 211.95 283.981 212.4 282.581 212.4C281.181 212.4 280.031 211.95 279.131 211.05C278.231 210.05 277.781 208.85 277.781 207.45C277.781 206.05 278.231 204.9 279.131 204C280.031 203 281.181 202.5 282.581 202.5ZM308.633 230.4C304.733 235.7 300.983 240.75 297.383 245.55C293.783 250.35 290.583 254.75 287.783 258.75C284.983 262.75 282.733 266.25 281.033 269.25C279.433 272.15 278.633 274.45 278.633 276.15C278.633 277.75 279.033 278.95 279.833 279.75C280.633 280.45 281.683 280.8 282.983 280.8C284.883 280.8 286.933 280.2 289.133 279C291.433 277.8 293.733 276.25 296.033 274.35C298.433 272.45 300.733 270.35 302.933 268.05C305.233 265.75 307.333 263.5 309.233 261.3C311.233 259 312.933 256.9 314.333 255C315.833 253.1 316.933 251.6 317.633 250.5L330.833 230.4H341.183C335.783 237.8 331.183 244.1 327.383 249.3C323.683 254.4 320.633 258.75 318.233 262.35C315.933 265.95 314.283 268.9 313.283 271.2C312.283 273.4 311.783 275.35 311.783 277.05C311.783 278.25 312.133 279.3 312.833 280.2C313.533 281 314.533 281.4 315.833 281.4C317.833 281.4 320.133 280.7 322.733 279.3C325.333 277.8 328.033 275.9 330.833 273.6C333.633 271.2 336.383 268.55 339.083 265.65C341.883 262.65 344.483 259.7 346.883 256.8C349.383 253.9 351.633 251.2 353.633 248.7C355.633 246.1 357.183 244 358.283 242.4L359.783 242.85C358.583 244.55 356.983 246.75 354.983 249.45C352.983 252.05 350.733 254.85 348.233 257.85C345.733 260.75 343.083 263.75 340.283 266.85C337.483 269.85 334.583 272.55 331.583 274.95C328.683 277.35 325.783 279.35 322.883 280.95C320.083 282.45 317.433 283.2 314.933 283.2C312.133 283.2 309.883 282.45 308.183 280.95C306.583 279.35 305.783 277.25 305.783 274.65C305.783 272.65 306.083 270.75 306.683 268.95C307.383 267.05 307.883 265.85 308.183 265.35L307.883 265.05C305.783 267.45 303.583 269.75 301.283 271.95C298.983 274.15 296.683 276.1 294.383 277.8C292.083 279.4 289.733 280.7 287.333 281.7C285.033 282.7 282.733 283.2 280.433 283.2C277.233 283.2 274.933 282.5 273.533 281.1C272.133 279.6 271.433 277.85 271.433 275.85C271.433 273.35 272.133 270.65 273.533 267.75C274.833 264.85 276.683 261.6 279.083 258C281.483 254.4 284.333 250.35 287.633 245.85C291.033 241.35 294.733 236.2 298.733 230.4H308.633ZM409.333 243.3C406.333 248.1 402.833 252.9 398.833 257.7C394.933 262.4 390.633 266.65 385.933 270.45C381.233 274.25 376.083 277.35 370.483 279.75C364.983 282.05 359.083 283.2 352.783 283.2C350.383 283.2 348.133 282.9 346.033 282.3C343.933 281.7 342.083 280.8 340.483 279.6C338.983 278.4 337.783 276.9 336.883 275.1C335.883 273.2 335.383 271 335.383 268.5C335.383 265.9 336.233 263.55 337.933 261.45C339.633 259.35 341.933 258.3 344.833 258.3C346.333 258.3 347.533 258.7 348.433 259.5C349.433 260.2 349.933 261.3 349.933 262.8C349.933 264.2 349.583 265.4 348.883 266.4C348.183 267.4 347.133 267.9 345.733 267.9C344.633 267.9 343.733 267.6 343.033 267C342.433 266.4 342.033 265.65 341.833 264.75C340.733 265.35 339.983 266.25 339.583 267.45C339.183 268.55 338.983 269.7 338.983 270.9C338.983 274.4 340.283 277.05 342.883 278.85C345.583 280.55 348.583 281.4 351.883 281.4C353.983 281.4 355.783 281 357.283 280.2C358.883 279.3 360.183 278.2 361.183 276.9C362.283 275.5 363.083 273.9 363.583 272.1C364.083 270.3 364.333 268.5 364.333 266.7C364.333 264.8 363.983 262.85 363.283 260.85C362.683 258.75 361.983 256.7 361.183 254.7C360.383 252.7 359.633 250.75 358.933 248.85C358.233 246.85 357.883 245 357.883 243.3C357.883 241.1 358.333 239.15 359.233 237.45C360.133 235.65 361.333 234.15 362.833 232.95C364.433 231.75 366.233 230.85 368.233 230.25C370.233 229.55 372.333 229.2 374.533 229.2C378.533 229.2 381.783 230.1 384.283 231.9C386.783 233.6 388.033 235.9 388.033 238.8C388.033 241.4 387.033 243.3 385.033 244.5C383.133 245.7 380.983 246.3 378.583 246.3C379.183 245.2 379.683 243.9 380.083 242.4C380.583 240.8 380.833 239.35 380.833 238.05C380.833 236.05 380.183 234.4 378.883 233.1C377.683 231.7 375.933 231 373.633 231C370.733 231 368.583 231.9 367.183 233.7C365.783 235.4 365.083 237.5 365.083 240C365.083 242.2 365.433 244.3 366.133 246.3C366.933 248.3 367.833 250.3 368.833 252.3C369.733 254.3 370.533 256.35 371.233 258.45C372.033 260.55 372.433 262.9 372.433 265.5C372.433 267.4 371.983 269.25 371.083 271.05C370.283 272.75 369.183 274.35 367.783 275.85C366.383 277.25 364.783 278.45 362.983 279.45C361.283 280.45 359.533 281.1 357.733 281.4L358.033 281.7C363.433 281.1 368.583 279.55 373.483 277.05C378.383 274.45 382.933 271.35 387.133 267.75C391.433 264.05 395.383 260.05 398.983 255.75C402.583 251.35 405.733 247.05 408.433 242.85L409.333 243.3ZM226.488 163.375C225.48 163.375 224.555 163.233 223.713 162.95C222.872 162.658 222.163 162.208 221.588 161.6C221.155 161.133 220.83 160.608 220.613 160.025C220.397 159.433 220.276 158.812 220.251 158.162C220.242 157.546 220.33 156.933 220.513 156.325C220.697 155.708 220.992 155.158 221.401 154.675C221.667 154.342 221.972 154.067 222.313 153.85C222.655 153.633 223.005 153.45 223.363 153.3C222.697 152.617 222.188 151.992 221.838 151.425C221.488 150.858 221.313 150.158 221.313 149.325C221.313 148.433 221.53 147.617 221.963 146.875C222.405 146.125 223.017 145.567 223.801 145.2C224.226 144.992 224.663 144.846 225.113 144.762C225.563 144.679 226.009 144.637 226.451 144.637C227.092 144.637 227.726 144.721 228.351 144.887C228.976 145.054 229.513 145.317 229.963 145.675C230.263 145.9 230.53 146.167 230.763 146.475C231.005 146.783 231.197 147.104 231.338 147.437L229.963 147.925C229.763 147.45 229.442 147.054 229.001 146.737C228.659 146.487 228.272 146.308 227.838 146.2C227.405 146.092 226.967 146.037 226.526 146.037C225.759 146.037 225.055 146.192 224.413 146.5C223.888 146.767 223.488 147.142 223.213 147.625C222.947 148.1 222.813 148.654 222.813 149.287C222.813 149.829 222.897 150.279 223.063 150.637C223.238 150.987 223.505 151.375 223.863 151.8C224.055 152.008 224.263 152.217 224.488 152.425C224.722 152.625 224.955 152.833 225.188 153.05L231.263 158.712C231.305 158.462 231.334 158.221 231.351 157.987C231.367 157.754 231.376 157.521 231.376 157.287L231.351 154.512H232.776V157.1C232.776 157.833 232.747 158.408 232.688 158.825C232.638 159.242 232.572 159.583 232.488 159.85L234.826 162.025L233.863 163.062L231.801 161.112C231.567 161.454 231.255 161.775 230.863 162.075C230.48 162.367 230.097 162.6 229.713 162.775C229.23 163.008 228.709 163.167 228.151 163.25C227.601 163.333 227.047 163.375 226.488 163.375ZM226.463 161.962C227.013 161.962 227.505 161.929 227.938 161.862C228.38 161.787 228.797 161.642 229.188 161.425C229.672 161.142 230.022 160.887 230.238 160.662C230.455 160.429 230.622 160.229 230.738 160.062L224.526 154.387C224.142 154.504 223.776 154.667 223.426 154.875C223.084 155.075 222.788 155.321 222.538 155.612C222.263 155.946 222.063 156.329 221.938 156.762C221.813 157.196 221.755 157.646 221.763 158.112C221.772 158.587 221.851 159.037 222.001 159.462C222.151 159.879 222.372 160.25 222.663 160.575C223.088 161.05 223.647 161.4 224.338 161.625C225.038 161.85 225.747 161.962 226.463 161.962Z" stroke="#DBDBD7"/>
</g>
<defs>
<filter id="filter0_d_159_49" x="0.550781" y="0.626709" width="457.027" height="381.046" filterUnits="userSpaceOnUse" color-interpolation-filters="sRGB">
<feFlood flood-opacity="0" result="BackgroundImageFix"/>
<feColorMatrix in="SourceAlpha" type="matrix" values="0 0 0 0 0 0 0 0 0 0 0 0 0 0 0 0 0 0 127 0" result="hardAlpha"/>
<feOffset dy="4"/>
<feGaussianBlur stdDeviation="2"/>
<feComposite in2="hardAlpha" operator="out"/>
<feColorMatrix type="matrix" values="0 0 0 0 0 0 0 0 0 0 0 0 0 0 0 0 0 0 0.15 0"/>
<feBlend mode="normal" in2="BackgroundImageFix" result="effect1_dropShadow_159_49"/>
<feBlend mode="normal" in="SourceGraphic" in2="effect1_dropShadow_159_49" result="shape"/>
</filter>
</defs>
</svg>
