<svg width="456" height="381" viewBox="0 0 456 381" fill="none" xmlns="http://www.w3.org/2000/svg">
<g filter="url(#filter0_d_159_49)">
<path d="M80.5508 60.3499C75.6508 66.5499 70.6008 72.55 65.4008 78.35C60.2008 84.05 54.9508 89.15 49.6508 93.65C44.4508 98.05 39.2508 101.6 34.0508 104.3C28.8508 106.9 23.8508 108.2 19.0508 108.2C15.7508 108.2 13.1008 107.8 11.1008 107C9.20078 106.3 7.70078 105.45 6.60078 104.45C5.60078 103.35 4.90078 102.25 4.50078 101.15C4.20078 99.95 4.05078 98.9 4.05078 98C4.05078 96.3 4.55078 94.85 5.55078 93.65C6.55078 92.45 7.95078 91.85 9.75078 91.85C11.3508 91.85 12.6008 92.4 13.5008 93.5C14.4008 94.6 14.8508 95.9 14.8508 97.4C14.8508 98.3 14.6008 99.2 14.1008 100.1C13.6008 101 12.9008 101.55 12.0008 101.75C12.9008 103.15 14.1508 104.1 15.7508 104.6C17.3508 105 19.0008 105.2 20.7008 105.2C25.0008 105.2 29.5008 103.95 34.2008 101.45C39.0008 98.95 43.8008 95.7 48.6008 91.7C53.5008 87.6 58.3508 83 63.1508 77.9C67.9508 72.7 72.5508 67.4 76.9508 62C78.8508 59.6 81.2008 56.65 84.0008 53.1499C86.9008 49.6499 90.1508 45.8499 93.7508 41.7499C97.3508 37.6499 101.251 33.5 105.451 29.3C109.751 24.9999 114.301 20.9499 119.101 17.1499C123.901 13.3499 128.901 9.94995 134.101 6.94994C139.301 3.94995 144.601 1.69995 150.001 0.199951L150.451 0.799952C147.051 3.89995 143.501 7.74995 139.801 12.3499C136.101 16.9499 132.451 21.9499 128.851 27.35C125.351 32.65 122.001 38.2499 118.801 44.1499C115.601 50.0499 112.751 55.95 110.251 61.8499C107.851 67.65 105.901 73.2499 104.401 78.6499C103.001 84.0499 102.301 89 102.301 93.5C102.301 96.6 102.801 99.25 103.801 101.45C104.901 103.55 107.051 104.6 110.251 104.6C112.151 104.6 114.301 103.9 116.701 102.5C119.201 101.1 121.801 99.25 124.501 96.95C127.201 94.65 129.851 92.1 132.451 89.2999C135.151 86.4999 137.701 83.7499 140.101 81.0499C142.501 78.2499 144.651 75.65 146.551 73.25C148.451 70.75 149.951 68.75 151.051 67.25L152.101 67.7C148.701 72 145.101 76.55 141.301 81.35C137.501 86.15 133.651 90.5499 129.751 94.5499C125.851 98.4499 121.901 101.7 117.901 104.3C114.001 106.9 110.251 108.2 106.651 108.2C104.251 108.2 102.201 107.8 100.501 107C98.9008 106.1 97.5508 104.9 96.4508 103.4C95.3508 101.9 94.5508 100.2 94.0508 98.2999C93.5508 96.3999 93.3008 94.3999 93.3008 92.2999C93.3008 86.5999 94.1008 81.15 95.7008 75.95C97.3008 70.65 99.1008 65.4499 101.101 60.3499H80.5508ZM101.851 58.5499C106.351 49.25 111.651 40.15 117.751 31.25C123.951 22.3499 131.251 13.8999 139.651 5.89995L139.351 5.59994C134.051 8.19995 128.851 11.3999 123.751 15.1999C118.751 19 113.851 23.2 109.051 27.8C104.251 32.4 99.5508 37.2999 94.9508 42.5C90.4508 47.6999 86.0508 53.0499 81.7508 58.5499H101.851Z" fill="#F9F7F5"/>
<path d="M165.651 55.4L145.851 82.85L146.151 83.1499C148.251 80.6499 150.701 77.75 153.501 74.45C156.301 71.05 159.301 67.85 162.501 64.85C165.701 61.85 169.001 59.3499 172.401 57.3499C175.901 55.2499 179.351 54.1999 182.751 54.1999C185.751 54.1999 188.051 55.0499 189.651 56.75C191.351 58.35 192.201 60.45 192.201 63.0499C192.201 64.6499 191.601 66.5499 190.401 68.7499C189.301 70.9499 187.901 73.2999 186.201 75.7999C184.501 78.2999 182.651 80.85 180.651 83.45C178.651 86.05 176.801 88.55 175.101 90.95C173.401 93.25 171.951 95.4 170.751 97.4C169.651 99.3 169.101 100.9 169.101 102.2C169.101 105 170.501 106.4 173.301 106.4C176.501 106.4 179.901 105.35 183.501 103.25C187.101 101.05 191.401 97.4 196.401 92.2999C198.401 90.2999 200.401 88.1 202.401 85.7C204.501 83.3 206.501 80.9499 208.401 78.6499C210.301 76.2499 212.001 73.9999 213.501 71.8999C215.101 69.7999 216.351 68.0499 217.251 66.6499L218.301 67.25C216.301 70.25 213.701 73.8499 210.501 78.0499C207.401 82.1499 204.001 86.2 200.301 90.2C198.101 92.6 195.851 94.9 193.551 97.1C191.251 99.3 188.951 101.25 186.651 102.95C184.351 104.55 182.051 105.85 179.751 106.85C177.551 107.75 175.351 108.2 173.151 108.2C170.251 108.2 167.851 107.4 165.951 105.8C164.051 104.2 163.101 102 163.101 99.2C163.101 96.2 164.301 92.95 166.701 89.45C169.101 85.85 171.751 82.2499 174.651 78.6499C177.551 75.0499 180.201 71.6 182.601 68.2999C185.001 65 186.201 62.1 186.201 59.6C186.201 58.4 185.801 57.4999 185.001 56.8999C184.201 56.2999 183.151 56 181.851 56C179.351 56 176.551 56.95 173.451 58.85C170.351 60.65 167.151 63.1 163.851 66.2C160.651 69.2 157.401 72.5999 154.101 76.3999C150.901 80.0999 147.901 83.8499 145.101 87.6499C142.301 91.3499 139.801 94.95 137.601 98.45C135.401 101.85 133.751 104.7 132.651 107H123.351C125.951 102.6 128.751 98.15 131.751 93.65C134.651 89.05 137.551 84.55 140.451 80.15C143.351 75.65 146.101 71.35 148.701 67.25C151.401 63.05 153.801 59.2499 155.901 55.8499L165.651 55.4Z" fill="#F9F7F5"/>
<path d="M300.852 3.19995C296.952 9.39995 292.702 15.9499 288.102 22.8499C283.502 29.7499 278.902 36.5999 274.302 43.3999C269.702 50.1999 265.252 56.7999 260.952 63.1999C256.752 69.4999 253.002 75.3 249.702 80.6C246.402 85.9 243.752 90.5 241.752 94.4C239.852 98.2 238.902 101 238.902 102.8C238.902 103.9 239.152 104.8 239.652 105.5C240.252 106.1 241.102 106.4 242.202 106.4C244.702 106.4 247.552 105.4 250.752 103.4C253.952 101.4 257.802 98.25 262.302 93.95C266.202 90.15 270.002 85.95 273.702 81.35C277.402 76.65 280.602 72.0499 283.302 67.5499L284.502 68.15C283.602 69.75 282.402 71.65 280.902 73.85C279.502 75.95 277.902 78.15 276.102 80.45C274.402 82.7499 272.552 85.1 270.552 87.5C268.552 89.8 266.502 92 264.402 94.1C260.402 98.2 256.452 101.6 252.552 104.3C248.652 106.9 245.052 108.2 241.752 108.2C238.552 108.2 236.152 107.55 234.552 106.25C233.052 104.85 232.302 103.1 232.302 101C232.302 99.1 232.702 97.25 233.502 95.45C234.302 93.65 235.102 92.05 235.902 90.65L235.602 90.5C234.002 92.3 232.202 94.25 230.202 96.35C228.302 98.35 226.252 100.25 224.052 102.05C221.852 103.85 219.502 105.35 217.002 106.55C214.602 107.65 212.102 108.2 209.502 108.2C205.902 108.2 203.102 107.1 201.102 104.9C199.202 102.7 198.252 100.1 198.252 97.1C198.252 92.9 199.702 88.3 202.602 83.2999C205.502 78.3 209.102 73.65 213.402 69.35C217.802 65.05 222.502 61.45 227.502 58.5499C232.502 55.6499 237.152 54.1999 241.452 54.1999C244.652 54.1999 247.202 55.2 249.102 57.2C251.002 59.2 251.902 61.75 251.802 64.85H252.252L290.952 3.19995H300.852ZM247.602 65C247.602 62.6 247.202 60.4999 246.402 58.6999C245.602 56.8999 243.752 56 240.852 56C238.852 56 236.602 56.7 234.102 58.1C231.702 59.5 229.252 61.35 226.752 63.65C224.252 65.95 221.802 68.6 219.402 71.6C217.102 74.5 215.052 77.5 213.252 80.6C211.452 83.6 210.002 86.55 208.902 89.45C207.802 92.35 207.252 94.95 207.252 97.25C207.252 99.35 207.652 101.1 208.452 102.5C209.252 103.9 210.702 104.6 212.802 104.6C214.602 104.6 216.652 103.9 218.952 102.5C221.352 101.1 223.852 99.3 226.452 97.1C229.052 94.8 231.602 92.2 234.102 89.2999C236.602 86.4 238.852 83.5 240.852 80.6C242.852 77.7 244.452 74.9 245.652 72.2C246.952 69.4 247.602 67 247.602 65Z" fill="#F9F7F5"/>
<path d="M299.252 55.4L280.202 83.1499L280.502 83.45C281.902 81.75 283.652 79.8 285.752 77.6C287.952 75.3 290.302 73 292.802 70.7C295.402 68.3 298.102 65.95 300.902 63.65C303.702 61.35 306.452 59.3 309.152 57.5C309.652 56.5 310.202 55.7 310.802 55.0999C311.402 54.4999 312.602 54.1999 314.402 54.1999C315.502 54.1999 316.452 54.25 317.252 54.35C318.152 54.35 319.052 54.4 319.952 54.5C318.252 56.2 316.602 58.3 315.002 60.7999C313.402 63.2 312.602 65.8499 312.602 68.7499C312.602 71.0499 313.152 72.8499 314.252 74.1499C315.452 75.4499 316.902 76.1 318.602 76.1C320.102 76.1 321.552 75.8 322.952 75.2C324.452 74.6 325.852 73.85 327.152 72.95C328.452 72.05 329.702 71.1 330.902 70.1C332.102 69.1 333.152 68.2 334.052 67.4L334.952 67.9999C333.952 68.9999 332.802 70.1 331.502 71.2999C330.202 72.3999 328.802 73.45 327.302 74.45C325.802 75.45 324.202 76.3 322.502 77C320.802 77.6 319.052 77.9 317.252 77.9C314.052 77.9 311.452 76.95 309.452 75.0499C307.552 73.05 306.602 70.2999 306.602 66.7999C306.602 64.3999 307.152 62.2499 308.252 60.3499L307.952 60.0499C303.852 62.8499 299.352 66.5499 294.452 71.1499C289.552 75.6499 284.352 81 278.852 87.2C276.852 89.4 274.752 92.3 272.552 95.9C270.452 99.5 268.602 103.2 267.002 107H257.252C262.652 98.4 268.052 89.85 273.452 81.35C278.852 72.85 284.402 64.2 290.102 55.4H299.252Z" fill="#F9F7F5"/>
<path d="M360.903 60.2C360.903 58.8 360.503 57.75 359.703 57.05C359.003 56.35 358.103 56 357.003 56C354.903 56 352.603 56.85 350.103 58.5499C347.703 60.1499 345.303 62.2 342.903 64.7C340.503 67.1 338.303 69.7 336.303 72.5C334.403 75.3 332.953 77.8 331.953 80C334.153 79.6 336.903 78.85 340.203 77.75C343.503 76.55 346.653 75.1 349.653 73.4C352.753 71.7 355.403 69.7499 357.603 67.5499C359.803 65.2499 360.903 62.8 360.903 60.2ZM385.203 68.15C383.703 70.65 381.803 73.3999 379.503 76.3999C377.303 79.3999 374.753 82.3999 371.853 85.3999C369.053 88.2999 366.003 91.15 362.703 93.95C359.503 96.65 356.153 99.0999 352.653 101.3C349.153 103.4 345.603 105.1 342.003 106.4C338.503 107.6 335.053 108.2 331.653 108.2C327.453 108.2 324.203 107.15 321.903 105.05C319.603 102.85 318.453 99.75 318.453 95.75C318.453 91.35 319.753 86.75 322.353 81.95C325.053 77.05 328.453 72.55 332.553 68.45C336.653 64.35 341.153 60.95 346.053 58.25C350.953 55.5499 355.653 54.1999 360.153 54.1999C362.653 54.1999 364.603 54.7499 366.003 55.8499C367.403 56.8499 368.103 58.3499 368.103 60.3499C368.103 62.75 366.803 65.1 364.203 67.4C361.603 69.6 358.403 71.6499 354.603 73.5499C350.903 75.3499 346.903 77 342.603 78.5C338.303 79.9 334.503 80.9499 331.203 81.6499C330.103 83.6499 329.203 85.9 328.503 88.4C327.803 90.9 327.453 93.4 327.453 95.9C327.453 97.1 327.553 98.3 327.753 99.5C328.053 100.6 328.453 101.65 328.953 102.65C329.553 103.55 330.303 104.3 331.203 104.9C332.203 105.5 333.403 105.8 334.803 105.8C338.103 105.8 341.953 104.75 346.353 102.65C350.853 100.45 355.403 97.55 360.003 93.95C364.603 90.35 369.003 86.2499 373.203 81.6499C377.403 77.0499 381.003 72.3 384.003 67.4L385.203 68.15Z" fill="#F9F7F5"/>
<path d="M423.904 55.4H433.654C429.954 60.6 426.404 65.6499 423.004 70.5499C419.604 75.45 416.554 80 413.854 84.2C411.254 88.3 409.154 91.95 407.554 95.15C405.954 98.25 405.154 100.7 405.154 102.5C405.154 105.1 406.504 106.4 409.204 106.4C411.304 106.4 413.954 105.4 417.154 103.4C420.454 101.3 424.004 98.45 427.804 94.85C431.604 91.25 435.504 87.05 439.504 82.25C443.504 77.45 447.304 72.35 450.904 66.95L451.804 67.25C449.104 71.35 445.904 75.8 442.204 80.6C438.604 85.3 434.804 89.6999 430.804 93.7999C426.804 97.9 422.804 101.35 418.804 104.15C414.804 106.85 411.054 108.2 407.554 108.2C404.654 108.2 402.504 107.5 401.104 106.1C399.804 104.6 399.154 102.85 399.154 100.85C399.154 99.45 399.354 98.0999 399.754 96.7999C400.254 95.3999 400.754 94 401.254 92.6L400.954 92.45C399.654 93.85 398.004 95.5 396.004 97.4C394.104 99.2 392.004 100.9 389.704 102.5C387.504 104.1 385.204 105.45 382.804 106.55C380.404 107.65 378.104 108.2 375.904 108.2C372.204 108.2 369.604 107.05 368.104 104.75C366.604 102.45 365.854 99.85 365.854 96.95C365.854 92.85 367.154 88.35 369.754 83.45C372.354 78.45 375.654 73.8 379.654 69.5C383.654 65.1 388.004 61.45 392.704 58.5499C397.404 55.6499 401.854 54.1999 406.054 54.1999C408.054 54.1999 409.804 54.4999 411.304 55.0999C412.804 55.5999 414.054 56.3499 415.054 57.3499C416.054 58.2499 416.804 59.3 417.304 60.5C417.904 61.7 418.354 62.9499 418.654 64.2499H418.954L423.904 55.4ZM374.854 97.4C374.854 99.7 375.304 101.5 376.204 102.8C377.204 104 378.554 104.6 380.254 104.6C381.954 104.6 383.954 104 386.254 102.8C388.554 101.5 390.954 99.8 393.454 97.7C395.954 95.6 398.404 93.2 400.804 90.5C403.304 87.7 405.504 84.7499 407.404 81.6499C409.304 78.5499 410.854 75.4 412.054 72.2C413.254 69 413.854 65.95 413.854 63.0499C413.854 60.7499 413.204 59 411.904 57.8C410.604 56.6 409.004 56 407.104 56C404.104 56 400.754 57.3 397.054 59.9C393.354 62.5 389.854 65.85 386.554 69.95C383.254 73.95 380.454 78.3999 378.154 83.2999C375.954 88.1999 374.854 92.9 374.854 97.4Z" fill="#F9F7F5"/>
<path d="M159.019 372V371.08L163.959 365.7C164.665 364.927 165.179 364.213 165.499 363.56C165.832 362.893 165.999 362.213 165.999 361.52C165.999 360.653 165.739 359.993 165.219 359.54C164.699 359.087 163.939 358.86 162.939 358.86C161.445 358.86 160.152 359.42 159.059 360.54L158.539 359.54C159.045 359.007 159.692 358.573 160.479 358.24C161.279 357.907 162.119 357.74 162.999 357.74C164.359 357.74 165.405 358.067 166.139 358.72C166.885 359.36 167.259 360.273 167.259 361.46C167.259 362.3 167.045 363.133 166.619 363.96C166.205 364.773 165.579 365.633 164.739 366.54L160.619 370.92H167.839V372H159.019Z" fill="#F9F7F5"/>
<path d="M171.811 372V371.08L176.751 365.7C177.458 364.927 177.971 364.213 178.291 363.56C178.624 362.893 178.791 362.213 178.791 361.52C178.791 360.653 178.531 359.993 178.011 359.54C177.491 359.087 176.731 358.86 175.731 358.86C174.238 358.86 172.944 359.42 171.851 360.54L171.331 359.54C171.838 359.007 172.484 358.573 173.271 358.24C174.071 357.907 174.911 357.74 175.791 357.74C177.151 357.74 178.198 358.067 178.931 358.72C179.678 359.36 180.051 360.273 180.051 361.46C180.051 362.3 179.838 363.133 179.411 363.96C178.998 364.773 178.371 365.633 177.531 366.54L173.411 370.92H180.631V372H171.811Z" fill="#F9F7F5"/>
<path d="M194.262 372.14L194.162 371.06L195.282 370.98C195.989 370.927 196.535 370.667 196.922 370.2C197.309 369.733 197.502 369.113 197.502 368.34V357.9H198.742V368.36C198.742 369.467 198.455 370.34 197.882 370.98C197.309 371.62 196.482 371.98 195.402 372.06L194.262 372.14Z" fill="#F9F7F5"/>
<path d="M208.594 372.16C206.794 372.16 205.427 371.68 204.494 370.72C203.56 369.747 203.094 368.34 203.094 366.5V357.9H204.314V366.4C204.314 369.493 205.74 371.04 208.594 371.04C211.447 371.04 212.874 369.493 212.874 366.4V357.9H214.094V366.5C214.094 368.34 213.627 369.747 212.694 370.72C211.76 371.68 210.394 372.16 208.594 372.16Z" fill="#F9F7F5"/>
<path d="M218.466 372V357.9H219.446L228.366 369.92V357.9H229.506V372H228.546L219.606 359.96V372H218.466Z" fill="#F9F7F5"/>
<path d="M233.993 372V357.9H235.213V372H233.993Z" fill="#F9F7F5"/>
<path d="M251.374 372V371.08L256.314 365.7C257.021 364.927 257.534 364.213 257.854 363.56C258.187 362.893 258.354 362.213 258.354 361.52C258.354 360.653 258.094 359.993 257.574 359.54C257.054 359.087 256.294 358.86 255.294 358.86C253.801 358.86 252.507 359.42 251.414 360.54L250.894 359.54C251.401 359.007 252.047 358.573 252.834 358.24C253.634 357.907 254.474 357.74 255.354 357.74C256.714 357.74 257.761 358.067 258.494 358.72C259.241 359.36 259.614 360.273 259.614 361.46C259.614 362.3 259.401 363.133 258.974 363.96C258.561 364.773 257.934 365.633 257.094 366.54L252.974 370.92H260.194V372H251.374Z" fill="#F9F7F5"/>
<path d="M268.286 372.16C266.7 372.16 265.493 371.547 264.666 370.32C263.853 369.093 263.446 367.307 263.446 364.96C263.446 362.587 263.853 360.793 264.666 359.58C265.493 358.353 266.7 357.74 268.286 357.74C269.886 357.74 271.093 358.347 271.906 359.56C272.72 360.773 273.126 362.567 273.126 364.94C273.126 367.287 272.713 369.08 271.886 370.32C271.06 371.547 269.86 372.16 268.286 372.16ZM268.286 371.06C269.5 371.06 270.4 370.56 270.986 369.56C271.573 368.56 271.866 367.02 271.866 364.94C271.866 362.833 271.573 361.293 270.986 360.32C270.413 359.333 269.513 358.84 268.286 358.84C267.073 358.84 266.173 359.333 265.586 360.32C265 361.307 264.706 362.847 264.706 364.94C264.706 367.02 265 368.56 265.586 369.56C266.173 370.56 267.073 371.06 268.286 371.06Z" fill="#F9F7F5"/>
<path d="M276.959 372V371.08L281.899 365.7C282.605 364.927 283.119 364.213 283.439 363.56C283.772 362.893 283.939 362.213 283.939 361.52C283.939 360.653 283.679 359.993 283.159 359.54C282.639 359.087 281.879 358.86 280.879 358.86C279.385 358.86 278.092 359.42 276.999 360.54L276.479 359.54C276.985 359.007 277.632 358.573 278.419 358.24C279.219 357.907 280.059 357.74 280.939 357.74C282.299 357.74 283.345 358.067 284.079 358.72C284.825 359.36 285.199 360.273 285.199 361.46C285.199 362.3 284.985 363.133 284.559 363.96C284.145 364.773 283.519 365.633 282.679 366.54L278.559 370.92H285.779V372H276.959Z" fill="#F9F7F5"/>
<path d="M295.671 372V368.82H288.991V367.88L295.871 357.9H296.911V367.74H299.071V368.82H296.911V372H295.671ZM295.671 367.74V360.04L290.351 367.74H295.671Z" fill="#F9F7F5"/>
<path d="M117.651 206.9C117.751 207.9 117.801 208.85 117.801 209.75C117.801 210.65 117.801 211.55 117.801 212.45C117.801 216.35 116.851 220.1 114.951 223.7C113.151 227.2 110.551 230.35 107.151 233.15C103.851 235.85 99.9008 238 95.3008 239.6C90.7008 241.2 85.6508 242 80.1508 242C71.9508 242 65.8008 240.15 61.7008 236.45C57.7008 232.75 55.7008 227.95 55.7008 222.05C55.7008 217.25 57.3008 212.3 60.5008 207.2C63.8008 202.1 69.2008 197.45 76.7008 193.25C84.2008 189.05 94.1008 185.6 106.401 182.9C118.701 180.1 133.951 178.7 152.151 178.7C157.751 178.7 162.851 178.85 167.451 179.15C172.051 179.45 176.001 179.6 179.301 179.6C182.201 179.6 184.601 179.45 186.501 179.15C188.501 178.85 190.201 178.7 191.601 178.7C192.801 178.7 193.901 179.1 194.901 179.9C195.901 180.6 196.401 181.65 196.401 183.05C196.401 183.95 196.101 184.7 195.501 185.3C195.001 185.8 194.051 186.15 192.651 186.35C191.251 186.55 189.351 186.7 186.951 186.8C184.651 186.8 181.701 186.8 178.101 186.8C171.101 186.8 165.251 188.05 160.551 190.55C155.951 192.95 151.651 196.65 147.651 201.65C143.651 206.55 139.501 212.75 135.201 220.25C130.901 227.65 125.551 236.3 119.151 246.2C116.951 249.6 114.151 253.45 110.751 257.75C107.451 262.05 103.501 266.1 98.9008 269.9C94.3008 273.7 89.0508 276.9 83.1508 279.5C77.2508 282.1 70.6008 283.4 63.2008 283.4C60.4008 283.4 57.4508 283.05 54.3508 282.35C51.2508 281.75 48.4008 280.75 45.8008 279.35C43.3008 277.85 41.2008 275.9 39.5008 273.5C37.9008 271.1 37.1008 268.15 37.1008 264.65C37.1008 262.45 37.7008 260.6 38.9008 259.1C40.2008 257.5 42.0008 256.7 44.3008 256.7C45.9008 256.7 47.2008 257.25 48.2008 258.35C49.3008 259.35 49.8508 260.65 49.8508 262.25C49.8508 263.75 49.3508 264.95 48.3508 265.85C47.3508 266.75 46.2008 267.2 44.9008 267.2C44.2008 267.2 43.6008 267.1 43.1008 266.9C43.6008 271.7 45.8508 275.35 49.8508 277.85C53.8508 280.35 58.8008 281.6 64.7008 281.6C70.3008 281.6 75.4508 280.35 80.1508 277.85C84.8508 275.35 89.2008 272.05 93.2008 267.95C97.3008 263.85 101.151 259.2 104.751 254C108.351 248.7 111.901 243.25 115.401 237.65C119.001 231.95 122.601 226.35 126.201 220.85C129.801 215.25 133.601 210.15 137.601 205.55C141.601 200.95 145.851 197.05 150.351 193.85C154.951 190.55 160.001 188.4 165.501 187.4V187.1C161.001 187.1 156.101 186.9 150.801 186.5C145.501 186.1 140.601 185.9 136.101 185.9C123.501 185.9 112.301 186.85 102.501 188.75C92.8008 190.55 84.6008 193.1 77.9008 196.4C71.2008 199.6 66.1008 203.4 62.6008 207.8C59.2008 212.2 57.5008 216.95 57.5008 222.05C57.5008 228.05 59.5008 232.6 63.5008 235.7C67.6008 238.7 73.3508 240.2 80.7508 240.2C85.9508 240.2 90.7008 239.45 95.0008 237.95C99.3008 236.35 103.001 234.3 106.101 231.8C109.201 229.2 111.601 226.25 113.301 222.95C115.101 219.65 116.001 216.25 116.001 212.75C116.001 211.75 116.001 210.8 116.001 209.9C116.001 208.9 115.951 207.9 115.851 206.9H117.651Z" fill="#F9F7F5"/>
<path d="M208.329 243.05C205.929 245.75 203.229 247.9 200.229 249.5C197.229 251.1 194.279 251.9 191.379 251.9C188.579 251.9 186.179 251.3 184.179 250.1C182.179 248.8 180.629 247.3 179.529 245.6H179.229C178.229 249.4 176.379 253.45 173.679 257.75C170.979 262.05 167.729 266 163.929 269.6C160.229 273.2 156.129 276.2 151.629 278.6C147.129 281 142.529 282.2 137.829 282.2C133.529 282.2 130.279 280.95 128.079 278.45C125.879 275.95 124.779 272.6 124.779 268.4C124.779 266.2 125.329 263.65 126.429 260.75C127.529 257.85 129.029 254.95 130.929 252.05C132.929 249.05 135.229 246.15 137.829 243.35C140.529 240.45 143.429 237.9 146.529 235.7C149.629 233.4 152.879 231.6 156.279 230.3C159.779 228.9 163.279 228.2 166.779 228.2C170.879 228.2 174.029 229.4 176.229 231.8C178.529 234.2 179.779 237.3 179.979 241.1C180.179 243.4 181.229 245.55 183.129 247.55C185.129 249.45 187.829 250.4 191.229 250.4C194.229 250.4 197.029 249.65 199.629 248.15C202.329 246.65 204.829 244.7 207.129 242.3L208.329 243.05ZM132.879 272C132.879 274.6 133.379 276.65 134.379 278.15C135.379 279.65 136.879 280.4 138.879 280.4C141.579 280.4 144.229 279.7 146.829 278.3C149.529 276.8 152.079 274.9 154.479 272.6C156.979 270.2 159.279 267.5 161.379 264.5C163.479 261.5 165.279 258.4 166.779 255.2C168.379 252 169.629 248.9 170.529 245.9C171.429 242.8 171.879 240 171.879 237.5C171.879 235.4 171.329 233.65 170.229 232.25C169.229 230.75 167.629 230 165.429 230C163.329 230 161.079 230.7 158.679 232.1C156.279 233.4 153.829 235.15 151.329 237.35C148.929 239.55 146.629 242.1 144.429 245C142.229 247.9 140.229 250.9 138.429 254C136.729 257.1 135.379 260.2 134.379 263.3C133.379 266.4 132.879 269.3 132.879 272Z" fill="#F9F7F5"/>
<path d="M222.93 229.4L203.88 257.15L204.18 257.45C205.58 255.75 207.33 253.8 209.43 251.6C211.63 249.3 213.98 247 216.48 244.7C219.08 242.3 221.78 239.95 224.58 237.65C227.38 235.35 230.13 233.3 232.83 231.5C233.33 230.5 233.88 229.7 234.48 229.1C235.08 228.5 236.28 228.2 238.08 228.2C239.18 228.2 240.13 228.25 240.93 228.35C241.83 228.35 242.73 228.4 243.63 228.5C241.93 230.2 240.28 232.3 238.68 234.8C237.08 237.2 236.28 239.85 236.28 242.75C236.28 245.05 236.83 246.85 237.93 248.15C239.13 249.45 240.58 250.1 242.28 250.1C243.78 250.1 245.23 249.8 246.63 249.2C248.13 248.6 249.53 247.85 250.83 246.95C252.13 246.05 253.38 245.1 254.58 244.1C255.78 243.1 256.83 242.2 257.73 241.4L258.63 242C257.63 243 256.48 244.1 255.18 245.3C253.88 246.4 252.48 247.45 250.98 248.45C249.48 249.45 247.88 250.3 246.18 251C244.48 251.6 242.73 251.9 240.93 251.9C237.73 251.9 235.13 250.95 233.13 249.05C231.23 247.05 230.28 244.3 230.28 240.8C230.28 238.4 230.83 236.25 231.93 234.35L231.63 234.05C227.53 236.85 223.03 240.55 218.13 245.15C213.23 249.65 208.03 255 202.53 261.2C200.53 263.4 198.43 266.3 196.23 269.9C194.13 273.5 192.28 277.2 190.68 281H180.93C186.33 272.4 191.73 263.85 197.13 255.35C202.53 246.85 208.08 238.2 213.78 229.4H222.93Z" fill="#F9F7F5"/>
<path d="M272.281 229.4L240.631 279.35C245.131 278.65 249.631 277.25 254.131 275.15C258.731 272.95 263.181 270.2 267.481 266.9C271.881 263.5 276.031 259.6 279.931 255.2C283.931 250.8 287.631 246.05 291.031 240.95L292.381 241.55C289.281 246.25 285.781 250.8 281.881 255.2C278.081 259.6 273.981 263.6 269.581 267.2C265.181 270.7 260.431 273.7 255.331 276.2C250.331 278.6 245.081 280.2 239.581 281C236.281 286.3 232.531 291.55 228.331 296.75C224.131 302.05 219.531 306.8 214.531 311C209.431 315.2 203.931 318.6 198.031 321.2C192.031 323.8 185.631 325.1 178.831 325.1C175.631 325.1 172.531 324.75 169.531 324.05C166.531 323.35 163.881 322.25 161.581 320.75C159.281 319.25 157.431 317.4 156.031 315.2C154.631 313 153.931 310.4 153.931 307.4C153.931 305.2 154.431 303.2 155.431 301.4C156.331 299.6 157.581 298.05 159.181 296.75C160.781 295.55 162.581 294.6 164.581 293.9C166.481 293.3 168.431 293 170.431 293C171.231 293 171.981 293.05 172.681 293.15C173.381 293.25 173.981 293.35 174.481 293.45V294.8H173.431C169.331 294.8 166.281 296.05 164.281 298.55C162.181 301.05 161.131 303.8 161.131 306.8C161.131 312.7 162.831 316.9 166.231 319.4C169.631 322 174.131 323.3 179.731 323.3C185.931 323.3 191.781 321.65 197.281 318.35C202.681 315.05 207.731 310.85 212.431 305.75C217.131 300.65 221.531 295.05 225.631 288.95C229.731 282.85 233.531 276.95 237.031 271.25L262.981 229.4H272.281ZM281.581 201.5C282.981 201.5 284.131 202 285.031 203C285.931 203.9 286.381 205.05 286.381 206.45C286.381 207.85 285.931 209.05 285.031 210.05C284.131 210.95 282.981 211.4 281.581 211.4C280.181 211.4 279.031 210.95 278.131 210.05C277.231 209.05 276.781 207.85 276.781 206.45C276.781 205.05 277.231 203.9 278.131 203C279.031 202 280.181 201.5 281.581 201.5Z" fill="#F9F7F5"/>
<path d="M307.633 229.4C303.733 234.7 299.983 239.75 296.383 244.55C292.783 249.35 289.583 253.75 286.783 257.75C283.983 261.75 281.733 265.25 280.033 268.25C278.433 271.15 277.633 273.45 277.633 275.15C277.633 276.75 278.033 277.95 278.833 278.75C279.633 279.45 280.683 279.8 281.983 279.8C283.883 279.8 285.933 279.2 288.133 278C290.433 276.8 292.733 275.25 295.033 273.35C297.433 271.45 299.733 269.35 301.933 267.05C304.233 264.75 306.333 262.5 308.233 260.3C310.233 258 311.933 255.9 313.333 254C314.833 252.1 315.933 250.6 316.633 249.5L329.833 229.4H340.183C334.783 236.8 330.183 243.1 326.383 248.3C322.683 253.4 319.633 257.75 317.233 261.35C314.933 264.95 313.283 267.9 312.283 270.2C311.283 272.4 310.783 274.35 310.783 276.05C310.783 277.25 311.133 278.3 311.833 279.2C312.533 280 313.533 280.4 314.833 280.4C316.833 280.4 319.133 279.7 321.733 278.3C324.333 276.8 327.033 274.9 329.833 272.6C332.633 270.2 335.383 267.55 338.083 264.65C340.883 261.65 343.483 258.7 345.883 255.8C348.383 252.9 350.633 250.2 352.633 247.7C354.633 245.1 356.183 243 357.283 241.4L358.783 241.85C357.583 243.55 355.983 245.75 353.983 248.45C351.983 251.05 349.733 253.85 347.233 256.85C344.733 259.75 342.083 262.75 339.283 265.85C336.483 268.85 333.583 271.55 330.583 273.95C327.683 276.35 324.783 278.35 321.883 279.95C319.083 281.45 316.433 282.2 313.933 282.2C311.133 282.2 308.883 281.45 307.183 279.95C305.583 278.35 304.783 276.25 304.783 273.65C304.783 271.65 305.083 269.75 305.683 267.95C306.383 266.05 306.883 264.85 307.183 264.35L306.883 264.05C304.783 266.45 302.583 268.75 300.283 270.95C297.983 273.15 295.683 275.1 293.383 276.8C291.083 278.4 288.733 279.7 286.333 280.7C284.033 281.7 281.733 282.2 279.433 282.2C276.233 282.2 273.933 281.5 272.533 280.1C271.133 278.6 270.433 276.85 270.433 274.85C270.433 272.35 271.133 269.65 272.533 266.75C273.833 263.85 275.683 260.6 278.083 257C280.483 253.4 283.333 249.35 286.633 244.85C290.033 240.35 293.733 235.2 297.733 229.4H307.633Z" fill="#F9F7F5"/>
<path d="M408.333 242.3C405.333 247.1 401.833 251.9 397.833 256.7C393.933 261.4 389.633 265.65 384.933 269.45C380.233 273.25 375.083 276.35 369.483 278.75C363.983 281.05 358.083 282.2 351.783 282.2C349.383 282.2 347.133 281.9 345.033 281.3C342.933 280.7 341.083 279.8 339.483 278.6C337.983 277.4 336.783 275.9 335.883 274.1C334.883 272.2 334.383 270 334.383 267.5C334.383 264.9 335.233 262.55 336.933 260.45C338.633 258.35 340.933 257.3 343.833 257.3C345.333 257.3 346.533 257.7 347.433 258.5C348.433 259.2 348.933 260.3 348.933 261.8C348.933 263.2 348.583 264.4 347.883 265.4C347.183 266.4 346.133 266.9 344.733 266.9C343.633 266.9 342.733 266.6 342.033 266C341.433 265.4 341.033 264.65 340.833 263.75C339.733 264.35 338.983 265.25 338.583 266.45C338.183 267.55 337.983 268.7 337.983 269.9C337.983 273.4 339.283 276.05 341.883 277.85C344.583 279.55 347.583 280.4 350.883 280.4C352.983 280.4 354.783 280 356.283 279.2C357.883 278.3 359.183 277.2 360.183 275.9C361.283 274.5 362.083 272.9 362.583 271.1C363.083 269.3 363.333 267.5 363.333 265.7C363.333 263.8 362.983 261.85 362.283 259.85C361.683 257.75 360.983 255.7 360.183 253.7C359.383 251.7 358.633 249.75 357.933 247.85C357.233 245.85 356.883 244 356.883 242.3C356.883 240.1 357.333 238.15 358.233 236.45C359.133 234.65 360.333 233.15 361.833 231.95C363.433 230.75 365.233 229.85 367.233 229.25C369.233 228.55 371.333 228.2 373.533 228.2C377.533 228.2 380.783 229.1 383.283 230.9C385.783 232.6 387.033 234.9 387.033 237.8C387.033 240.4 386.033 242.3 384.033 243.5C382.133 244.7 379.983 245.3 377.583 245.3C378.183 244.2 378.683 242.9 379.083 241.4C379.583 239.8 379.833 238.35 379.833 237.05C379.833 235.05 379.183 233.4 377.883 232.1C376.683 230.7 374.933 230 372.633 230C369.733 230 367.583 230.9 366.183 232.7C364.783 234.4 364.083 236.5 364.083 239C364.083 241.2 364.433 243.3 365.133 245.3C365.933 247.3 366.833 249.3 367.833 251.3C368.733 253.3 369.533 255.35 370.233 257.45C371.033 259.55 371.433 261.9 371.433 264.5C371.433 266.4 370.983 268.25 370.083 270.05C369.283 271.75 368.183 273.35 366.783 274.85C365.383 276.25 363.783 277.45 361.983 278.45C360.283 279.45 358.533 280.1 356.733 280.4L357.033 280.7C362.433 280.1 367.583 278.55 372.483 276.05C377.383 273.45 381.933 270.35 386.133 266.75C390.433 263.05 394.383 259.05 397.983 254.75C401.583 250.35 404.733 246.05 407.433 241.85L408.333 242.3Z" fill="#F9F7F5"/>
<path d="M225.488 162.375C224.48 162.375 223.555 162.233 222.713 161.95C221.872 161.658 221.163 161.208 220.588 160.6C220.155 160.133 219.83 159.608 219.613 159.025C219.397 158.433 219.276 157.812 219.251 157.162C219.242 156.546 219.33 155.933 219.513 155.325C219.697 154.708 219.992 154.158 220.401 153.675C220.667 153.342 220.972 153.067 221.313 152.85C221.655 152.633 222.005 152.45 222.363 152.3C221.697 151.617 221.188 150.992 220.838 150.425C220.488 149.858 220.313 149.158 220.313 148.325C220.313 147.433 220.53 146.617 220.963 145.875C221.405 145.125 222.017 144.567 222.801 144.2C223.226 143.992 223.663 143.846 224.113 143.762C224.563 143.679 225.009 143.637 225.451 143.637C226.092 143.637 226.726 143.721 227.351 143.887C227.976 144.054 228.513 144.317 228.963 144.675C229.263 144.9 229.53 145.167 229.763 145.475C230.005 145.783 230.197 146.104 230.338 146.437L228.963 146.925C228.763 146.45 228.442 146.054 228.001 145.737C227.659 145.487 227.272 145.308 226.838 145.2C226.405 145.092 225.967 145.037 225.526 145.037C224.759 145.037 224.055 145.192 223.413 145.5C222.888 145.767 222.488 146.142 222.213 146.625C221.947 147.1 221.813 147.654 221.813 148.287C221.813 148.829 221.897 149.279 222.063 149.637C222.238 149.987 222.505 150.375 222.863 150.8C223.055 151.008 223.263 151.217 223.488 151.425C223.722 151.625 223.955 151.833 224.188 152.05L230.263 157.712C230.305 157.462 230.334 157.221 230.351 156.987C230.367 156.754 230.376 156.521 230.376 156.287L230.351 153.512H231.776V156.1C231.776 156.833 231.747 157.408 231.688 157.825C231.638 158.242 231.572 158.583 231.488 158.85L233.826 161.025L232.863 162.062L230.801 160.112C230.567 160.454 230.255 160.775 229.863 161.075C229.48 161.367 229.097 161.6 228.713 161.775C228.23 162.008 227.709 162.167 227.151 162.25C226.601 162.333 226.047 162.375 225.488 162.375ZM225.463 160.962C226.013 160.962 226.505 160.929 226.938 160.862C227.38 160.787 227.797 160.642 228.188 160.425C228.672 160.142 229.022 159.887 229.238 159.662C229.455 159.429 229.622 159.229 229.738 159.062L223.526 153.387C223.142 153.504 222.776 153.667 222.426 153.875C222.084 154.075 221.788 154.321 221.538 154.612C221.263 154.946 221.063 155.329 220.938 155.762C220.813 156.196 220.755 156.646 220.763 157.112C220.772 157.587 220.851 158.037 221.001 158.462C221.151 158.879 221.372 159.25 221.663 159.575C222.088 160.05 222.647 160.4 223.338 160.625C224.038 160.85 224.747 160.962 225.463 160.962Z" fill="#F9F7F5"/>
</g>
<defs>
<filter id="filter0_d_159_49" x="0.0507812" y="0.199951" width="455.754" height="379.96" filterUnits="userSpaceOnUse" color-interpolation-filters="sRGB">
<feFlood flood-opacity="0" result="BackgroundImageFix"/>
<feColorMatrix in="SourceAlpha" type="matrix" values="0 0 0 0 0 0 0 0 0 0 0 0 0 0 0 0 0 0 127 0" result="hardAlpha"/>
<feOffset dy="4"/>
<feGaussianBlur stdDeviation="2"/>
<feComposite in2="hardAlpha" operator="out"/>
<feColorMatrix type="matrix" values="0 0 0 0 0.333333 0 0 0 0 0.309804 0 0 0 0 0.247059 0 0 0 0.15 0"/>
<feBlend mode="normal" in2="BackgroundImageFix" result="effect1_dropShadow_159_49"/>
<feBlend mode="normal" in="SourceGraphic" in2="effect1_dropShadow_159_49" result="shape"/>
</filter>
</defs>
</svg>
