<svg width="1515" height="797" viewBox="0 0 1515 797" fill="none" xmlns="http://www.w3.org/2000/svg">
<path d="M0 0H1515V797H0V0Z" fill="#F9F7F5"/>
<path d="M356.573 420.776V411.569L392.369 372.956C397.419 367.412 401.033 362.363 403.211 357.808C405.489 353.254 406.627 348.601 406.627 343.849C406.627 331.671 399.548 325.582 385.388 325.582C374.793 325.582 365.435 329.542 357.316 337.463L352.711 327.958C356.573 323.998 361.475 320.83 367.416 318.453C373.456 315.978 379.793 314.741 386.427 314.741C396.924 314.741 404.944 317.216 410.489 322.166C416.133 327.018 418.955 333.948 418.955 342.958C418.955 349.195 417.421 355.333 414.351 361.373C411.281 367.313 406.578 373.649 400.241 380.382L372.169 410.381H423.263V420.776H356.573Z" fill="#4E4138"/>
<path d="M451.574 420.776V411.569L487.369 372.956C492.419 367.412 496.034 362.363 498.212 357.808C500.49 353.254 501.628 348.601 501.628 343.849C501.628 331.671 494.548 325.582 480.389 325.582C469.793 325.582 460.436 329.542 452.317 337.463L447.712 327.958C451.574 323.998 456.475 320.83 462.417 318.453C468.457 315.978 474.794 314.741 481.428 314.741C491.924 314.741 499.945 317.216 505.49 322.166C511.134 327.018 513.956 333.948 513.956 342.958C513.956 349.195 512.421 355.333 509.352 361.373C506.282 367.313 501.579 373.649 495.242 380.382L467.169 410.381H518.264V420.776H451.574Z" fill="#4E4138"/>
<path d="M542.564 420.776V405.628H557.714V420.776H542.564Z" fill="#4E4138"/>
<path d="M617.503 422.113C605.522 422.113 596.412 417.509 590.174 408.302C583.936 399.094 580.816 385.778 580.816 368.353C580.816 350.828 583.936 337.512 590.174 328.404C596.412 319.295 605.522 314.741 617.503 314.741C629.584 314.741 638.693 319.295 644.833 328.404C651.071 337.413 654.19 350.68 654.19 368.204C654.19 385.728 651.021 399.094 644.684 408.302C638.446 417.509 629.386 422.113 617.503 422.113ZM617.503 411.569C625.821 411.569 631.96 408.054 635.921 401.025C639.981 393.995 642.011 383.055 642.011 368.204C642.011 353.353 640.03 342.512 636.069 335.681C632.109 328.75 625.92 325.285 617.503 325.285C609.186 325.285 602.997 328.75 598.937 335.681C594.976 342.611 592.996 353.452 592.996 368.204C592.996 383.055 594.976 393.995 598.937 401.025C602.997 408.054 609.186 411.569 617.503 411.569Z" fill="#4E4138"/>
<path d="M716.069 422.113C703.691 422.113 694.136 417.658 687.403 408.747C680.768 399.738 677.451 387.164 677.451 371.026C677.451 352.908 681.164 338.997 688.591 329.295C696.017 319.592 706.414 314.741 719.782 314.741C725.129 314.741 730.476 315.879 735.823 318.156C741.269 320.434 745.725 323.503 749.191 327.364L744.735 336.869C741.071 333.106 737.061 330.285 732.704 328.404C728.446 326.522 724.04 325.582 719.485 325.582C709.781 325.582 702.305 329.196 697.057 336.423C691.908 343.651 689.333 354.393 689.333 368.65V375.927C691.215 369.392 694.681 364.293 699.731 360.63C704.88 356.967 710.92 355.135 717.851 355.135C723.99 355.135 729.436 356.571 734.189 359.442C738.942 362.214 742.656 366.075 745.329 371.026C748.003 375.976 749.339 381.669 749.339 388.104C749.339 394.738 747.904 400.629 745.032 405.777C742.259 410.826 738.348 414.836 733.298 417.806C728.347 420.677 722.604 422.113 716.069 422.113ZM715.326 411.717C721.96 411.717 727.308 409.589 731.367 405.331C735.526 401.074 737.606 395.48 737.606 388.55C737.606 381.718 735.526 376.174 731.367 371.917C727.308 367.561 721.96 365.382 715.326 365.382C708.692 365.382 703.295 367.561 699.136 371.917C695.077 376.174 693.047 381.718 693.047 388.55C693.047 395.48 695.077 401.074 699.136 405.331C703.295 409.589 708.692 411.717 715.326 411.717Z" fill="#4E4138"/>
<path d="M772.303 420.776V405.628H787.453V420.776H772.303Z" fill="#4E4138"/>
<path d="M816.051 420.776V411.569L851.847 372.956C856.897 367.412 860.511 362.363 862.689 357.808C864.967 353.254 866.106 348.601 866.106 343.849C866.106 331.671 859.026 325.582 844.866 325.582C834.271 325.582 824.913 329.542 816.794 337.463L812.189 327.958C816.051 323.998 820.953 320.83 826.894 318.453C832.934 315.978 839.271 314.741 845.906 314.741C856.402 314.741 864.422 317.216 869.967 322.166C875.611 327.018 878.433 333.948 878.433 342.958C878.433 349.195 876.899 355.333 873.829 361.373C870.759 367.313 866.056 373.649 859.719 380.382L831.647 410.381H882.741V420.776H816.051Z" fill="#4E4138"/>
<path d="M942.243 422.113C930.262 422.113 921.152 417.509 914.914 408.302C908.675 399.094 905.556 385.778 905.556 368.353C905.556 350.828 908.675 337.512 914.914 328.404C921.152 319.295 930.262 314.741 942.243 314.741C954.323 314.741 963.433 319.295 969.573 328.404C975.811 337.413 978.93 350.68 978.93 368.204C978.93 385.728 975.761 399.094 969.424 408.302C963.186 417.509 954.125 422.113 942.243 422.113ZM942.243 411.569C950.561 411.569 956.7 408.054 960.661 401.025C964.721 393.995 966.75 383.055 966.75 368.204C966.75 353.353 964.77 342.512 960.809 335.681C956.848 328.75 950.66 325.285 942.243 325.285C933.925 325.285 927.737 328.75 923.677 335.681C919.716 342.611 917.736 353.452 917.736 368.204C917.736 383.055 919.716 393.995 923.677 401.025C927.737 408.054 933.925 411.569 942.243 411.569Z" fill="#4E4138"/>
<path d="M1006.05 420.776V411.569L1041.85 372.956C1046.9 367.412 1050.51 362.363 1052.69 357.808C1054.97 353.254 1056.11 348.601 1056.11 343.849C1056.11 331.671 1049.03 325.582 1034.87 325.582C1024.27 325.582 1014.92 329.542 1006.8 337.463L1002.19 327.958C1006.05 323.998 1010.95 320.83 1016.9 318.453C1022.94 315.978 1029.27 314.741 1035.91 314.741C1046.4 314.741 1054.42 317.216 1059.97 322.166C1065.61 327.018 1068.44 333.948 1068.44 342.958C1068.44 349.195 1066.9 355.333 1063.83 361.373C1060.76 367.313 1056.06 373.649 1049.72 380.382L1021.65 410.381H1072.74V420.776H1006.05Z" fill="#4E4138"/>
<path d="M1143.68 420.776V398.352H1095.41V389.144L1145.76 316.077H1156.01V387.956H1171.6V398.352H1156.01V420.776H1143.68ZM1143.68 387.956V336.126L1108.03 387.956H1143.68Z" fill="#4E4138"/>
<path d="M490.118 217.814V182.914H500.862C506.341 182.914 510.549 184.399 513.487 187.369C516.457 190.306 517.943 194.63 517.943 200.339C517.943 206.015 516.457 210.355 513.487 213.358C510.549 216.329 506.341 217.814 500.862 217.814H490.118ZM492.198 215.883H500.664C510.698 215.883 515.715 210.702 515.715 200.339C515.715 190.009 510.698 184.845 500.664 184.845H492.198V215.883Z" fill="#4E4138"/>
<path d="M535.796 218.21C532.958 218.21 530.829 217.434 529.41 215.883C528.023 214.332 527.33 212.055 527.33 209.052V193.854H529.41V208.854C529.41 211.362 529.921 213.226 530.944 214.447C531.968 215.669 533.585 216.279 535.796 216.279C538.206 216.279 540.153 215.487 541.639 213.903C543.157 212.286 543.916 210.174 543.916 207.567V193.854H545.995V217.814H543.966V213.358C543.206 214.942 542.101 216.147 540.648 216.972C539.196 217.797 537.579 218.21 535.796 218.21Z" fill="#4E4138"/>
<path d="M580.505 218.21C576.94 218.21 574.118 217.121 572.038 214.942C569.992 212.731 568.969 209.728 568.969 205.933C568.969 203.425 569.431 201.247 570.355 199.399C571.312 197.517 572.616 196.065 574.266 195.042C575.95 193.986 577.881 193.458 580.059 193.458C583.162 193.458 585.571 194.481 587.287 196.527C589.004 198.54 589.862 201.346 589.862 204.943V206.23H571.098C571.164 209.431 572.005 211.906 573.623 213.655C575.24 215.405 577.501 216.279 580.406 216.279C581.891 216.279 583.277 216.048 584.564 215.586C585.885 215.091 587.188 214.282 588.476 213.16L589.466 214.843C588.443 215.867 587.122 216.692 585.505 217.319C583.888 217.913 582.221 218.21 580.505 218.21ZM580.009 195.339C577.336 195.339 575.24 196.197 573.722 197.913C572.236 199.63 571.378 201.791 571.147 204.398H587.931C587.832 201.593 587.122 199.382 585.802 197.765C584.482 196.148 582.551 195.339 580.009 195.339Z" fill="#4E4138"/>
<path d="M598.449 217.814V193.854H600.479V198.21C601.205 196.692 602.228 195.554 603.548 194.795C604.902 194.003 606.618 193.524 608.697 193.359L609.737 193.26L609.985 195.141L608.301 195.339C605.859 195.57 603.944 196.395 602.558 197.814C601.205 199.233 600.528 201.115 600.528 203.458V217.814H598.449Z" fill="#4E4138"/>
<path d="M630.246 187.171V184.053H633.415V187.171H630.246ZM630.791 217.814V193.854H632.87V217.814H630.791Z" fill="#4E4138"/>
<path d="M643.263 217.814V193.854H645.293V198.309C646.085 196.692 647.224 195.488 648.709 194.696C650.227 193.871 651.911 193.458 653.759 193.458C659.469 193.458 662.324 196.494 662.324 202.567V217.814H660.245V202.765C660.245 200.224 659.733 198.359 658.71 197.171C657.687 195.983 656.036 195.389 653.759 195.389C651.217 195.389 649.171 196.181 647.62 197.765C646.101 199.316 645.342 201.412 645.342 204.052V217.814H643.263Z" fill="#4E4138"/>
<path d="M679.447 217.814L669.248 193.854H671.625L680.635 215.636L689.696 193.854H692.023L681.824 217.814H679.447Z" fill="#4E4138"/>
<path d="M698.751 187.171V184.053H701.92V187.171H698.751ZM699.296 217.814V193.854H701.375V217.814H699.296Z" fill="#4E4138"/>
<path d="M720.185 218.21C717.676 218.21 715.795 217.5 714.541 216.081C713.287 214.662 712.659 212.665 712.659 210.091V195.636H707.857V193.854H712.659V186.379H714.739V193.854H722.611V195.636H714.739V209.646C714.739 211.791 715.168 213.441 716.026 214.596C716.884 215.718 718.32 216.279 720.333 216.279C720.928 216.279 721.489 216.213 722.017 216.081C722.578 215.916 723.04 215.768 723.403 215.636L723.898 217.368C723.601 217.566 723.073 217.748 722.314 217.913C721.555 218.111 720.845 218.21 720.185 218.21Z" fill="#4E4138"/>
<path d="M739.317 218.21C735.752 218.21 732.93 217.121 730.851 214.942C728.804 212.731 727.781 209.728 727.781 205.933C727.781 203.425 728.243 201.247 729.167 199.399C730.125 197.517 731.428 196.065 733.079 195.042C734.762 193.986 736.693 193.458 738.871 193.458C741.974 193.458 744.383 194.481 746.1 196.527C747.816 198.54 748.674 201.346 748.674 204.943V206.23H729.91C729.976 209.431 730.818 211.906 732.435 213.655C734.052 215.405 736.313 216.279 739.218 216.279C740.703 216.279 742.089 216.048 743.377 215.586C744.697 215.091 746.001 214.282 747.288 213.16L748.278 214.843C747.255 215.867 745.935 216.692 744.317 217.319C742.7 217.913 741.033 218.21 739.317 218.21ZM738.822 195.339C736.148 195.339 734.052 196.197 732.534 197.913C731.049 199.63 730.191 201.791 729.96 204.398H746.743C746.644 201.593 745.935 199.382 744.614 197.765C743.294 196.148 741.363 195.339 738.822 195.339Z" fill="#4E4138"/>
<path d="M757.261 217.814V193.854H759.291V198.21C760.017 196.692 761.04 195.554 762.361 194.795C763.714 194.003 765.43 193.524 767.51 193.359L768.549 193.26L768.797 195.141L767.114 195.339C764.671 195.57 762.757 196.395 761.37 197.814C760.017 199.233 759.34 201.115 759.34 203.458V217.814H757.261Z" fill="#4E4138"/>
<path d="M785.112 218.21C782.604 218.21 780.722 217.5 779.468 216.081C778.214 214.662 777.587 212.665 777.587 210.091V195.636H772.784V193.854H777.587V186.379H779.666V193.854H787.538V195.636H779.666V209.646C779.666 211.791 780.095 213.441 780.954 214.596C781.812 215.718 783.247 216.279 785.261 216.279C785.855 216.279 786.416 216.213 786.944 216.081C787.505 215.916 787.967 215.768 788.33 215.636L788.826 217.368C788.528 217.566 788 217.748 787.241 217.913C786.482 218.111 785.772 218.21 785.112 218.21Z" fill="#4E4138"/>
<path d="M817.116 218.21C814.607 218.21 812.726 217.5 811.472 216.081C810.217 214.662 809.59 212.665 809.59 210.091V195.636H804.788V193.854H809.59V186.379H811.67V193.854H819.542V195.636H811.67V209.646C811.67 211.791 812.099 213.441 812.957 214.596C813.815 215.718 815.251 216.279 817.264 216.279C817.858 216.279 818.42 216.213 818.948 216.081C819.509 215.916 819.971 215.768 820.334 215.636L820.829 217.368C820.532 217.566 820.004 217.748 819.245 217.913C818.486 218.111 817.776 218.21 817.116 218.21Z" fill="#4E4138"/>
<path d="M825.993 187.171V184.053H829.162V187.171H825.993ZM826.538 217.814V193.854H828.618V217.814H826.538Z" fill="#4E4138"/>
<path d="M845.546 218.21C843.466 218.21 841.849 217.55 840.694 216.23C839.571 214.876 839.01 212.995 839.01 210.586V182.914H841.09V210.24C841.09 214.266 842.641 216.279 845.744 216.279C846.569 216.279 847.344 216.18 848.071 215.982L847.922 217.913C847.031 218.111 846.239 218.21 845.546 218.21Z" fill="#4E4138"/>
<path d="M879.434 218.21C877.421 218.21 875.672 217.764 874.186 216.873C872.701 215.949 871.595 214.695 870.869 213.111V217.814H868.79V182.914H870.869V198.557C871.595 196.973 872.701 195.735 874.186 194.844C875.672 193.92 877.421 193.458 879.434 193.458C882.702 193.458 885.293 194.58 887.207 196.824C889.122 199.035 890.079 202.039 890.079 205.834C890.079 208.342 889.633 210.537 888.742 212.418C887.884 214.266 886.663 215.702 885.078 216.725C883.494 217.715 881.613 218.21 879.434 218.21ZM879.385 216.279C882.025 216.279 884.105 215.372 885.623 213.556C887.174 211.708 887.95 209.134 887.95 205.834C887.95 202.534 887.174 199.976 885.623 198.161C884.105 196.313 882.025 195.389 879.385 195.389C876.777 195.389 874.698 196.313 873.147 198.161C871.595 199.976 870.82 202.534 870.82 205.834C870.82 209.134 871.595 211.708 873.147 213.556C874.698 215.372 876.777 216.279 879.385 216.279Z" fill="#4E4138"/>
<path d="M898.909 217.814V193.854H900.939V198.21C901.665 196.692 902.689 195.554 904.009 194.795C905.362 194.003 907.079 193.524 909.158 193.359L910.198 193.26L910.445 195.141L908.762 195.339C906.319 195.57 904.405 196.395 903.019 197.814C901.665 199.233 900.989 201.115 900.989 203.458V217.814H898.909Z" fill="#4E4138"/>
<path d="M921.903 226.724L925.715 217.962L915.467 193.854H917.843L926.854 215.636L935.914 193.854H938.291L924.23 226.724H921.903Z" fill="#4E4138"/>
<path d="M952.05 218.21C949.97 218.21 948.353 217.55 947.198 216.23C946.076 214.876 945.514 212.995 945.514 210.586V182.914H947.594V210.24C947.594 214.266 949.145 216.279 952.248 216.279C953.073 216.279 953.849 216.18 954.575 215.982L954.426 217.913C953.535 218.111 952.743 218.21 952.05 218.21Z" fill="#4E4138"/>
<path d="M967.665 218.21C965.585 218.21 963.968 217.55 962.813 216.23C961.69 214.876 961.129 212.995 961.129 210.586V182.914H963.209V210.24C963.209 214.266 964.76 216.279 967.863 216.279C968.688 216.279 969.463 216.18 970.19 215.982L970.041 217.913C969.15 218.111 968.358 218.21 967.665 218.21Z" fill="#4E4138"/>
<path d="M985.111 218.21C982.273 218.21 980.144 217.434 978.725 215.883C977.338 214.332 976.645 212.055 976.645 209.052V193.854H978.725V208.854C978.725 211.362 979.236 213.226 980.259 214.447C981.283 215.669 982.9 216.279 985.111 216.279C987.521 216.279 989.468 215.487 990.954 213.903C992.472 212.286 993.231 210.174 993.231 207.567V193.854H995.31V217.814H993.281V213.358C992.521 214.942 991.416 216.147 989.963 216.972C988.511 217.797 986.894 218.21 985.111 218.21Z" fill="#4E4138"/>
<path d="M1005.7 226.724V193.854H1007.78V198.557C1008.51 196.973 1009.61 195.735 1011.1 194.844C1012.59 193.92 1014.33 193.458 1016.35 193.458C1018.53 193.458 1020.41 193.97 1021.99 194.993C1023.58 195.983 1024.8 197.402 1025.66 199.25C1026.55 201.098 1026.99 203.293 1026.99 205.834C1026.99 209.629 1026.04 212.649 1024.12 214.893C1022.21 217.104 1019.62 218.21 1016.35 218.21C1014.33 218.21 1012.59 217.764 1011.1 216.873C1009.61 215.949 1008.51 214.695 1007.78 213.111V226.724H1005.7ZM1016.3 216.279C1018.94 216.279 1021.02 215.372 1022.54 213.556C1024.09 211.708 1024.86 209.134 1024.86 205.834C1024.86 202.534 1024.09 199.976 1022.54 198.161C1021.02 196.313 1018.94 195.389 1016.3 195.389C1013.69 195.389 1011.61 196.313 1010.06 198.161C1008.51 199.976 1007.73 202.534 1007.73 205.834C1007.73 209.134 1008.51 211.708 1010.06 213.556C1011.61 215.372 1013.69 216.279 1016.3 216.279Z" fill="#4E4138"/>
<path d="M494.801 563.246C491.566 567.339 488.233 571.299 484.8 575.127C481.367 578.889 477.902 582.256 474.403 585.226C470.97 588.13 467.538 590.473 464.105 592.255C460.672 593.971 457.372 594.829 454.203 594.829C452.024 594.829 450.275 594.565 448.955 594.037C447.701 593.575 446.71 593.014 445.984 592.354C445.324 591.628 444.862 590.902 444.598 590.176C444.4 589.384 444.301 588.691 444.301 588.097C444.301 586.975 444.631 586.018 445.291 585.226C445.951 584.434 446.875 584.038 448.064 584.038C449.12 584.038 449.945 584.401 450.539 585.127C451.133 585.853 451.43 586.711 451.43 587.701C451.43 588.295 451.265 588.889 450.935 589.483C450.605 590.077 450.143 590.44 449.549 590.572C450.143 591.496 450.968 592.123 452.025 592.453C453.081 592.717 454.17 592.849 455.292 592.849C458.131 592.849 461.101 592.024 464.204 590.374C467.373 588.724 470.541 586.579 473.71 583.939C476.944 581.232 480.146 578.196 483.315 574.83C486.483 571.398 489.52 567.9 492.424 564.335C493.679 562.751 495.23 560.804 497.078 558.494C498.993 556.184 501.138 553.676 503.515 550.97C505.891 548.263 508.466 545.524 511.238 542.752C514.077 539.914 517.08 537.241 520.249 534.733C523.418 532.224 526.718 529.98 530.151 528C533.584 526.02 537.082 524.535 540.647 523.545L540.944 523.941C538.7 525.987 536.356 528.528 533.914 531.564C531.471 534.601 529.062 537.901 526.685 541.465C524.375 544.963 522.163 548.659 520.051 552.554C517.939 556.448 516.057 560.342 514.407 564.236C512.823 568.065 511.535 571.761 510.545 575.325C509.621 578.889 509.159 582.157 509.159 585.127C509.159 587.173 509.489 588.922 510.149 590.374C510.875 591.76 512.294 592.453 514.407 592.453C515.661 592.453 517.08 591.991 518.665 591.067C520.315 590.143 522.031 588.922 523.814 587.404C525.596 585.886 527.345 584.203 529.062 582.355C530.844 580.506 532.527 578.691 534.112 576.909C535.696 575.061 537.115 573.345 538.37 571.761C539.624 570.111 540.614 568.791 541.34 567.801L542.033 568.098C539.789 570.936 537.412 573.939 534.904 577.107C532.395 580.275 529.854 583.18 527.279 585.82C524.705 588.394 522.097 590.539 519.457 592.255C516.882 593.971 514.407 594.829 512.03 594.829C510.446 594.829 509.093 594.565 507.971 594.037C506.914 593.443 506.023 592.651 505.297 591.661C504.571 590.671 504.043 589.549 503.713 588.295C503.383 587.041 503.218 585.721 503.218 584.335C503.218 580.572 503.746 576.975 504.802 573.543C505.858 570.045 507.046 566.613 508.367 563.246H494.801ZM508.862 562.058C511.832 555.92 515.331 549.914 519.358 544.039C523.451 538.165 528.27 532.587 533.815 527.307L533.617 527.109C530.118 528.825 526.685 530.937 523.319 533.445C520.018 535.954 516.783 538.726 513.615 541.762C510.446 544.798 507.343 548.032 504.307 551.465C501.336 554.897 498.432 558.428 495.593 562.058H508.862Z" fill="#4E4138"/>
<path d="M550.978 559.979L537.908 578.097L538.106 578.295C539.492 576.645 541.109 574.731 542.958 572.553C544.806 570.309 546.787 568.197 548.899 566.217C551.011 564.236 553.19 562.586 555.434 561.266C557.745 559.88 560.022 559.187 562.267 559.187C564.247 559.187 565.765 559.748 566.821 560.87C567.944 561.926 568.505 563.312 568.505 565.028C568.505 566.085 568.109 567.339 567.317 568.791C566.59 570.243 565.666 571.794 564.544 573.444C563.422 575.094 562.201 576.777 560.88 578.493C559.56 580.209 558.339 581.86 557.217 583.444C556.094 584.962 555.137 586.381 554.345 587.701C553.619 588.955 553.256 590.011 553.256 590.869C553.256 592.717 554.18 593.641 556.028 593.641C558.141 593.641 560.385 592.948 562.762 591.562C565.138 590.11 567.977 587.701 571.277 584.335C572.598 583.015 573.918 581.563 575.238 579.978C576.624 578.394 577.945 576.843 579.199 575.325C580.453 573.741 581.575 572.256 582.566 570.87C583.622 569.484 584.447 568.329 585.041 567.405L585.734 567.801C584.414 569.781 582.698 572.157 580.585 574.929C578.539 577.635 576.294 580.308 573.852 582.949C572.4 584.533 570.914 586.051 569.396 587.503C567.878 588.955 566.359 590.242 564.841 591.364C563.323 592.42 561.804 593.278 560.286 593.938C558.834 594.532 557.382 594.829 555.929 594.829C554.015 594.829 552.431 594.301 551.176 593.245C549.922 592.189 549.295 590.737 549.295 588.889C549.295 586.909 550.087 584.764 551.671 582.454C553.256 580.077 555.005 577.701 556.92 575.325C558.834 572.949 560.583 570.672 562.168 568.494C563.752 566.316 564.544 564.401 564.544 562.751C564.544 561.959 564.28 561.365 563.752 560.969C563.224 560.573 562.531 560.375 561.672 560.375C560.022 560.375 558.174 561.002 556.127 562.256C554.081 563.444 551.969 565.061 549.79 567.108C547.678 569.088 545.532 571.332 543.354 573.84C541.241 576.282 539.261 578.757 537.413 581.265C535.564 583.708 533.914 586.084 532.462 588.394C531.009 590.638 529.92 592.519 529.194 594.037H523.055C524.771 591.133 526.62 588.196 528.6 585.226C530.514 582.19 532.429 579.219 534.343 576.315C536.257 573.345 538.073 570.507 539.789 567.801C541.571 565.028 543.156 562.52 544.542 560.276L550.978 559.979Z" fill="#4E4138"/>
<path d="M640.228 525.525C637.654 529.617 634.848 533.941 631.812 538.495C628.775 543.049 625.738 547.57 622.702 552.059C619.665 556.547 616.728 560.903 613.889 565.127C611.117 569.286 608.641 573.114 606.463 576.612C604.284 580.11 602.535 583.147 601.215 585.721C599.96 588.229 599.333 590.077 599.333 591.265C599.333 591.991 599.498 592.585 599.828 593.047C600.224 593.443 600.785 593.641 601.512 593.641C603.162 593.641 605.043 592.981 607.156 591.661C609.268 590.341 611.81 588.262 614.78 585.424C617.355 582.916 619.863 580.143 622.306 577.107C624.748 574.005 626.861 570.969 628.643 567.999L629.435 568.395C628.841 569.451 628.049 570.705 627.059 572.157C626.134 573.543 625.078 574.995 623.89 576.513C622.768 578.031 621.547 579.582 620.226 581.166C618.906 582.685 617.553 584.137 616.167 585.523C613.526 588.229 610.918 590.473 608.344 592.255C605.769 593.971 603.393 594.829 601.215 594.829C599.102 594.829 597.518 594.4 596.462 593.542C595.471 592.618 594.976 591.463 594.976 590.077C594.976 588.823 595.24 587.602 595.768 586.414C596.297 585.226 596.825 584.17 597.353 583.246L597.155 583.147C596.099 584.335 594.91 585.622 593.59 587.008C592.336 588.328 590.983 589.582 589.53 590.77C588.078 591.958 586.527 592.948 584.876 593.74C583.292 594.466 581.642 594.829 579.925 594.829C577.549 594.829 575.7 594.103 574.38 592.651C573.126 591.199 572.499 589.483 572.499 587.503C572.499 584.731 573.456 581.694 575.37 578.394C577.285 575.094 579.661 572.025 582.5 569.187C585.404 566.349 588.507 563.972 591.808 562.058C595.108 560.144 598.178 559.187 601.017 559.187C603.129 559.187 604.812 559.847 606.067 561.167C607.321 562.487 607.915 564.17 607.849 566.217H608.146L633.693 525.525H640.228ZM605.076 566.316C605.076 564.731 604.812 563.345 604.284 562.157C603.756 560.969 602.535 560.375 600.62 560.375C599.3 560.375 597.815 560.837 596.165 561.761C594.58 562.685 592.963 563.906 591.313 565.424C589.662 566.943 588.045 568.692 586.461 570.672C584.942 572.586 583.589 574.566 582.401 576.612C581.213 578.592 580.255 580.539 579.529 582.454C578.803 584.368 578.44 586.084 578.44 587.602C578.44 588.988 578.704 590.143 579.232 591.067C579.76 591.991 580.718 592.453 582.104 592.453C583.292 592.453 584.645 591.991 586.164 591.067C587.748 590.143 589.398 588.955 591.115 587.503C592.831 585.985 594.514 584.269 596.165 582.355C597.815 580.44 599.3 578.526 600.62 576.612C601.941 574.698 602.997 572.85 603.789 571.068C604.647 569.22 605.076 567.636 605.076 566.316Z" fill="#4E4138"/>
<path d="M639.172 559.979L626.597 578.295L626.795 578.493C627.719 577.371 628.874 576.084 630.261 574.632C631.713 573.114 633.264 571.596 634.914 570.078C636.631 568.494 638.413 566.943 640.262 565.424C642.11 563.906 643.925 562.553 645.708 561.365C646.038 560.705 646.401 560.177 646.797 559.781C647.193 559.385 647.985 559.187 649.173 559.187C649.899 559.187 650.527 559.22 651.055 559.286C651.649 559.286 652.243 559.319 652.837 559.385C651.715 560.507 650.626 561.893 649.569 563.543C648.513 565.127 647.985 566.877 647.985 568.791C647.985 570.309 648.348 571.497 649.074 572.355C649.866 573.213 650.824 573.642 651.946 573.642C652.936 573.642 653.893 573.444 654.817 573.048C655.808 572.652 656.732 572.157 657.59 571.563C658.448 570.969 659.273 570.342 660.065 569.682C660.858 569.022 661.551 568.428 662.145 567.9L662.739 568.296C662.079 568.956 661.32 569.682 660.462 570.474C659.603 571.2 658.679 571.893 657.689 572.553C656.699 573.213 655.643 573.774 654.52 574.236C653.398 574.632 652.243 574.83 651.055 574.83C648.942 574.83 647.226 574.203 645.906 572.949C644.651 571.629 644.024 569.814 644.024 567.504C644.024 565.92 644.387 564.5 645.113 563.246L644.915 563.048C642.209 564.896 639.238 567.339 636.004 570.375C632.769 573.345 629.336 576.876 625.706 580.968C624.385 582.421 622.999 584.335 621.547 586.711C620.161 589.087 618.939 591.529 617.883 594.037H611.447C615.012 588.361 618.576 582.718 622.141 577.107C625.706 571.497 629.369 565.788 633.132 559.979H639.172Z" fill="#4E4138"/>
<path d="M679.87 563.147C679.87 562.223 679.606 561.53 679.078 561.068C678.616 560.606 678.022 560.375 677.296 560.375C675.909 560.375 674.391 560.936 672.741 562.058C671.156 563.114 669.572 564.467 667.988 566.118C666.404 567.702 664.951 569.418 663.631 571.266C662.377 573.114 661.419 574.764 660.759 576.216C662.212 575.952 664.027 575.457 666.205 574.731C668.384 573.939 670.463 572.982 672.444 571.86C674.49 570.738 676.239 569.451 677.692 567.999C679.144 566.481 679.87 564.863 679.87 563.147ZM695.911 568.395C694.921 570.045 693.667 571.86 692.149 573.84C690.696 575.82 689.013 577.8 687.099 579.78C685.25 581.695 683.237 583.576 681.058 585.424C678.946 587.206 676.734 588.823 674.424 590.275C672.114 591.661 669.77 592.783 667.394 593.641C665.083 594.433 662.806 594.829 660.561 594.829C657.789 594.829 655.643 594.136 654.125 592.75C652.607 591.298 651.848 589.252 651.848 586.612C651.848 583.708 652.706 580.671 654.422 577.503C656.204 574.269 658.449 571.299 661.155 568.593C663.862 565.887 666.833 563.642 670.067 561.86C673.302 560.078 676.404 559.187 679.375 559.187C681.025 559.187 682.313 559.55 683.237 560.276C684.161 560.936 684.623 561.926 684.623 563.246C684.623 564.83 683.765 566.382 682.049 567.9C680.332 569.352 678.22 570.705 675.711 571.959C673.269 573.147 670.628 574.236 667.79 575.226C664.951 576.15 662.443 576.843 660.264 577.305C659.538 578.625 658.944 580.11 658.482 581.76C658.02 583.411 657.789 585.061 657.789 586.711C657.789 587.503 657.855 588.295 657.987 589.087C658.185 589.813 658.449 590.506 658.779 591.166C659.175 591.76 659.67 592.255 660.264 592.651C660.924 593.047 661.717 593.245 662.641 593.245C664.819 593.245 667.361 592.552 670.265 591.166C673.236 589.714 676.239 587.8 679.276 585.424C682.313 583.048 685.217 580.341 687.99 577.305C690.762 574.269 693.139 571.134 695.119 567.9L695.911 568.395Z" fill="#4E4138"/>
<path d="M721.459 559.979H727.895C725.453 563.411 723.109 566.745 720.865 569.979C718.621 573.213 716.607 576.216 714.825 578.988C713.108 581.695 711.722 584.104 710.666 586.216C709.61 588.262 709.082 589.879 709.082 591.067C709.082 592.783 709.973 593.641 711.755 593.641C713.142 593.641 714.891 592.981 717.003 591.661C719.182 590.275 721.525 588.394 724.034 586.018C726.542 583.642 729.117 580.869 731.757 577.701C734.398 574.533 736.906 571.167 739.283 567.603L739.877 567.801C738.094 570.507 735.982 573.444 733.54 576.612C731.163 579.714 728.655 582.619 726.014 585.325C723.374 588.031 720.733 590.308 718.092 592.156C715.452 593.938 712.976 594.829 710.666 594.829C708.752 594.829 707.332 594.367 706.408 593.443C705.55 592.453 705.121 591.298 705.121 589.978C705.121 589.054 705.253 588.163 705.517 587.305C705.847 586.381 706.177 585.457 706.507 584.533L706.309 584.434C705.451 585.358 704.362 586.447 703.042 587.701C701.787 588.889 700.401 590.011 698.883 591.067C697.43 592.123 695.912 593.014 694.328 593.74C692.743 594.466 691.225 594.829 689.773 594.829C687.33 594.829 685.614 594.07 684.624 592.552C683.634 591.034 683.139 589.318 683.139 587.404C683.139 584.698 683.997 581.728 685.713 578.493C687.429 575.193 689.608 572.124 692.248 569.286C694.889 566.382 697.76 563.972 700.863 562.058C703.966 560.144 706.903 559.187 709.676 559.187C710.996 559.187 712.151 559.385 713.141 559.781C714.132 560.111 714.957 560.606 715.617 561.266C716.277 561.86 716.772 562.553 717.102 563.345C717.498 564.137 717.795 564.962 717.993 565.821H718.192L721.459 559.979ZM689.08 587.701C689.08 589.219 689.377 590.407 689.971 591.265C690.631 592.057 691.522 592.453 692.644 592.453C693.767 592.453 695.087 592.057 696.605 591.265C698.124 590.407 699.708 589.285 701.358 587.899C703.008 586.513 704.626 584.929 706.21 583.147C707.86 581.299 709.313 579.351 710.567 577.305C711.821 575.259 712.844 573.18 713.637 571.068C714.429 568.956 714.825 566.943 714.825 565.028C714.825 563.51 714.396 562.355 713.538 561.563C712.679 560.771 711.623 560.375 710.369 560.375C708.389 560.375 706.177 561.233 703.735 562.949C701.292 564.665 698.982 566.877 696.803 569.583C694.625 572.223 692.776 575.16 691.258 578.394C689.806 581.628 689.08 584.731 689.08 587.701Z" fill="#4E4138"/>
<path d="M825.166 582.058C822.393 586.216 818.928 589.384 814.769 591.562C810.61 593.74 806.286 594.829 801.797 594.829C800.543 594.829 799.157 594.73 797.639 594.532C796.12 594.334 794.569 594.037 792.985 593.641C791.466 593.179 789.981 592.618 788.529 591.958C787.076 591.232 785.756 590.407 784.568 589.483C783.908 590.077 783.149 590.704 782.29 591.364C781.432 591.958 780.442 592.519 779.32 593.047C778.264 593.575 777.075 594.004 775.755 594.334C774.501 594.664 773.082 594.829 771.497 594.829C769.319 594.829 767.338 594.499 765.556 593.839C763.84 593.113 762.355 592.156 761.1 590.968C759.912 589.78 758.988 588.394 758.328 586.81C757.668 585.16 757.338 583.411 757.338 581.563C757.338 579.384 757.734 577.338 758.526 575.424C759.384 573.51 760.506 571.728 761.892 570.078C763.279 568.428 764.83 566.976 766.546 565.722C768.329 564.467 770.144 563.444 771.992 562.652C771.992 560.54 772.422 558.23 773.28 555.722C774.204 553.148 775.458 550.772 777.042 548.593C778.627 546.349 780.475 544.501 782.587 543.049C784.7 541.531 786.977 540.772 789.42 540.772C791.202 540.772 792.687 541.3 793.876 542.356C795.064 543.346 795.658 544.798 795.658 546.712C795.658 548.428 794.932 550.046 793.48 551.564C792.093 553.016 790.41 554.402 788.43 555.722C786.449 556.976 784.403 558.098 782.29 559.088C780.244 560.078 778.594 560.936 777.339 561.662C777.405 566.151 778.363 570.441 780.211 574.533C782.059 578.625 784.535 582.256 787.638 585.424C790.08 583.246 792.291 580.902 794.272 578.394C796.252 575.886 798.134 573.576 799.916 571.464C801.764 569.286 803.58 567.504 805.362 566.118C807.21 564.665 809.158 563.939 811.204 563.939C812.92 563.939 814.34 564.401 815.462 565.325C816.65 566.25 817.244 567.471 817.244 568.989C817.244 569.517 817.079 570.111 816.749 570.771C816.485 571.431 816.122 571.992 815.66 572.454C815.132 571.332 814.274 570.408 813.086 569.682C811.897 568.89 810.445 568.494 808.729 568.494C807.474 568.494 806.286 568.758 805.164 569.286C804.108 569.748 803.085 570.408 802.094 571.266C801.17 572.058 800.246 572.982 799.322 574.038C798.398 575.094 797.473 576.216 796.549 577.404C793.579 580.902 790.872 583.807 788.43 586.117C790.41 588.097 792.787 589.78 795.559 591.166C798.332 592.552 801.17 593.245 804.075 593.245C806.121 593.245 808.135 592.948 810.115 592.354C812.095 591.76 813.977 590.935 815.759 589.879C817.541 588.823 819.192 587.602 820.71 586.216C822.228 584.83 823.549 583.312 824.671 581.662L825.166 582.058ZM791.697 546.217C791.697 543.379 790.509 541.96 788.133 541.96C786.68 541.96 785.129 542.653 783.479 544.039C781.894 545.359 780.541 547.306 779.419 549.881C778.429 552.191 777.835 554.237 777.637 556.019C777.438 557.735 777.339 559.253 777.339 560.573C779.254 559.715 781.069 558.824 782.786 557.9C784.568 556.976 786.119 555.953 787.44 554.831C788.76 553.709 789.783 552.455 790.509 551.069C791.301 549.616 791.697 547.999 791.697 546.217ZM762.685 579.978C762.685 581.563 762.916 583.114 763.378 584.632C763.906 586.15 764.599 587.503 765.457 588.691C766.381 589.813 767.47 590.737 768.725 591.463C769.979 592.123 771.398 592.453 772.983 592.453C775.425 592.453 777.505 592.09 779.221 591.364C780.937 590.638 782.422 589.78 783.677 588.79C780.046 585.754 777.174 582.025 775.062 577.602C773.016 573.114 771.992 568.494 771.992 563.741C770.474 564.401 769.121 565.325 767.933 566.514C766.81 567.636 765.853 568.923 765.061 570.375C764.269 571.827 763.675 573.378 763.279 575.028C762.883 576.678 762.685 578.328 762.685 579.978Z" fill="#4E4138"/>
<path d="M901.642 545.128C901.708 545.788 901.741 546.415 901.741 547.009C901.741 547.603 901.741 548.197 901.741 548.791C901.741 551.366 901.113 553.841 899.859 556.217C898.671 558.527 896.955 560.606 894.71 562.454C892.532 564.236 889.924 565.655 886.888 566.712C883.851 567.768 880.517 568.296 876.887 568.296C871.474 568.296 867.414 567.075 864.707 564.632C862.067 562.19 860.746 559.022 860.746 555.128C860.746 551.96 861.803 548.692 863.915 545.326C866.093 541.96 869.658 538.891 874.609 536.119C879.56 533.346 886.096 531.069 894.215 529.287C902.335 527.439 912.402 526.515 924.416 526.515C928.113 526.515 931.479 526.614 934.516 526.812C937.553 527.01 940.16 527.109 942.339 527.109C944.253 527.109 945.837 527.01 947.092 526.812C948.412 526.614 949.534 526.515 950.458 526.515C951.25 526.515 951.977 526.779 952.637 527.307C953.297 527.769 953.627 528.462 953.627 529.386C953.627 529.98 953.429 530.475 953.033 530.871C952.703 531.201 952.076 531.432 951.151 531.564C950.227 531.696 948.973 531.795 947.389 531.861C945.87 531.861 943.923 531.861 941.546 531.861C936.926 531.861 933.064 532.686 929.961 534.337C926.925 535.921 924.086 538.363 921.446 541.663C918.805 544.897 916.065 548.989 913.227 553.94C910.388 558.824 906.857 564.533 902.632 571.068C901.179 573.312 899.331 575.853 897.087 578.691C894.908 581.53 892.301 584.203 889.264 586.711C886.228 589.219 882.762 591.331 878.867 593.047C874.972 594.763 870.582 595.621 865.697 595.621C863.849 595.621 861.902 595.39 859.855 594.928C857.809 594.532 855.928 593.872 854.211 592.948C852.561 591.958 851.175 590.671 850.052 589.087C848.996 587.503 848.468 585.556 848.468 583.246C848.468 581.794 848.864 580.572 849.656 579.582C850.514 578.526 851.703 577.998 853.221 577.998C854.277 577.998 855.135 578.361 855.795 579.087C856.522 579.747 856.885 580.605 856.885 581.662C856.885 582.652 856.555 583.444 855.895 584.038C855.234 584.632 854.475 584.929 853.617 584.929C853.155 584.929 852.759 584.863 852.429 584.731C852.759 587.899 854.244 590.308 856.885 591.958C859.525 593.608 862.793 594.433 866.688 594.433C870.384 594.433 873.784 593.608 876.887 591.958C879.989 590.308 882.861 588.13 885.501 585.424C888.208 582.718 890.749 579.648 893.126 576.216C895.502 572.718 897.846 569.121 900.156 565.424C902.533 561.662 904.909 557.966 907.286 554.336C909.662 550.64 912.171 547.273 914.811 544.237C917.452 541.201 920.257 538.627 923.228 536.515C926.264 534.337 929.598 532.917 933.229 532.257V532.059C930.258 532.059 927.024 531.927 923.525 531.663C920.026 531.399 916.792 531.267 913.821 531.267C905.503 531.267 898.11 531.894 891.641 533.148C885.237 534.337 879.824 536.02 875.401 538.198C870.979 540.31 867.612 542.818 865.301 545.722C863.057 548.626 861.935 551.762 861.935 555.128C861.935 559.088 863.255 562.091 865.896 564.137C868.602 566.118 872.398 567.108 877.283 567.108C880.715 567.108 883.851 566.613 886.69 565.623C889.528 564.566 891.971 563.213 894.017 561.563C896.063 559.847 897.648 557.9 898.77 555.722C899.958 553.544 900.552 551.3 900.552 548.989C900.552 548.329 900.552 547.702 900.552 547.108C900.552 546.448 900.519 545.788 900.453 545.128H901.642Z" fill="#4E4138"/>
<path d="M961.501 568.989C959.917 570.771 958.135 572.19 956.154 573.246C954.174 574.302 952.226 574.83 950.312 574.83C948.464 574.83 946.879 574.434 945.559 573.642C944.239 572.784 943.216 571.794 942.489 570.672H942.291C941.631 573.18 940.41 575.853 938.628 578.691C936.845 581.53 934.7 584.137 932.191 586.513C929.749 588.889 927.042 590.869 924.072 592.453C921.101 594.037 918.065 594.829 914.962 594.829C912.123 594.829 909.978 594.004 908.526 592.354C907.073 590.704 906.347 588.493 906.347 585.721C906.347 584.269 906.71 582.586 907.437 580.671C908.163 578.757 909.153 576.843 910.407 574.929C911.727 572.949 913.246 571.035 914.962 569.187C916.744 567.273 918.659 565.589 920.705 564.137C922.752 562.619 924.897 561.431 927.141 560.573C929.452 559.649 931.762 559.187 934.073 559.187C936.779 559.187 938.859 559.979 940.311 561.563C941.829 563.147 942.655 565.193 942.787 567.702C942.919 569.22 943.612 570.639 944.866 571.959C946.186 573.213 947.969 573.84 950.213 573.84C952.193 573.84 954.042 573.345 955.758 572.355C957.54 571.365 959.191 570.078 960.709 568.494L961.501 568.989ZM911.694 588.097C911.694 589.813 912.024 591.166 912.685 592.156C913.345 593.146 914.335 593.641 915.655 593.641C917.437 593.641 919.187 593.179 920.903 592.255C922.686 591.265 924.369 590.011 925.953 588.493C927.604 586.909 929.122 585.127 930.508 583.147C931.894 581.166 933.083 579.12 934.073 577.008C935.129 574.896 935.954 572.85 936.548 570.87C937.142 568.824 937.439 566.976 937.439 565.325C937.439 563.939 937.076 562.784 936.35 561.86C935.69 560.87 934.634 560.375 933.182 560.375C931.795 560.375 930.31 560.837 928.726 561.761C927.141 562.619 925.524 563.774 923.874 565.226C922.289 566.679 920.771 568.362 919.319 570.276C917.867 572.19 916.546 574.17 915.358 576.216C914.236 578.262 913.345 580.308 912.685 582.355C912.024 584.401 911.694 586.315 911.694 588.097Z" fill="#4E4138"/>
<path d="M971.139 559.979L958.564 578.295L958.762 578.493C959.686 577.371 960.841 576.084 962.228 574.632C963.68 573.114 965.231 571.596 966.882 570.078C968.598 568.494 970.38 566.943 972.229 565.424C974.077 563.906 975.892 562.553 977.675 561.365C978.005 560.705 978.368 560.177 978.764 559.781C979.16 559.385 979.952 559.187 981.14 559.187C981.867 559.187 982.494 559.22 983.022 559.286C983.616 559.286 984.21 559.319 984.804 559.385C983.682 560.507 982.593 561.893 981.536 563.543C980.48 565.127 979.952 566.877 979.952 568.791C979.952 570.309 980.315 571.497 981.041 572.355C981.834 573.213 982.791 573.642 983.913 573.642C984.903 573.642 985.86 573.444 986.785 573.048C987.775 572.652 988.699 572.157 989.557 571.563C990.415 570.969 991.24 570.342 992.033 569.682C992.825 569.022 993.518 568.428 994.112 567.9L994.706 568.296C994.046 568.956 993.287 569.682 992.429 570.474C991.57 571.2 990.646 571.893 989.656 572.553C988.666 573.213 987.61 573.774 986.487 574.236C985.365 574.632 984.21 574.83 983.022 574.83C980.909 574.83 979.193 574.203 977.873 572.949C976.619 571.629 975.991 569.814 975.991 567.504C975.991 565.92 976.354 564.5 977.081 563.246L976.883 563.048C974.176 564.896 971.205 567.339 967.971 570.375C964.736 573.345 961.303 576.876 957.673 580.968C956.352 582.421 954.966 584.335 953.514 586.711C952.128 589.087 950.906 591.529 949.85 594.037H943.414C946.979 588.361 950.543 582.718 954.108 577.107C957.673 571.497 961.336 565.788 965.099 559.979H971.139Z" fill="#4E4138"/>
<path d="M1003.72 559.979L982.824 592.948C985.795 592.486 988.766 591.562 991.736 590.176C994.773 588.724 997.71 586.909 1000.55 584.731C1003.45 582.487 1006.19 579.912 1008.77 577.008C1011.41 574.104 1013.85 570.969 1016.1 567.603L1016.99 567.999C1014.94 571.101 1012.63 574.104 1010.05 577.008C1007.55 579.912 1004.84 582.553 1001.94 584.929C999.031 587.239 995.895 589.219 992.528 590.869C989.228 592.453 985.762 593.509 982.131 594.037C979.953 597.536 977.477 601.001 974.705 604.433C971.932 607.931 968.896 611.066 965.595 613.839C962.228 616.611 958.598 618.855 954.703 620.571C950.742 622.287 946.517 623.145 942.028 623.145C939.916 623.145 937.87 622.914 935.889 622.452C933.909 621.99 932.159 621.264 930.641 620.274C929.123 619.284 927.902 618.063 926.977 616.611C926.053 615.159 925.591 613.442 925.591 611.462C925.591 610.01 925.921 608.69 926.581 607.502C927.175 606.314 928.001 605.291 929.057 604.433C930.113 603.641 931.301 603.014 932.622 602.552C933.876 602.156 935.163 601.958 936.483 601.958C937.011 601.958 937.507 601.991 937.969 602.057C938.431 602.123 938.827 602.189 939.157 602.255V603.146H938.464C935.757 603.146 933.744 603.971 932.424 605.621C931.037 607.271 930.344 609.086 930.344 611.066C930.344 614.961 931.466 617.733 933.711 619.383C935.955 621.099 938.926 621.957 942.623 621.957C946.715 621.957 950.577 620.868 954.208 618.69C957.773 616.512 961.106 613.74 964.209 610.373C967.311 607.007 970.216 603.311 972.923 599.285C975.629 595.258 978.138 591.364 980.448 587.602L997.578 559.979H1003.72ZM1009.86 541.564C1010.78 541.564 1011.54 541.894 1012.13 542.554C1012.73 543.148 1013.03 543.907 1013.03 544.831C1013.03 545.755 1012.73 546.547 1012.13 547.207C1011.54 547.801 1010.78 548.098 1009.86 548.098C1008.93 548.098 1008.17 547.801 1007.58 547.207C1006.99 546.547 1006.69 545.755 1006.69 544.831C1006.69 543.907 1006.99 543.148 1007.58 542.554C1008.17 541.894 1008.93 541.564 1009.86 541.564Z" fill="#4E4138"/>
<path d="M1027.05 559.979C1024.48 563.477 1022 566.811 1019.63 569.979C1017.25 573.147 1015.14 576.051 1013.29 578.691C1011.44 581.331 1009.96 583.642 1008.83 585.622C1007.78 587.536 1007.25 589.054 1007.25 590.176C1007.25 591.232 1007.51 592.024 1008.04 592.552C1008.57 593.014 1009.26 593.245 1010.12 593.245C1011.38 593.245 1012.73 592.849 1014.18 592.057C1015.7 591.265 1017.22 590.242 1018.74 588.988C1020.32 587.734 1021.84 586.348 1023.29 584.83C1024.81 583.312 1026.2 581.827 1027.45 580.374C1028.77 578.856 1029.89 577.47 1030.82 576.216C1031.81 574.962 1032.53 573.972 1033 573.246L1041.71 559.979H1048.54C1044.98 564.863 1041.94 569.022 1039.43 572.454C1036.99 575.82 1034.98 578.691 1033.39 581.067C1031.87 583.444 1030.78 585.391 1030.12 586.909C1029.46 588.361 1029.13 589.648 1029.13 590.77C1029.13 591.562 1029.36 592.255 1029.83 592.849C1030.29 593.377 1030.95 593.641 1031.81 593.641C1033.13 593.641 1034.65 593.179 1036.36 592.255C1038.08 591.265 1039.86 590.011 1041.71 588.493C1043.56 586.909 1045.37 585.16 1047.16 583.246C1049 581.265 1050.72 579.318 1052.3 577.404C1053.95 575.49 1055.44 573.708 1056.76 572.058C1058.08 570.342 1059.1 568.956 1059.83 567.9L1060.82 568.197C1060.03 569.319 1058.97 570.771 1057.65 572.553C1056.33 574.269 1054.85 576.117 1053.2 578.097C1051.55 580.011 1049.8 581.992 1047.95 584.038C1046.1 586.018 1044.18 587.8 1042.2 589.384C1040.29 590.968 1038.38 592.288 1036.46 593.344C1034.61 594.334 1032.86 594.829 1031.21 594.829C1029.36 594.829 1027.88 594.334 1026.76 593.344C1025.7 592.288 1025.17 590.902 1025.17 589.186C1025.17 587.866 1025.37 586.612 1025.77 585.424C1026.23 584.17 1026.56 583.378 1026.76 583.048L1026.56 582.85C1025.17 584.434 1023.72 585.952 1022.2 587.404C1020.68 588.856 1019.17 590.143 1017.65 591.265C1016.13 592.321 1014.58 593.179 1012.99 593.839C1011.48 594.499 1009.96 594.829 1008.44 594.829C1006.33 594.829 1004.81 594.367 1003.88 593.443C1002.96 592.453 1002.5 591.298 1002.5 589.978C1002.5 588.328 1002.96 586.546 1003.88 584.632C1004.74 582.718 1005.96 580.572 1007.55 578.196C1009.13 575.82 1011.01 573.147 1013.19 570.177C1015.44 567.207 1017.88 563.807 1020.52 559.979H1027.05Z" fill="#4E4138"/>
<path d="M1093.53 568.494C1091.55 571.662 1089.24 574.83 1086.6 577.998C1084.02 581.1 1081.19 583.906 1078.08 586.414C1074.98 588.922 1071.58 590.968 1067.88 592.552C1064.25 594.07 1060.36 594.829 1056.2 594.829C1054.62 594.829 1053.13 594.631 1051.74 594.235C1050.36 593.839 1049.14 593.245 1048.08 592.453C1047.09 591.661 1046.3 590.671 1045.7 589.483C1045.04 588.229 1044.71 586.777 1044.71 585.127C1044.71 583.411 1045.27 581.86 1046.4 580.473C1047.52 579.087 1049.04 578.394 1050.95 578.394C1051.94 578.394 1052.73 578.658 1053.33 579.186C1053.99 579.648 1054.32 580.374 1054.32 581.365C1054.32 582.289 1054.09 583.081 1053.63 583.741C1053.16 584.401 1052.47 584.731 1051.55 584.731C1050.82 584.731 1050.23 584.533 1049.76 584.137C1049.37 583.741 1049.1 583.246 1048.97 582.652C1048.24 583.048 1047.75 583.642 1047.49 584.434C1047.22 585.16 1047.09 585.919 1047.09 586.711C1047.09 589.021 1047.95 590.77 1049.66 591.958C1051.45 593.08 1053.43 593.641 1055.61 593.641C1056.99 593.641 1058.18 593.377 1059.17 592.849C1060.23 592.255 1061.08 591.529 1061.74 590.671C1062.47 589.747 1063 588.691 1063.33 587.503C1063.66 586.315 1063.82 585.127 1063.82 583.939C1063.82 582.685 1063.59 581.397 1063.13 580.077C1062.73 578.691 1062.27 577.338 1061.74 576.018C1061.22 574.698 1060.72 573.411 1060.26 572.157C1059.8 570.837 1059.57 569.616 1059.57 568.494C1059.57 567.042 1059.86 565.754 1060.46 564.632C1061.05 563.444 1061.84 562.454 1062.83 561.662C1063.89 560.87 1065.08 560.276 1066.4 559.88C1067.72 559.418 1069.11 559.187 1070.56 559.187C1073.2 559.187 1075.34 559.781 1076.99 560.969C1078.64 562.091 1079.47 563.609 1079.47 565.523C1079.47 567.24 1078.81 568.494 1077.49 569.286C1076.23 570.078 1074.82 570.474 1073.23 570.474C1073.63 569.748 1073.96 568.89 1074.22 567.9C1074.55 566.844 1074.72 565.887 1074.72 565.028C1074.72 563.708 1074.29 562.619 1073.43 561.761C1072.64 560.837 1071.48 560.375 1069.96 560.375C1068.05 560.375 1066.63 560.969 1065.71 562.157C1064.78 563.279 1064.32 564.665 1064.32 566.316C1064.32 567.768 1064.55 569.154 1065.01 570.474C1065.54 571.794 1066.13 573.114 1066.79 574.434C1067.39 575.754 1067.92 577.107 1068.38 578.493C1068.91 579.879 1069.17 581.431 1069.17 583.147C1069.17 584.401 1068.87 585.622 1068.28 586.81C1067.75 587.932 1067.03 588.988 1066.1 589.978C1065.18 590.902 1064.12 591.694 1062.93 592.354C1061.81 593.014 1060.66 593.443 1059.47 593.641L1059.67 593.839C1063.23 593.443 1066.63 592.42 1069.86 590.77C1073.1 589.054 1076.1 587.008 1078.88 584.632C1081.71 582.19 1084.32 579.549 1086.7 576.711C1089.07 573.807 1091.15 570.969 1092.94 568.197L1093.53 568.494Z" fill="#4E4138"/>
</svg>
